%TF.GenerationSoftware,KiCad,Pcbnew,8.0.0*%
%TF.CreationDate,2024-08-25T13:37:12+02:00*%
%TF.ProjectId,Detector_PTFE_FR4_4_warstwy,44657465-6374-46f7-925f-505446455f46,rev?*%
%TF.SameCoordinates,Original*%
%TF.FileFunction,Copper,L3,Inr*%
%TF.FilePolarity,Positive*%
%FSLAX46Y46*%
G04 Gerber Fmt 4.6, Leading zero omitted, Abs format (unit mm)*
G04 Created by KiCad (PCBNEW 8.0.0) date 2024-08-25 13:37:12*
%MOMM*%
%LPD*%
G01*
G04 APERTURE LIST*
%TA.AperFunction,CastellatedPad*%
%ADD10R,1.700000X1.700000*%
%TD*%
%TA.AperFunction,CastellatedPad*%
%ADD11O,1.700000X1.700000*%
%TD*%
%TA.AperFunction,ViaPad*%
%ADD12C,0.400000*%
%TD*%
G04 APERTURE END LIST*
D10*
%TO.N,GNDA*%
%TO.C,REF\u002A\u002A*%
X67183000Y-42775939D03*
D11*
%TO.N,ADC1_IN0_DET1*%
X69723000Y-42775939D03*
X72263000Y-42775939D03*
%TO.N,GNDA*%
X74803000Y-42775939D03*
%TD*%
D10*
%TO.N,GNDA*%
%TO.C,REF\u002A\u002A*%
X63500000Y-34163000D03*
D11*
%TO.N,Net-(C3-Pad2)*%
X63500000Y-36703000D03*
%TO.N,+5V*%
X63500000Y-39243000D03*
%TO.N,GNDA*%
X63500000Y-41783000D03*
%TD*%
D10*
%TO.N,ADC3_IN3_TEMP*%
%TO.C,REF\u002A\u002A*%
X78486000Y-34163000D03*
D11*
%TO.N,T_ADJ_1*%
X78486000Y-36703000D03*
%TO.N,+5V*%
X78486000Y-39243000D03*
X78486000Y-41783000D03*
%TD*%
D12*
%TO.N,GNDA*%
X69215000Y-29083000D03*
X66167000Y-41783000D03*
X63119000Y-31115000D03*
X76835000Y-31115000D03*
X73279000Y-30607000D03*
X64643000Y-27559000D03*
X74295000Y-32639000D03*
X79121000Y-30099000D03*
X68199000Y-28067000D03*
X78486000Y-31623000D03*
X65659000Y-27559000D03*
X64643000Y-26543000D03*
X73787000Y-28067000D03*
X64135000Y-30099000D03*
X73787000Y-29083000D03*
X64643000Y-42164000D03*
X78486000Y-29591000D03*
X72136000Y-39497000D03*
X65659000Y-26543000D03*
X65659000Y-42164000D03*
X68707000Y-31623000D03*
X64643000Y-29591000D03*
X76835000Y-29083000D03*
X79121000Y-27051000D03*
X76835000Y-28067000D03*
X72771000Y-31115000D03*
X78486000Y-27559000D03*
X63119000Y-27051000D03*
X64135000Y-40767000D03*
X65659000Y-40259000D03*
X63627000Y-26543000D03*
X77343000Y-31623000D03*
X77851000Y-28067000D03*
X78486000Y-30607000D03*
X77851000Y-29083000D03*
X64643000Y-31623000D03*
X65151000Y-40767000D03*
X76835000Y-30099000D03*
X68199000Y-31242000D03*
X63627000Y-32639000D03*
X63754000Y-43180000D03*
X76835000Y-32131000D03*
X73787000Y-33147000D03*
X67691000Y-29591000D03*
X66675000Y-31623000D03*
X73279000Y-31623000D03*
X65151000Y-31115000D03*
X63627000Y-27559000D03*
X74295000Y-26543000D03*
X68453000Y-36703000D03*
X67691000Y-32639000D03*
X75311000Y-32639000D03*
X79121000Y-32131000D03*
X65659000Y-29591000D03*
X77343000Y-29591000D03*
X67691000Y-31623000D03*
X68707000Y-29591000D03*
X63119000Y-29083000D03*
X75311000Y-41529000D03*
X76327000Y-27559000D03*
X72771000Y-30099000D03*
X66167000Y-40767000D03*
X67691000Y-26543000D03*
X74295000Y-30607000D03*
X65659000Y-30607000D03*
X79121000Y-31115000D03*
X65659000Y-41275000D03*
X68707000Y-27559000D03*
X65151000Y-28067000D03*
X65151000Y-42672000D03*
X64643000Y-32639000D03*
X72771000Y-28067000D03*
X66675000Y-41275000D03*
X74295000Y-27559000D03*
X64643000Y-41275000D03*
X74295000Y-31623000D03*
X65151000Y-30099000D03*
X64135000Y-29083000D03*
X63627000Y-31623000D03*
X64643000Y-28575000D03*
X65151000Y-41656000D03*
X65151000Y-29083000D03*
X72771000Y-29083000D03*
X68199000Y-32131000D03*
X73787000Y-27051000D03*
X78486000Y-32639000D03*
X69215000Y-30099000D03*
X74295000Y-28575000D03*
X64135000Y-32131000D03*
X74803000Y-33147000D03*
X76327000Y-30607000D03*
X77851000Y-31115000D03*
X76327000Y-32639000D03*
X74295000Y-29591000D03*
X75311000Y-31623000D03*
X77343000Y-30607000D03*
X65151000Y-32131000D03*
X69215000Y-28067000D03*
X72771000Y-27051000D03*
X65659000Y-28575000D03*
X79121000Y-28067000D03*
X77851000Y-32131000D03*
X76835000Y-27051000D03*
X79121000Y-29083000D03*
X68199000Y-30099000D03*
X68707000Y-26543000D03*
X63119000Y-28067000D03*
X72771000Y-33274000D03*
X78486000Y-28575000D03*
X64643000Y-40259000D03*
X72771000Y-32131000D03*
X74803000Y-32131000D03*
X77851000Y-30099000D03*
X75819000Y-33147000D03*
X73279000Y-27559000D03*
X73787000Y-32131000D03*
X64135000Y-28067000D03*
X68707000Y-28575000D03*
X63119000Y-30099000D03*
X73279000Y-26543000D03*
X77851000Y-27051000D03*
X76327000Y-28575000D03*
X68707000Y-32639000D03*
X65659000Y-31623000D03*
X77343000Y-27559000D03*
X64135000Y-31115000D03*
X63627000Y-28575000D03*
X65659000Y-43180000D03*
X65151000Y-27051000D03*
X73279000Y-32639000D03*
X68199000Y-29083000D03*
X63119000Y-32131000D03*
X73787000Y-30099000D03*
X73279000Y-29591000D03*
X76327000Y-29591000D03*
X68199000Y-27051000D03*
X63627000Y-30607000D03*
X76327000Y-31623000D03*
X73787000Y-31115000D03*
X62865000Y-43180000D03*
X76327000Y-26543000D03*
X73279000Y-28575000D03*
X67691000Y-27559000D03*
X64643000Y-43180000D03*
X64135000Y-27051000D03*
X77343000Y-32639000D03*
X64643000Y-30607000D03*
X69215000Y-27051000D03*
X67691000Y-28575000D03*
X75819000Y-32131000D03*
X77343000Y-28575000D03*
X77343000Y-26543000D03*
X67437000Y-41275000D03*
X78486000Y-26543000D03*
X63627000Y-29591000D03*
%TD*%
%TA.AperFunction,Conductor*%
%TO.N,+5V*%
G36*
X72246606Y-26281407D02*
G01*
X72282570Y-26330907D01*
X72282570Y-26392093D01*
X72258420Y-26431501D01*
X72162500Y-26527422D01*
X72141181Y-26548741D01*
X72045211Y-26701476D01*
X72045211Y-26701477D01*
X71985633Y-26871738D01*
X71985632Y-26871742D01*
X71965435Y-27051000D01*
X71985632Y-27230257D01*
X71985633Y-27230261D01*
X72045211Y-27400522D01*
X72045211Y-27400523D01*
X72111693Y-27506329D01*
X72126643Y-27565660D01*
X72111693Y-27611671D01*
X72045211Y-27717476D01*
X72045211Y-27717477D01*
X71985633Y-27887738D01*
X71985632Y-27887742D01*
X71965435Y-28067000D01*
X71985632Y-28246257D01*
X71985633Y-28246261D01*
X72045211Y-28416522D01*
X72045211Y-28416523D01*
X72111693Y-28522329D01*
X72126643Y-28581660D01*
X72111693Y-28627671D01*
X72045211Y-28733476D01*
X72045211Y-28733477D01*
X71985633Y-28903738D01*
X71985632Y-28903742D01*
X71965435Y-29083000D01*
X71985632Y-29262257D01*
X71985633Y-29262261D01*
X72045211Y-29432522D01*
X72045211Y-29432523D01*
X72111693Y-29538329D01*
X72126643Y-29597660D01*
X72111693Y-29643671D01*
X72045211Y-29749476D01*
X72045211Y-29749477D01*
X71985633Y-29919738D01*
X71985632Y-29919742D01*
X71965435Y-30099000D01*
X71985632Y-30278257D01*
X71985633Y-30278261D01*
X72045211Y-30448522D01*
X72045211Y-30448523D01*
X72111693Y-30554329D01*
X72126643Y-30613660D01*
X72111693Y-30659671D01*
X72045211Y-30765476D01*
X72045211Y-30765477D01*
X71985633Y-30935738D01*
X71985632Y-30935742D01*
X71965435Y-31115000D01*
X71985632Y-31294257D01*
X71985633Y-31294261D01*
X72045211Y-31464522D01*
X72045211Y-31464523D01*
X72111693Y-31570329D01*
X72126643Y-31629660D01*
X72111693Y-31675671D01*
X72045211Y-31781476D01*
X72045211Y-31781477D01*
X71985633Y-31951738D01*
X71985632Y-31951742D01*
X71965435Y-32131000D01*
X71985632Y-32310257D01*
X71985633Y-32310261D01*
X72045211Y-32480522D01*
X72045211Y-32480523D01*
X72141181Y-32633258D01*
X72144648Y-32637605D01*
X72143494Y-32638525D01*
X72168198Y-32687028D01*
X72158617Y-32747459D01*
X72144321Y-32767134D01*
X72144648Y-32767395D01*
X72141181Y-32771741D01*
X72045211Y-32924476D01*
X72045211Y-32924477D01*
X71985633Y-33094738D01*
X71985632Y-33094742D01*
X71965435Y-33274000D01*
X71985632Y-33453257D01*
X71985633Y-33453261D01*
X72045211Y-33623522D01*
X72045211Y-33623523D01*
X72141181Y-33776258D01*
X72141184Y-33776262D01*
X72268738Y-33903816D01*
X72268740Y-33903817D01*
X72268741Y-33903818D01*
X72346321Y-33952565D01*
X72421478Y-33999789D01*
X72489657Y-34023646D01*
X72591738Y-34059366D01*
X72591742Y-34059367D01*
X72591745Y-34059368D01*
X72771000Y-34079565D01*
X72950255Y-34059368D01*
X73120522Y-33999789D01*
X73273262Y-33903816D01*
X73299856Y-33877222D01*
X73354372Y-33849443D01*
X73414805Y-33859014D01*
X73422533Y-33863399D01*
X73437473Y-33872787D01*
X73437476Y-33872787D01*
X73437478Y-33872789D01*
X73526145Y-33903815D01*
X73607738Y-33932366D01*
X73607742Y-33932367D01*
X73607745Y-33932368D01*
X73787000Y-33952565D01*
X73966255Y-33932368D01*
X74136522Y-33872789D01*
X74242329Y-33806306D01*
X74301659Y-33791356D01*
X74347671Y-33806306D01*
X74453474Y-33872787D01*
X74453478Y-33872789D01*
X74466147Y-33877222D01*
X74623738Y-33932366D01*
X74623742Y-33932367D01*
X74623745Y-33932368D01*
X74803000Y-33952565D01*
X74982255Y-33932368D01*
X75152522Y-33872789D01*
X75258329Y-33806306D01*
X75317659Y-33791356D01*
X75363671Y-33806306D01*
X75469474Y-33872787D01*
X75469478Y-33872789D01*
X75482147Y-33877222D01*
X75639738Y-33932366D01*
X75639742Y-33932367D01*
X75639745Y-33932368D01*
X75819000Y-33952565D01*
X75998255Y-33932368D01*
X76168522Y-33872789D01*
X76321262Y-33776816D01*
X76448816Y-33649262D01*
X76544789Y-33496522D01*
X76563188Y-33443937D01*
X76600252Y-33395257D01*
X76623936Y-33383188D01*
X76676522Y-33364789D01*
X76782329Y-33298305D01*
X76841658Y-33283356D01*
X76887670Y-33298306D01*
X76989171Y-33362083D01*
X77028383Y-33409052D01*
X77035500Y-33445909D01*
X77035500Y-35052357D01*
X77035501Y-35052362D01*
X77050955Y-35169758D01*
X77050957Y-35169766D01*
X77111462Y-35315838D01*
X77111462Y-35315839D01*
X77111464Y-35315841D01*
X77207718Y-35441282D01*
X77333159Y-35537536D01*
X77386242Y-35559523D01*
X77432767Y-35599259D01*
X77447051Y-35658753D01*
X77423637Y-35715281D01*
X77421193Y-35718037D01*
X77337427Y-35809032D01*
X77205953Y-36010267D01*
X77205950Y-36010272D01*
X77109388Y-36230414D01*
X77050379Y-36463437D01*
X77050379Y-36463438D01*
X77030529Y-36703000D01*
X77050379Y-36942561D01*
X77050379Y-36942562D01*
X77078225Y-37052523D01*
X77109390Y-37175591D01*
X77122405Y-37205262D01*
X77205950Y-37395727D01*
X77205953Y-37395732D01*
X77337425Y-37596964D01*
X77337427Y-37596966D01*
X77337429Y-37596969D01*
X77500236Y-37773825D01*
X77689933Y-37921472D01*
X77833355Y-37999088D01*
X77875532Y-38043411D01*
X77883602Y-38104062D01*
X77854481Y-38157873D01*
X77843019Y-38167251D01*
X77679450Y-38281783D01*
X77524783Y-38436450D01*
X77399331Y-38615615D01*
X77399327Y-38615623D01*
X77339931Y-38742998D01*
X77339932Y-38743000D01*
X78420174Y-38743000D01*
X78293007Y-38777075D01*
X78178993Y-38842901D01*
X78085901Y-38935993D01*
X78020075Y-39050007D01*
X77986000Y-39177174D01*
X77986000Y-39308826D01*
X78020075Y-39435993D01*
X78085901Y-39550007D01*
X78178993Y-39643099D01*
X78293007Y-39708925D01*
X78420174Y-39743000D01*
X78551826Y-39743000D01*
X78678993Y-39708925D01*
X78793007Y-39643099D01*
X78886099Y-39550007D01*
X78951925Y-39435993D01*
X78986000Y-39308826D01*
X78986000Y-40389066D01*
X79113387Y-40329666D01*
X79113388Y-40329666D01*
X79292549Y-40204216D01*
X79359496Y-40137270D01*
X79414013Y-40109493D01*
X79474445Y-40119064D01*
X79517710Y-40162329D01*
X79528500Y-40207274D01*
X79528500Y-40818726D01*
X79509593Y-40876917D01*
X79460093Y-40912881D01*
X79398907Y-40912881D01*
X79359496Y-40888730D01*
X79292549Y-40821783D01*
X79113386Y-40696332D01*
X78986000Y-40636931D01*
X78986000Y-41717174D01*
X78951925Y-41590007D01*
X78886099Y-41475993D01*
X78793007Y-41382901D01*
X78678993Y-41317075D01*
X78551826Y-41283000D01*
X78420174Y-41283000D01*
X78293007Y-41317075D01*
X78178993Y-41382901D01*
X78085901Y-41475993D01*
X78020075Y-41590007D01*
X77986000Y-41717174D01*
X77986000Y-41848826D01*
X78020075Y-41975993D01*
X78085901Y-42090007D01*
X78178993Y-42183099D01*
X78293007Y-42248925D01*
X78420174Y-42283000D01*
X78551826Y-42283000D01*
X78678993Y-42248925D01*
X78793007Y-42183099D01*
X78886099Y-42090007D01*
X78951925Y-41975993D01*
X78986000Y-41848826D01*
X78986000Y-42929066D01*
X79113387Y-42869666D01*
X79113388Y-42869666D01*
X79292549Y-42744216D01*
X79359496Y-42677270D01*
X79414013Y-42649493D01*
X79474445Y-42659064D01*
X79517710Y-42702329D01*
X79528500Y-42747274D01*
X79528500Y-43615500D01*
X79509593Y-43673691D01*
X79460093Y-43709655D01*
X79429500Y-43714500D01*
X76105374Y-43714500D01*
X76047183Y-43695593D01*
X76011219Y-43646093D01*
X76011219Y-43584907D01*
X76022495Y-43561352D01*
X76083046Y-43468671D01*
X76083049Y-43468667D01*
X76179610Y-43248530D01*
X76238620Y-43015502D01*
X76258471Y-42775939D01*
X76238620Y-42536376D01*
X76179610Y-42303348D01*
X76170685Y-42283000D01*
X77339931Y-42283000D01*
X77399332Y-42410386D01*
X77524783Y-42589549D01*
X77679450Y-42744216D01*
X77858611Y-42869666D01*
X77986000Y-42929067D01*
X77986000Y-42283001D01*
X77985999Y-42283000D01*
X77339931Y-42283000D01*
X76170685Y-42283000D01*
X76083049Y-42083211D01*
X76028601Y-41999873D01*
X76012603Y-41940819D01*
X76027654Y-41893058D01*
X76036789Y-41878522D01*
X76096368Y-41708255D01*
X76116565Y-41529000D01*
X76096368Y-41349745D01*
X76094763Y-41345159D01*
X76073013Y-41282998D01*
X77339931Y-41282998D01*
X77339932Y-41283000D01*
X77985999Y-41283000D01*
X77986000Y-41282999D01*
X77986000Y-40636931D01*
X77985998Y-40636931D01*
X77858623Y-40696327D01*
X77858615Y-40696331D01*
X77679450Y-40821783D01*
X77524783Y-40976450D01*
X77399331Y-41155615D01*
X77399327Y-41155623D01*
X77339931Y-41282998D01*
X76073013Y-41282998D01*
X76070214Y-41275000D01*
X76036789Y-41179478D01*
X75940816Y-41026738D01*
X75813262Y-40899184D01*
X75813259Y-40899182D01*
X75813258Y-40899181D01*
X75660523Y-40803211D01*
X75490261Y-40743633D01*
X75490257Y-40743632D01*
X75311000Y-40723435D01*
X75131742Y-40743632D01*
X75131738Y-40743633D01*
X74961477Y-40803211D01*
X74961476Y-40803211D01*
X74808741Y-40899181D01*
X74681181Y-41026741D01*
X74585211Y-41179476D01*
X74585211Y-41179477D01*
X74544270Y-41296478D01*
X74507204Y-41345159D01*
X74467124Y-41361429D01*
X74445708Y-41365003D01*
X74218340Y-41443058D01*
X74006932Y-41557467D01*
X74006929Y-41557469D01*
X73817239Y-41705111D01*
X73817236Y-41705113D01*
X73817236Y-41705114D01*
X73758262Y-41769177D01*
X73654427Y-41881972D01*
X73615879Y-41940974D01*
X73568223Y-41979347D01*
X73507113Y-41982380D01*
X73455891Y-41948915D01*
X73450121Y-41940974D01*
X73411572Y-41881972D01*
X73411571Y-41881970D01*
X73248764Y-41705114D01*
X73200811Y-41667790D01*
X73059070Y-41557469D01*
X73059067Y-41557467D01*
X72847659Y-41443058D01*
X72726321Y-41401403D01*
X72620297Y-41365005D01*
X72620294Y-41365004D01*
X72620293Y-41365004D01*
X72383192Y-41325439D01*
X72142808Y-41325439D01*
X71905706Y-41365004D01*
X71678340Y-41443058D01*
X71466932Y-41557467D01*
X71466929Y-41557469D01*
X71277239Y-41705111D01*
X71277236Y-41705113D01*
X71277236Y-41705114D01*
X71218262Y-41769177D01*
X71114427Y-41881972D01*
X71075879Y-41940974D01*
X71028223Y-41979347D01*
X70967113Y-41982380D01*
X70915891Y-41948915D01*
X70910121Y-41940974D01*
X70871572Y-41881972D01*
X70871571Y-41881970D01*
X70708764Y-41705114D01*
X70660811Y-41667790D01*
X70519070Y-41557469D01*
X70519067Y-41557467D01*
X70307659Y-41443058D01*
X70186321Y-41401403D01*
X70080297Y-41365005D01*
X70080294Y-41365004D01*
X70080293Y-41365004D01*
X69843192Y-41325439D01*
X69602808Y-41325439D01*
X69365706Y-41365004D01*
X69138340Y-41443058D01*
X68926932Y-41557467D01*
X68926929Y-41557469D01*
X68737232Y-41705117D01*
X68735999Y-41706252D01*
X68735452Y-41706502D01*
X68734005Y-41707629D01*
X68733739Y-41707287D01*
X68680376Y-41731743D01*
X68620393Y-41719671D01*
X68578962Y-41674648D01*
X68577497Y-41671288D01*
X68557537Y-41623100D01*
X68557537Y-41623099D01*
X68461286Y-41497662D01*
X68461285Y-41497661D01*
X68461282Y-41497657D01*
X68461277Y-41497653D01*
X68461276Y-41497652D01*
X68390127Y-41443058D01*
X68335841Y-41401403D01*
X68317856Y-41393953D01*
X68301949Y-41387364D01*
X68255424Y-41347626D01*
X68241141Y-41288131D01*
X68241459Y-41284812D01*
X68242565Y-41275000D01*
X68222368Y-41095745D01*
X68162789Y-40925478D01*
X68146267Y-40899184D01*
X68066818Y-40772741D01*
X68066817Y-40772740D01*
X68066816Y-40772738D01*
X67939262Y-40645184D01*
X67939259Y-40645182D01*
X67939258Y-40645181D01*
X67786523Y-40549211D01*
X67616261Y-40489633D01*
X67616257Y-40489632D01*
X67437000Y-40469435D01*
X67257742Y-40489632D01*
X67257738Y-40489633D01*
X67088697Y-40548784D01*
X67027527Y-40550157D01*
X67023310Y-40548787D01*
X66971935Y-40530810D01*
X66923255Y-40493745D01*
X66911190Y-40470068D01*
X66892789Y-40417478D01*
X66796816Y-40264738D01*
X66669262Y-40137184D01*
X66669259Y-40137182D01*
X66669258Y-40137181D01*
X66516523Y-40041211D01*
X66463935Y-40022810D01*
X66415255Y-39985745D01*
X66403190Y-39962068D01*
X66384789Y-39909478D01*
X66288816Y-39756738D01*
X66161262Y-39629184D01*
X66161259Y-39629182D01*
X66161258Y-39629181D01*
X66008523Y-39533211D01*
X65905039Y-39497000D01*
X71330435Y-39497000D01*
X71350632Y-39676257D01*
X71350633Y-39676261D01*
X71410211Y-39846522D01*
X71410211Y-39846523D01*
X71506181Y-39999258D01*
X71506184Y-39999262D01*
X71633738Y-40126816D01*
X71633740Y-40126817D01*
X71633741Y-40126818D01*
X71690256Y-40162329D01*
X71786478Y-40222789D01*
X71854657Y-40246646D01*
X71956738Y-40282366D01*
X71956742Y-40282367D01*
X71956745Y-40282368D01*
X72136000Y-40302565D01*
X72315255Y-40282368D01*
X72485522Y-40222789D01*
X72638262Y-40126816D01*
X72765816Y-39999262D01*
X72861789Y-39846522D01*
X72898013Y-39743000D01*
X77339931Y-39743000D01*
X77399332Y-39870386D01*
X77524783Y-40049549D01*
X77679450Y-40204216D01*
X77858611Y-40329666D01*
X77986000Y-40389067D01*
X77986000Y-39743001D01*
X77985999Y-39743000D01*
X77339931Y-39743000D01*
X72898013Y-39743000D01*
X72921368Y-39676255D01*
X72941565Y-39497000D01*
X72921368Y-39317745D01*
X72861789Y-39147478D01*
X72765816Y-38994738D01*
X72638262Y-38867184D01*
X72638259Y-38867182D01*
X72638258Y-38867181D01*
X72485523Y-38771211D01*
X72315261Y-38711633D01*
X72315257Y-38711632D01*
X72136000Y-38691435D01*
X71956742Y-38711632D01*
X71956738Y-38711633D01*
X71786477Y-38771211D01*
X71786476Y-38771211D01*
X71633741Y-38867181D01*
X71506181Y-38994741D01*
X71410211Y-39147476D01*
X71410211Y-39147477D01*
X71350633Y-39317738D01*
X71350632Y-39317742D01*
X71330435Y-39497000D01*
X65905039Y-39497000D01*
X65838261Y-39473633D01*
X65838257Y-39473632D01*
X65659000Y-39453435D01*
X65479742Y-39473632D01*
X65479738Y-39473633D01*
X65309477Y-39533211D01*
X65309476Y-39533211D01*
X65203671Y-39599693D01*
X65144340Y-39614643D01*
X65098329Y-39599693D01*
X64992523Y-39533211D01*
X64822261Y-39473633D01*
X64822257Y-39473632D01*
X64643000Y-39453435D01*
X64463742Y-39473632D01*
X64463738Y-39473633D01*
X64293477Y-39533211D01*
X64293476Y-39533211D01*
X64140741Y-39629181D01*
X64140736Y-39629185D01*
X64055917Y-39714004D01*
X64001400Y-39741781D01*
X63985914Y-39743000D01*
X63565826Y-39743000D01*
X63692993Y-39708925D01*
X63807007Y-39643099D01*
X63900099Y-39550007D01*
X63965925Y-39435993D01*
X64000000Y-39308826D01*
X64000000Y-39177174D01*
X63965925Y-39050007D01*
X63900099Y-38935993D01*
X63807007Y-38842901D01*
X63692993Y-38777075D01*
X63565826Y-38743000D01*
X64646068Y-38743000D01*
X64646068Y-38742998D01*
X64586672Y-38615623D01*
X64586668Y-38615615D01*
X64461216Y-38436450D01*
X64306549Y-38281783D01*
X64142981Y-38167251D01*
X64106159Y-38118386D01*
X64105091Y-38057210D01*
X64140185Y-38007090D01*
X64152639Y-37999090D01*
X64296067Y-37921472D01*
X64485764Y-37773825D01*
X64648571Y-37596969D01*
X64780049Y-37395728D01*
X64876610Y-37175591D01*
X64935620Y-36942563D01*
X64955471Y-36703000D01*
X67647435Y-36703000D01*
X67667632Y-36882257D01*
X67667633Y-36882261D01*
X67727211Y-37052522D01*
X67727211Y-37052523D01*
X67804540Y-37175591D01*
X67823184Y-37205262D01*
X67950738Y-37332816D01*
X67950740Y-37332817D01*
X67950741Y-37332818D01*
X68050861Y-37395728D01*
X68103478Y-37428789D01*
X68168868Y-37451670D01*
X68273738Y-37488366D01*
X68273742Y-37488367D01*
X68273745Y-37488368D01*
X68453000Y-37508565D01*
X68632255Y-37488368D01*
X68802522Y-37428789D01*
X68955262Y-37332816D01*
X69082816Y-37205262D01*
X69178789Y-37052522D01*
X69238368Y-36882255D01*
X69258565Y-36703000D01*
X69238368Y-36523745D01*
X69178789Y-36353478D01*
X69082816Y-36200738D01*
X68955262Y-36073184D01*
X68955259Y-36073182D01*
X68955258Y-36073181D01*
X68802523Y-35977211D01*
X68632261Y-35917633D01*
X68632257Y-35917632D01*
X68453000Y-35897435D01*
X68273742Y-35917632D01*
X68273738Y-35917633D01*
X68103477Y-35977211D01*
X68103476Y-35977211D01*
X67950741Y-36073181D01*
X67823181Y-36200741D01*
X67727211Y-36353476D01*
X67727211Y-36353477D01*
X67667633Y-36523738D01*
X67667632Y-36523742D01*
X67647435Y-36703000D01*
X64955471Y-36703000D01*
X64935620Y-36463437D01*
X64876610Y-36230409D01*
X64780049Y-36010272D01*
X64758449Y-35977211D01*
X64648574Y-35809035D01*
X64648572Y-35809033D01*
X64648571Y-35809031D01*
X64564805Y-35718037D01*
X64539305Y-35662420D01*
X64551366Y-35602435D01*
X64596382Y-35560995D01*
X64599698Y-35559548D01*
X64652841Y-35537536D01*
X64778282Y-35441282D01*
X64874536Y-35315841D01*
X64935044Y-35169762D01*
X64950500Y-35052361D01*
X64950499Y-33445908D01*
X64969406Y-33387718D01*
X64996826Y-33362084D01*
X65145262Y-33268816D01*
X65272816Y-33141262D01*
X65368789Y-32988522D01*
X65387188Y-32935937D01*
X65424252Y-32887257D01*
X65447936Y-32875188D01*
X65500522Y-32856789D01*
X65653262Y-32760816D01*
X65780816Y-32633262D01*
X65876789Y-32480522D01*
X65895188Y-32427937D01*
X65932252Y-32379257D01*
X65955936Y-32367188D01*
X66008522Y-32348789D01*
X66114329Y-32282305D01*
X66173658Y-32267356D01*
X66219670Y-32282306D01*
X66325476Y-32348788D01*
X66325478Y-32348789D01*
X66393657Y-32372646D01*
X66495738Y-32408366D01*
X66495742Y-32408367D01*
X66495745Y-32408368D01*
X66675000Y-32428565D01*
X66788795Y-32415743D01*
X66848735Y-32428017D01*
X66890015Y-32473179D01*
X66898256Y-32525205D01*
X66885435Y-32638999D01*
X66905632Y-32818257D01*
X66905633Y-32818261D01*
X66965211Y-32988522D01*
X66965211Y-32988523D01*
X67031955Y-33094745D01*
X67061184Y-33141262D01*
X67188738Y-33268816D01*
X67341478Y-33364789D01*
X67407005Y-33387718D01*
X67511738Y-33424366D01*
X67511742Y-33424367D01*
X67511745Y-33424368D01*
X67691000Y-33444565D01*
X67870255Y-33424368D01*
X68040522Y-33364789D01*
X68146329Y-33298306D01*
X68205659Y-33283356D01*
X68251671Y-33298306D01*
X68357478Y-33364789D01*
X68423005Y-33387718D01*
X68527738Y-33424366D01*
X68527742Y-33424367D01*
X68527745Y-33424368D01*
X68707000Y-33444565D01*
X68886255Y-33424368D01*
X69056522Y-33364789D01*
X69209262Y-33268816D01*
X69336816Y-33141262D01*
X69432789Y-32988522D01*
X69492368Y-32818255D01*
X69512565Y-32639000D01*
X69492368Y-32459745D01*
X69481457Y-32428564D01*
X69465491Y-32382935D01*
X69432789Y-32289478D01*
X69366306Y-32183671D01*
X69351356Y-32124341D01*
X69366306Y-32078329D01*
X69432788Y-31972523D01*
X69432789Y-31972522D01*
X69492368Y-31802255D01*
X69512565Y-31623000D01*
X69492368Y-31443745D01*
X69432789Y-31273478D01*
X69336816Y-31120738D01*
X69275559Y-31059481D01*
X69247784Y-31004967D01*
X69257355Y-30944535D01*
X69300620Y-30901270D01*
X69334476Y-30891103D01*
X69394255Y-30884368D01*
X69564522Y-30824789D01*
X69717262Y-30728816D01*
X69844816Y-30601262D01*
X69940789Y-30448522D01*
X70000368Y-30278255D01*
X70020565Y-30099000D01*
X70000368Y-29919745D01*
X69940789Y-29749478D01*
X69874306Y-29643671D01*
X69859356Y-29584341D01*
X69874306Y-29538329D01*
X69940788Y-29432523D01*
X69940789Y-29432522D01*
X70000368Y-29262255D01*
X70020565Y-29083000D01*
X70000368Y-28903745D01*
X69940789Y-28733478D01*
X69874306Y-28627671D01*
X69859356Y-28568341D01*
X69874306Y-28522329D01*
X69940788Y-28416523D01*
X69940789Y-28416522D01*
X70000368Y-28246255D01*
X70020565Y-28067000D01*
X70000368Y-27887745D01*
X69940789Y-27717478D01*
X69874306Y-27611671D01*
X69859356Y-27552341D01*
X69874306Y-27506329D01*
X69940788Y-27400523D01*
X69940789Y-27400522D01*
X70000368Y-27230255D01*
X70020565Y-27051000D01*
X70000368Y-26871745D01*
X69940789Y-26701478D01*
X69844816Y-26548738D01*
X69727579Y-26431501D01*
X69699804Y-26376987D01*
X69709375Y-26316555D01*
X69752640Y-26273290D01*
X69797585Y-26262500D01*
X72188415Y-26262500D01*
X72246606Y-26281407D01*
G37*
%TD.AperFunction*%
%TA.AperFunction,Conductor*%
G36*
X63034075Y-39435993D02*
G01*
X63099901Y-39550007D01*
X63192993Y-39643099D01*
X63307007Y-39708925D01*
X63434174Y-39743000D01*
X63099000Y-39743000D01*
X63040809Y-39724093D01*
X63004845Y-39674593D01*
X63000000Y-39644000D01*
X63000000Y-39308826D01*
X63034075Y-39435993D01*
G37*
%TD.AperFunction*%
%TA.AperFunction,Conductor*%
G36*
X63307007Y-38777075D02*
G01*
X63192993Y-38842901D01*
X63099901Y-38935993D01*
X63034075Y-39050007D01*
X63000000Y-39177174D01*
X63000000Y-38842000D01*
X63018907Y-38783809D01*
X63068407Y-38747845D01*
X63099000Y-38743000D01*
X63434174Y-38743000D01*
X63307007Y-38777075D01*
G37*
%TD.AperFunction*%
%TA.AperFunction,Conductor*%
G36*
X78945191Y-38761907D02*
G01*
X78981155Y-38811407D01*
X78986000Y-38842000D01*
X78986000Y-39177174D01*
X78951925Y-39050007D01*
X78886099Y-38935993D01*
X78793007Y-38842901D01*
X78678993Y-38777075D01*
X78551826Y-38743000D01*
X78887000Y-38743000D01*
X78945191Y-38761907D01*
G37*
%TD.AperFunction*%
%TD*%
M02*
