M48
; DRILL file {KiCad 8.0.0} date 2024-08-25T13:37:09+0200
; FORMAT={-:-/ absolute / inch / decimal}
; #@! TF.CreationDate,2024-08-25T13:37:09+02:00
; #@! TF.GenerationSoftware,Kicad,Pcbnew,8.0.0
; #@! TF.FileFunction,Plated,1,4,PTH
FMAT,2
INCH
; #@! TA.AperFunction,Plated,PTH,ViaDrill
T1C0.0118
; #@! TA.AperFunction,Plated,PTH,ComponentDrill
T2C0.0394
%
G90
G05
T1
X2.475Y-1.7
X2.485Y-1.065
X2.485Y-1.105
X2.485Y-1.145
X2.485Y-1.185
X2.485Y-1.225
X2.485Y-1.265
X2.505Y-1.045
X2.505Y-1.085
X2.505Y-1.125
X2.505Y-1.165
X2.505Y-1.205
X2.505Y-1.245
X2.505Y-1.285
X2.51Y-1.7
X2.525Y-1.065
X2.525Y-1.105
X2.525Y-1.145
X2.525Y-1.185
X2.525Y-1.225
X2.525Y-1.265
X2.525Y-1.605
X2.545Y-1.045
X2.545Y-1.085
X2.545Y-1.125
X2.545Y-1.165
X2.545Y-1.205
X2.545Y-1.245
X2.545Y-1.285
X2.545Y-1.585
X2.545Y-1.625
X2.545Y-1.66
X2.545Y-1.7
X2.565Y-1.065
X2.565Y-1.105
X2.565Y-1.145
X2.565Y-1.185
X2.565Y-1.225
X2.565Y-1.265
X2.565Y-1.605
X2.565Y-1.64
X2.565Y-1.68
X2.585Y-1.045
X2.585Y-1.085
X2.585Y-1.125
X2.585Y-1.165
X2.585Y-1.205
X2.585Y-1.245
X2.585Y-1.585
X2.585Y-1.625
X2.585Y-1.66
X2.585Y-1.7
X2.605Y-1.605
X2.605Y-1.645
X2.625Y-1.245
X2.625Y-1.625
X2.655Y-1.625
X2.665Y-1.045
X2.665Y-1.085
X2.665Y-1.125
X2.665Y-1.165
X2.665Y-1.245
X2.665Y-1.285
X2.685Y-1.065
X2.685Y-1.105
X2.685Y-1.145
X2.685Y-1.185
X2.685Y-1.23
X2.685Y-1.265
X2.695Y-1.445
X2.705Y-1.045
X2.705Y-1.085
X2.705Y-1.125
X2.705Y-1.165
X2.705Y-1.245
X2.705Y-1.285
X2.725Y-1.065
X2.725Y-1.105
X2.725Y-1.145
X2.725Y-1.185
X2.84Y-1.555
X2.865Y-1.065
X2.865Y-1.105
X2.865Y-1.145
X2.865Y-1.185
X2.865Y-1.225
X2.865Y-1.265
X2.865Y-1.31
X2.885Y-1.045
X2.885Y-1.085
X2.885Y-1.125
X2.885Y-1.165
X2.885Y-1.205
X2.885Y-1.245
X2.885Y-1.285
X2.905Y-1.065
X2.905Y-1.105
X2.905Y-1.145
X2.905Y-1.185
X2.905Y-1.225
X2.905Y-1.265
X2.905Y-1.305
X2.925Y-1.045
X2.925Y-1.085
X2.925Y-1.125
X2.925Y-1.165
X2.925Y-1.205
X2.925Y-1.245
X2.925Y-1.285
X2.945Y-1.265
X2.945Y-1.305
X2.965Y-1.245
X2.965Y-1.285
X2.965Y-1.635
X2.985Y-1.265
X2.985Y-1.305
X3.005Y-1.045
X3.005Y-1.085
X3.005Y-1.125
X3.005Y-1.165
X3.005Y-1.205
X3.005Y-1.245
X3.005Y-1.285
X3.025Y-1.065
X3.025Y-1.105
X3.025Y-1.145
X3.025Y-1.185
X3.025Y-1.225
X3.025Y-1.265
X3.045Y-1.045
X3.045Y-1.085
X3.045Y-1.125
X3.045Y-1.165
X3.045Y-1.205
X3.045Y-1.245
X3.045Y-1.285
X3.065Y-1.065
X3.065Y-1.105
X3.065Y-1.145
X3.065Y-1.185
X3.065Y-1.225
X3.065Y-1.265
X3.09Y-1.045
X3.09Y-1.085
X3.09Y-1.125
X3.09Y-1.165
X3.09Y-1.205
X3.09Y-1.245
X3.09Y-1.285
X3.115Y-1.065
X3.115Y-1.105
X3.115Y-1.145
X3.115Y-1.185
X3.115Y-1.225
X3.115Y-1.265
T2
X2.5Y-1.345
X2.5Y-1.445
X2.5Y-1.545
X2.5Y-1.645
X2.645Y-1.6841
X2.745Y-1.6841
X2.845Y-1.6841
X2.945Y-1.6841
X3.09Y-1.345
X3.09Y-1.445
X3.09Y-1.545
X3.09Y-1.645
M30
