%TF.GenerationSoftware,KiCad,Pcbnew,8.0.0*%
%TF.CreationDate,2024-08-25T13:37:12+02:00*%
%TF.ProjectId,Detector_PTFE_FR4_4_warstwy,44657465-6374-46f7-925f-505446455f46,rev?*%
%TF.SameCoordinates,Original*%
%TF.FileFunction,Copper,L1,Top*%
%TF.FilePolarity,Positive*%
%FSLAX46Y46*%
G04 Gerber Fmt 4.6, Leading zero omitted, Abs format (unit mm)*
G04 Created by KiCad (PCBNEW 8.0.0) date 2024-08-25 13:37:12*
%MOMM*%
%LPD*%
G01*
G04 APERTURE LIST*
G04 Aperture macros list*
%AMRoundRect*
0 Rectangle with rounded corners*
0 $1 Rounding radius*
0 $2 $3 $4 $5 $6 $7 $8 $9 X,Y pos of 4 corners*
0 Add a 4 corners polygon primitive as box body*
4,1,4,$2,$3,$4,$5,$6,$7,$8,$9,$2,$3,0*
0 Add four circle primitives for the rounded corners*
1,1,$1+$1,$2,$3*
1,1,$1+$1,$4,$5*
1,1,$1+$1,$6,$7*
1,1,$1+$1,$8,$9*
0 Add four rect primitives between the rounded corners*
20,1,$1+$1,$2,$3,$4,$5,0*
20,1,$1+$1,$4,$5,$6,$7,0*
20,1,$1+$1,$6,$7,$8,$9,0*
20,1,$1+$1,$8,$9,$2,$3,0*%
G04 Aperture macros list end*
%TA.AperFunction,SMDPad,CuDef*%
%ADD10RoundRect,0.135000X0.135000X0.185000X-0.135000X0.185000X-0.135000X-0.185000X0.135000X-0.185000X0*%
%TD*%
%TA.AperFunction,SMDPad,CuDef*%
%ADD11RoundRect,0.140000X-0.140000X-0.170000X0.140000X-0.170000X0.140000X0.170000X-0.140000X0.170000X0*%
%TD*%
%TA.AperFunction,CastellatedPad*%
%ADD12R,1.700000X1.700000*%
%TD*%
%TA.AperFunction,CastellatedPad*%
%ADD13O,1.700000X1.700000*%
%TD*%
%TA.AperFunction,SMDPad,CuDef*%
%ADD14RoundRect,0.225000X-0.250000X0.225000X-0.250000X-0.225000X0.250000X-0.225000X0.250000X0.225000X0*%
%TD*%
%TA.AperFunction,SMDPad,CuDef*%
%ADD15R,1.500000X5.080000*%
%TD*%
%TA.AperFunction,SMDPad,CuDef*%
%ADD16RoundRect,0.140000X-0.170000X0.140000X-0.170000X-0.140000X0.170000X-0.140000X0.170000X0.140000X0*%
%TD*%
%TA.AperFunction,SMDPad,CuDef*%
%ADD17RoundRect,0.135000X-0.185000X0.135000X-0.185000X-0.135000X0.185000X-0.135000X0.185000X0.135000X0*%
%TD*%
%TA.AperFunction,SMDPad,CuDef*%
%ADD18RoundRect,0.100000X-0.175000X-0.100000X0.175000X-0.100000X0.175000X0.100000X-0.175000X0.100000X0*%
%TD*%
%TA.AperFunction,SMDPad,CuDef*%
%ADD19RoundRect,0.100000X-0.100000X-0.175000X0.100000X-0.175000X0.100000X0.175000X-0.100000X0.175000X0*%
%TD*%
%TA.AperFunction,SMDPad,CuDef*%
%ADD20RoundRect,0.140000X0.170000X-0.140000X0.170000X0.140000X-0.170000X0.140000X-0.170000X-0.140000X0*%
%TD*%
%TA.AperFunction,SMDPad,CuDef*%
%ADD21RoundRect,0.218750X0.218750X0.256250X-0.218750X0.256250X-0.218750X-0.256250X0.218750X-0.256250X0*%
%TD*%
%TA.AperFunction,SMDPad,CuDef*%
%ADD22RoundRect,0.218750X-0.218750X-0.256250X0.218750X-0.256250X0.218750X0.256250X-0.218750X0.256250X0*%
%TD*%
%TA.AperFunction,ViaPad*%
%ADD23C,0.400000*%
%TD*%
%TA.AperFunction,Conductor*%
%ADD24C,0.156464*%
%TD*%
%TA.AperFunction,Conductor*%
%ADD25C,0.200000*%
%TD*%
%TA.AperFunction,Conductor*%
%ADD26C,0.484441*%
%TD*%
%TA.AperFunction,Conductor*%
%ADD27C,0.400000*%
%TD*%
G04 APERTURE END LIST*
D10*
%TO.P,R3,1*%
%TO.N,Net-(J1-In)*%
X70106000Y-30861000D03*
%TO.P,R3,2*%
%TO.N,GNDA*%
X69086000Y-30861000D03*
%TD*%
D11*
%TO.P,C5,1*%
%TO.N,GNDA*%
X66830000Y-40235939D03*
%TO.P,C5,2*%
%TO.N,Net-(U1-CLPF)*%
X67790000Y-40235939D03*
%TD*%
D12*
%TO.P,REF\u002A\u002A,1*%
%TO.N,GNDA*%
X67183000Y-42775939D03*
D13*
%TO.P,REF\u002A\u002A,2*%
%TO.N,ADC1_IN0_DET1*%
X69723000Y-42775939D03*
%TO.P,REF\u002A\u002A,3*%
X72263000Y-42775939D03*
%TO.P,REF\u002A\u002A,4*%
%TO.N,GNDA*%
X74803000Y-42775939D03*
%TD*%
D14*
%TO.P,C2,1*%
%TO.N,GNDA*%
X66675000Y-32602939D03*
%TO.P,C2,2*%
%TO.N,Net-(U1-INLO)*%
X66675000Y-34152939D03*
%TD*%
D15*
%TO.P,J1,1,In*%
%TO.N,Net-(J1-In)*%
X70993000Y-28730500D03*
%TO.P,J1,2,Ext*%
%TO.N,GNDA*%
X66743000Y-28730500D03*
X75243000Y-28730500D03*
%TD*%
D16*
%TO.P,C3,1*%
%TO.N,GNDA*%
X66802000Y-36707939D03*
%TO.P,C3,2*%
%TO.N,Net-(C3-Pad2)*%
X66802000Y-37667939D03*
%TD*%
D12*
%TO.P,REF\u002A\u002A,1*%
%TO.N,GNDA*%
X63500000Y-34163000D03*
D13*
%TO.P,REF\u002A\u002A,2*%
%TO.N,Net-(C3-Pad2)*%
X63500000Y-36703000D03*
%TO.P,REF\u002A\u002A,3*%
%TO.N,+5V*%
X63500000Y-39243000D03*
%TO.P,REF\u002A\u002A,4*%
%TO.N,GNDA*%
X63500000Y-41783000D03*
%TD*%
D17*
%TO.P,R5,1*%
%TO.N,GNDA*%
X71501000Y-40106939D03*
%TO.P,R5,2*%
%TO.N,ADC1_IN0_DET1*%
X71501000Y-41126939D03*
%TD*%
D18*
%TO.P,U1,1,CMIP*%
%TO.N,GNDA*%
X68968000Y-36261939D03*
%TO.P,U1,2,CMIP*%
X68968000Y-36911939D03*
%TO.P,U1,3,VPSI*%
%TO.N,Net-(C3-Pad2)*%
X68968000Y-37561939D03*
%TO.P,U1,4,VPSI*%
X68968000Y-38211939D03*
D19*
%TO.P,U1,5,CLPF*%
%TO.N,Net-(U1-CLPF)*%
X69693000Y-38936939D03*
%TO.P,U1,6,VOUT*%
%TO.N,Net-(U1-VOUT)*%
X70343000Y-38936939D03*
%TO.P,U1,7,VSET*%
X70993000Y-38936939D03*
%TO.P,U1,8,CMOP*%
%TO.N,GNDA*%
X71643000Y-38936939D03*
D18*
%TO.P,U1,9,VPSO*%
%TO.N,Net-(U1-VPSO)*%
X72368000Y-38211939D03*
%TO.P,U1,10,TADJ*%
%TO.N,T_ADJ_1*%
X72368000Y-37561939D03*
%TO.P,U1,11,CMIP*%
%TO.N,GNDA*%
X72368000Y-36911939D03*
%TO.P,U1,12,CMIP*%
X72368000Y-36261939D03*
D19*
%TO.P,U1,13,TEMP*%
%TO.N,ADC3_IN3_TEMP*%
X71643000Y-35536939D03*
%TO.P,U1,14,INHI*%
%TO.N,Net-(U1-INHI)*%
X70993000Y-35536939D03*
%TO.P,U1,15,INLO*%
%TO.N,Net-(U1-INLO)*%
X70343000Y-35536939D03*
%TO.P,U1,16,ENABLE*%
%TO.N,Net-(U1-ENABLE)*%
X69693000Y-35536939D03*
%TD*%
D20*
%TO.P,C7,1*%
%TO.N,GNDA*%
X74549000Y-40715939D03*
%TO.P,C7,2*%
%TO.N,Net-(U1-VPSO)*%
X74549000Y-39755939D03*
%TD*%
%TO.P,C6,1*%
%TO.N,GNDA*%
X73533000Y-40715939D03*
%TO.P,C6,2*%
%TO.N,Net-(U1-VPSO)*%
X73533000Y-39755939D03*
%TD*%
D12*
%TO.P,REF\u002A\u002A,1*%
%TO.N,ADC3_IN3_TEMP*%
X78486000Y-34163000D03*
D13*
%TO.P,REF\u002A\u002A,2*%
%TO.N,T_ADJ_1*%
X78486000Y-36703000D03*
%TO.P,REF\u002A\u002A,3*%
%TO.N,+5V*%
X78486000Y-39243000D03*
%TO.P,REF\u002A\u002A,4*%
X78486000Y-41783000D03*
%TD*%
D21*
%TO.P,L2,1,1*%
%TO.N,+5V*%
X75336500Y-38457939D03*
%TO.P,L2,2,2*%
%TO.N,Net-(U1-VPSO)*%
X73761500Y-38457939D03*
%TD*%
D10*
%TO.P,R2,1*%
%TO.N,Net-(U1-ENABLE)*%
X67820000Y-35663939D03*
%TO.P,R2,2*%
%TO.N,Net-(C3-Pad2)*%
X66800000Y-35663939D03*
%TD*%
D16*
%TO.P,C4,1*%
%TO.N,GNDA*%
X67818000Y-36707939D03*
%TO.P,C4,2*%
%TO.N,Net-(C3-Pad2)*%
X67818000Y-37667939D03*
%TD*%
D14*
%TO.P,C1,1*%
%TO.N,Net-(J1-In)*%
X70993000Y-32602939D03*
%TO.P,C1,2*%
%TO.N,Net-(U1-INHI)*%
X70993000Y-34152939D03*
%TD*%
D17*
%TO.P,R4,1*%
%TO.N,Net-(U1-VOUT)*%
X70358000Y-40106939D03*
%TO.P,R4,2*%
%TO.N,ADC1_IN0_DET1*%
X70358000Y-41126939D03*
%TD*%
D22*
%TO.P,L1,1,1*%
%TO.N,+5V*%
X66014500Y-38965939D03*
%TO.P,L1,2,2*%
%TO.N,Net-(C3-Pad2)*%
X67589500Y-38965939D03*
%TD*%
D23*
%TO.N,GNDA*%
X69215000Y-29083000D03*
X66167000Y-41783000D03*
X63119000Y-31115000D03*
X76835000Y-31115000D03*
X73279000Y-30607000D03*
X64643000Y-27559000D03*
X74295000Y-32639000D03*
X79121000Y-30099000D03*
X68199000Y-28067000D03*
X78486000Y-31623000D03*
X65659000Y-27559000D03*
X64643000Y-26543000D03*
X73787000Y-28067000D03*
X64135000Y-30099000D03*
X73787000Y-29083000D03*
X64643000Y-42164000D03*
X78486000Y-29591000D03*
X72136000Y-39497000D03*
X65659000Y-26543000D03*
X65659000Y-42164000D03*
X68707000Y-31623000D03*
X64643000Y-29591000D03*
X76835000Y-29083000D03*
X79121000Y-27051000D03*
X76835000Y-28067000D03*
X72771000Y-31115000D03*
X78486000Y-27559000D03*
X63119000Y-27051000D03*
X64135000Y-40767000D03*
X65659000Y-40259000D03*
X63627000Y-26543000D03*
X77343000Y-31623000D03*
X77851000Y-28067000D03*
X78486000Y-30607000D03*
X77851000Y-29083000D03*
X64643000Y-31623000D03*
X65151000Y-40767000D03*
X76835000Y-30099000D03*
X68199000Y-31242000D03*
X63627000Y-32639000D03*
X63754000Y-43180000D03*
X76835000Y-32131000D03*
X73787000Y-33147000D03*
X67691000Y-29591000D03*
X66675000Y-31623000D03*
X73279000Y-31623000D03*
X65151000Y-31115000D03*
X63627000Y-27559000D03*
X74295000Y-26543000D03*
X68453000Y-36703000D03*
X67691000Y-32639000D03*
X75311000Y-32639000D03*
X79121000Y-32131000D03*
X65659000Y-29591000D03*
X77343000Y-29591000D03*
X67691000Y-31623000D03*
X68707000Y-29591000D03*
X63119000Y-29083000D03*
X75311000Y-41529000D03*
X76327000Y-27559000D03*
X72771000Y-30099000D03*
X66167000Y-40767000D03*
X67691000Y-26543000D03*
X74295000Y-30607000D03*
X65659000Y-30607000D03*
X79121000Y-31115000D03*
X65659000Y-41275000D03*
X68707000Y-27559000D03*
X65151000Y-28067000D03*
X65151000Y-42672000D03*
X64643000Y-32639000D03*
X72771000Y-28067000D03*
X66675000Y-41275000D03*
X74295000Y-27559000D03*
X64643000Y-41275000D03*
X74295000Y-31623000D03*
X65151000Y-30099000D03*
X64135000Y-29083000D03*
X63627000Y-31623000D03*
X64643000Y-28575000D03*
X65151000Y-41656000D03*
X65151000Y-29083000D03*
X72771000Y-29083000D03*
X68199000Y-32131000D03*
X73787000Y-27051000D03*
X78486000Y-32639000D03*
X69215000Y-30099000D03*
X74295000Y-28575000D03*
X64135000Y-32131000D03*
X74803000Y-33147000D03*
X76327000Y-30607000D03*
X77851000Y-31115000D03*
X76327000Y-32639000D03*
X74295000Y-29591000D03*
X75311000Y-31623000D03*
X77343000Y-30607000D03*
X65151000Y-32131000D03*
X69215000Y-28067000D03*
X72771000Y-27051000D03*
X65659000Y-28575000D03*
X79121000Y-28067000D03*
X77851000Y-32131000D03*
X76835000Y-27051000D03*
X79121000Y-29083000D03*
X68199000Y-30099000D03*
X68707000Y-26543000D03*
X63119000Y-28067000D03*
X72771000Y-33274000D03*
X78486000Y-28575000D03*
X64643000Y-40259000D03*
X72771000Y-32131000D03*
X74803000Y-32131000D03*
X77851000Y-30099000D03*
X75819000Y-33147000D03*
X73279000Y-27559000D03*
X73787000Y-32131000D03*
X64135000Y-28067000D03*
X68707000Y-28575000D03*
X63119000Y-30099000D03*
X73279000Y-26543000D03*
X77851000Y-27051000D03*
X76327000Y-28575000D03*
X68707000Y-32639000D03*
X65659000Y-31623000D03*
X77343000Y-27559000D03*
X64135000Y-31115000D03*
X63627000Y-28575000D03*
X65659000Y-43180000D03*
X65151000Y-27051000D03*
X73279000Y-32639000D03*
X68199000Y-29083000D03*
X63119000Y-32131000D03*
X73787000Y-30099000D03*
X73279000Y-29591000D03*
X76327000Y-29591000D03*
X68199000Y-27051000D03*
X63627000Y-30607000D03*
X76327000Y-31623000D03*
X73787000Y-31115000D03*
X62865000Y-43180000D03*
X76327000Y-26543000D03*
X73279000Y-28575000D03*
X67691000Y-27559000D03*
X64643000Y-43180000D03*
X64135000Y-27051000D03*
X77343000Y-32639000D03*
X64643000Y-30607000D03*
X69215000Y-27051000D03*
X67691000Y-28575000D03*
X75819000Y-32131000D03*
X77343000Y-28575000D03*
X77343000Y-26543000D03*
X67437000Y-41275000D03*
X78486000Y-26543000D03*
X63627000Y-29591000D03*
%TD*%
D24*
%TO.N,Net-(U1-INHI)*%
X70993000Y-34152939D02*
X70993000Y-35536939D01*
%TO.N,Net-(J1-In)*%
X70993000Y-28730500D02*
X70993000Y-32602939D01*
D25*
%TO.N,GNDA*%
X75243000Y-28730500D02*
X75243000Y-30548000D01*
X66743000Y-28897000D02*
X66929000Y-29083000D01*
X74803000Y-28575000D02*
X74295000Y-28575000D01*
X75565000Y-28575000D02*
X76327000Y-28575000D01*
X66743000Y-30548000D02*
X67310000Y-31115000D01*
X75243000Y-28262000D02*
X75438000Y-28067000D01*
X75243000Y-30548000D02*
X74803000Y-30988000D01*
X66743000Y-27754000D02*
X66548000Y-27559000D01*
X66167000Y-30480000D02*
X66167000Y-31623000D01*
X66743000Y-28730500D02*
X66743000Y-29904000D01*
X74930000Y-27559000D02*
X74295000Y-27559000D01*
X75565000Y-29591000D02*
X76327000Y-29591000D01*
X75243000Y-28730500D02*
X75243000Y-27754000D01*
X66421000Y-26543000D02*
X65659000Y-26543000D01*
X75243000Y-29913000D02*
X75057000Y-30099000D01*
X75243000Y-27872000D02*
X74930000Y-27559000D01*
X66421000Y-28575000D02*
X65659000Y-28575000D01*
D26*
X66743000Y-32534939D02*
X66675000Y-32602939D01*
D25*
X75243000Y-28730500D02*
X75243000Y-27364000D01*
X66548000Y-28925500D02*
X66548000Y-29591000D01*
X66743000Y-28730500D02*
X66743000Y-28389000D01*
X66548000Y-30099000D02*
X65659000Y-30099000D01*
X66743000Y-30294000D02*
X67056000Y-30607000D01*
X66390500Y-29083000D02*
X66743000Y-28730500D01*
X75243000Y-26865000D02*
X75565000Y-26543000D01*
X75057000Y-30099000D02*
X74295000Y-30099000D01*
X74930000Y-27051000D02*
X74295000Y-27051000D01*
X75243000Y-27246000D02*
X75438000Y-27051000D01*
X74930000Y-31115000D02*
X74295000Y-31115000D01*
X66421000Y-27051000D02*
X65659000Y-27051000D01*
X66743000Y-29904000D02*
X66167000Y-30480000D01*
X75692000Y-29210000D02*
X75819000Y-29083000D01*
X75409500Y-28730500D02*
X75565000Y-28575000D01*
X75565000Y-31115000D02*
X76327000Y-31115000D01*
X75438000Y-27051000D02*
X76327000Y-27051000D01*
X66929000Y-30099000D02*
X67691000Y-30099000D01*
X75438000Y-28067000D02*
X76327000Y-28067000D01*
X75243000Y-28730500D02*
X75243000Y-29523000D01*
X75243000Y-27364000D02*
X74930000Y-27051000D01*
X66743000Y-28730500D02*
X66743000Y-28126000D01*
X66743000Y-28730500D02*
X66743000Y-26729000D01*
X75243000Y-30793000D02*
X75565000Y-31115000D01*
X75243000Y-28730500D02*
X75243000Y-28262000D01*
X66743000Y-28730500D02*
X66743000Y-27745000D01*
X75243000Y-28730500D02*
X74958500Y-28730500D01*
X75243000Y-28730500D02*
X75243000Y-27246000D01*
X75243000Y-28730500D02*
X75243000Y-29278000D01*
X75243000Y-28730500D02*
X75243000Y-30539000D01*
X66743000Y-27745000D02*
X66929000Y-27559000D01*
X66743000Y-28730500D02*
X66576500Y-28730500D01*
X75243000Y-28761000D02*
X75692000Y-29210000D01*
X66548000Y-29591000D02*
X65659000Y-29591000D01*
X66743000Y-28730500D02*
X66743000Y-26865000D01*
X66743000Y-29913000D02*
X66929000Y-30099000D01*
X66743000Y-28730500D02*
X66743000Y-30167000D01*
X66384939Y-32893000D02*
X66675000Y-32602939D01*
X66929000Y-27051000D02*
X67691000Y-27051000D01*
X75243000Y-30539000D02*
X75311000Y-30607000D01*
X66743000Y-30285000D02*
X66421000Y-30607000D01*
X74930000Y-29591000D02*
X74295000Y-29591000D01*
X75565000Y-26543000D02*
X76327000Y-26543000D01*
X66743000Y-26865000D02*
X66421000Y-26543000D01*
X66743000Y-28730500D02*
X66743000Y-30285000D01*
X66743000Y-30675000D02*
X66929000Y-30861000D01*
X66743000Y-29151000D02*
X67183000Y-29591000D01*
X75819000Y-31115000D02*
X75819000Y-31623000D01*
X75819000Y-29083000D02*
X76327000Y-29083000D01*
X75243000Y-28730500D02*
X75243000Y-26865000D01*
X66743000Y-28730500D02*
X66743000Y-29151000D01*
X66802000Y-28067000D02*
X67691000Y-28067000D01*
X66743000Y-28730500D02*
X66743000Y-30294000D01*
X75438000Y-30099000D02*
X76327000Y-30099000D01*
X75243000Y-28730500D02*
X75243000Y-29913000D01*
X66167000Y-31115000D02*
X65659000Y-31115000D01*
X66743000Y-28126000D02*
X66802000Y-28067000D01*
X74803000Y-30607000D02*
X74295000Y-30607000D01*
X67056000Y-30607000D02*
X67691000Y-30607000D01*
X75243000Y-28507000D02*
X74803000Y-28067000D01*
X74958500Y-28730500D02*
X74803000Y-28575000D01*
X66929000Y-29083000D02*
X67691000Y-29083000D01*
X75243000Y-28730500D02*
X75243000Y-30167000D01*
X67310000Y-31115000D02*
X67691000Y-31115000D01*
X75243000Y-28730500D02*
X75243000Y-30793000D01*
X66743000Y-26729000D02*
X66929000Y-26543000D01*
X67183000Y-30607000D02*
X67183000Y-31623000D01*
X74803000Y-28067000D02*
X74295000Y-28067000D01*
X75243000Y-30539000D02*
X75819000Y-31115000D01*
X75438000Y-27559000D02*
X76327000Y-27559000D01*
X66743000Y-28730500D02*
X66743000Y-27754000D01*
X75243000Y-28730500D02*
X75243000Y-30802000D01*
X66743000Y-28389000D02*
X66421000Y-28067000D01*
X66421000Y-30607000D02*
X65659000Y-30607000D01*
X66743000Y-27373000D02*
X66421000Y-27051000D01*
X75243000Y-27754000D02*
X75438000Y-27559000D01*
X64135000Y-33528000D02*
X63373000Y-33528000D01*
X66743000Y-28730500D02*
X66743000Y-30539000D01*
X66743000Y-29904000D02*
X66548000Y-30099000D01*
X74803000Y-29083000D02*
X74295000Y-29083000D01*
X75243000Y-28730500D02*
X75243000Y-28761000D01*
X75243000Y-28730500D02*
X75243000Y-27872000D01*
X65659000Y-29083000D02*
X66390500Y-29083000D01*
D27*
X67183000Y-42775939D02*
X66830000Y-42422939D01*
D25*
X75243000Y-29278000D02*
X74930000Y-29591000D01*
X66929000Y-27559000D02*
X67691000Y-27559000D01*
X66743000Y-30539000D02*
X66167000Y-31115000D01*
X66743000Y-27237000D02*
X66929000Y-27051000D01*
X66743000Y-28730500D02*
X66743000Y-30675000D01*
X75184000Y-26543000D02*
X74295000Y-26543000D01*
X74803000Y-30988000D02*
X74803000Y-31623000D01*
X75311000Y-30607000D02*
X76327000Y-30607000D01*
X66929000Y-26543000D02*
X67691000Y-26543000D01*
X66576500Y-28730500D02*
X66421000Y-28575000D01*
X66743000Y-28730500D02*
X66743000Y-29015000D01*
X66743000Y-28730500D02*
X66743000Y-27373000D01*
X75243000Y-29904000D02*
X75438000Y-30099000D01*
X66743000Y-28730500D02*
X66743000Y-29913000D01*
X75243000Y-28730500D02*
X75243000Y-26602000D01*
X66421000Y-28067000D02*
X65659000Y-28067000D01*
X75243000Y-30802000D02*
X74930000Y-31115000D01*
X66743000Y-30167000D02*
X67183000Y-30607000D01*
X75155500Y-28730500D02*
X74803000Y-29083000D01*
X66743000Y-29015000D02*
X66548000Y-29210000D01*
X75243000Y-28730500D02*
X75409500Y-28730500D01*
X75243000Y-29523000D02*
X75438000Y-29718000D01*
X75438000Y-29718000D02*
X75565000Y-29591000D01*
X66743000Y-28730500D02*
X66743000Y-27237000D01*
X66548000Y-27559000D02*
X65659000Y-27559000D01*
X66743000Y-28730500D02*
X66548000Y-28925500D01*
X66743000Y-28730500D02*
X66743000Y-28897000D01*
X75243000Y-26602000D02*
X75184000Y-26543000D01*
X75243000Y-28730500D02*
X75243000Y-29904000D01*
X75243000Y-28730500D02*
X75243000Y-28507000D01*
X75243000Y-30167000D02*
X74803000Y-30607000D01*
X75243000Y-28730500D02*
X75155500Y-28730500D01*
X67183000Y-29591000D02*
X67691000Y-29591000D01*
X63373000Y-33528000D02*
X62938000Y-33963000D01*
X66743000Y-28730500D02*
X66743000Y-30548000D01*
D24*
%TO.N,Net-(U1-INLO)*%
X70343000Y-35261940D02*
X70343000Y-35536939D01*
X66675000Y-34152939D02*
X69233999Y-34152939D01*
X69233999Y-34152939D02*
X70343000Y-35261940D01*
D27*
%TO.N,Net-(C3-Pad2)*%
X65532000Y-37314939D02*
X65885000Y-37667939D01*
X65936061Y-35663939D02*
X65532000Y-36068000D01*
X65885000Y-37667939D02*
X66802000Y-37667939D01*
X65532000Y-36068000D02*
X65532000Y-36703000D01*
X65532000Y-36703000D02*
X65532000Y-37314939D01*
X65532000Y-36703000D02*
X63500000Y-36703000D01*
X66800000Y-35663939D02*
X65936061Y-35663939D01*
%TO.N,Net-(U1-CLPF)*%
X67790000Y-40235939D02*
X68707000Y-40235939D01*
X68707000Y-40235939D02*
X69693000Y-39249939D01*
X69693000Y-39249939D02*
X69693000Y-38936939D01*
%TO.N,Net-(U1-ENABLE)*%
X69568000Y-35661939D02*
X69693000Y-35536939D01*
X67820000Y-35663939D02*
X67822000Y-35661939D01*
X67822000Y-35661939D02*
X69568000Y-35661939D01*
D24*
%TO.N,Net-(U1-VOUT)*%
X70993000Y-38936939D02*
X70343000Y-38936939D01*
X70343000Y-40091939D02*
X70358000Y-40106939D01*
X70343000Y-38936939D02*
X70343000Y-40091939D01*
D27*
%TO.N,T_ADJ_1*%
X72368000Y-37561939D02*
X72801061Y-37561939D01*
X72801061Y-37561939D02*
X73025000Y-37338000D01*
X73025000Y-37338000D02*
X77089000Y-37338000D01*
X77089000Y-37338000D02*
X77724000Y-36703000D01*
%TO.N,ADC3_IN3_TEMP*%
X71643000Y-35536939D02*
X71905061Y-35536939D01*
X71905061Y-35536939D02*
X73279000Y-34163000D01*
X73279000Y-34163000D02*
X77724000Y-34163000D01*
%TD*%
%TA.AperFunction,Conductor*%
%TO.N,GNDA*%
G36*
X65536039Y-26282185D02*
G01*
X65581794Y-26334989D01*
X65593000Y-26386500D01*
X65593000Y-28430500D01*
X66919000Y-28430500D01*
X66986039Y-28450185D01*
X67031794Y-28502989D01*
X67043000Y-28554500D01*
X67043000Y-31633577D01*
X67023315Y-31700616D01*
X67006681Y-31721258D01*
X66975000Y-31752939D01*
X66975000Y-32778939D01*
X66955315Y-32845978D01*
X66902511Y-32891733D01*
X66851000Y-32902939D01*
X65800936Y-32902939D01*
X65802789Y-32926491D01*
X65803574Y-32930789D01*
X65796254Y-33000275D01*
X65784766Y-33021850D01*
X65024000Y-34162999D01*
X65024000Y-34746637D01*
X65004315Y-34813676D01*
X64987681Y-34834318D01*
X64961681Y-34860318D01*
X64900358Y-34893803D01*
X64830666Y-34888819D01*
X64774733Y-34846947D01*
X64750316Y-34781483D01*
X64750000Y-34772637D01*
X64750000Y-34463000D01*
X63904144Y-34463000D01*
X63965925Y-34355993D01*
X64000000Y-34228826D01*
X64000000Y-34097174D01*
X63965925Y-33970007D01*
X63904144Y-33863000D01*
X64749999Y-33863000D01*
X64749999Y-33281520D01*
X64735164Y-33187850D01*
X64735162Y-33187844D01*
X64677643Y-33074958D01*
X64677636Y-33074949D01*
X64588050Y-32985363D01*
X64588046Y-32985360D01*
X64475144Y-32927833D01*
X64381486Y-32913000D01*
X63800000Y-32913000D01*
X63800000Y-33758855D01*
X63692993Y-33697075D01*
X63565826Y-33663000D01*
X63434174Y-33663000D01*
X63307007Y-33697075D01*
X63200000Y-33758855D01*
X63200000Y-32913000D01*
X62618519Y-32913000D01*
X62600895Y-32915792D01*
X62531602Y-32906835D01*
X62478151Y-32861838D01*
X62457513Y-32795086D01*
X62457500Y-32793318D01*
X62457500Y-29030500D01*
X65593001Y-29030500D01*
X65593001Y-31301979D01*
X65607835Y-31395649D01*
X65607837Y-31395655D01*
X65665356Y-31508541D01*
X65665363Y-31508550D01*
X65754949Y-31598136D01*
X65754953Y-31598139D01*
X65867855Y-31655666D01*
X65966332Y-31671263D01*
X65966078Y-31672864D01*
X66024735Y-31695208D01*
X66066216Y-31751432D01*
X66070716Y-31821156D01*
X66037418Y-31881637D01*
X65927229Y-31991826D01*
X65927226Y-31991830D01*
X65846844Y-32127750D01*
X65846843Y-32127753D01*
X65802789Y-32279386D01*
X65802788Y-32279393D01*
X65800936Y-32302939D01*
X66375000Y-32302939D01*
X66375000Y-31789861D01*
X66394685Y-31722822D01*
X66411319Y-31702180D01*
X66443000Y-31670499D01*
X66443000Y-29030500D01*
X65593001Y-29030500D01*
X62457500Y-29030500D01*
X62457500Y-26386500D01*
X62477185Y-26319461D01*
X62529989Y-26273706D01*
X62581500Y-26262500D01*
X65469000Y-26262500D01*
X65536039Y-26282185D01*
G37*
%TD.AperFunction*%
%TD*%
%TA.AperFunction,Conductor*%
%TO.N,Net-(C3-Pad2)*%
G36*
X69103677Y-37461624D02*
G01*
X69124319Y-37478258D01*
X69178681Y-37532620D01*
X69212166Y-37593943D01*
X69215000Y-37620301D01*
X69215000Y-38279577D01*
X69195315Y-38346616D01*
X69178681Y-38367258D01*
X69124319Y-38421620D01*
X69062996Y-38455105D01*
X69036638Y-38457939D01*
X68198999Y-38457939D01*
X68072000Y-38584938D01*
X68072000Y-39295577D01*
X68052315Y-39362616D01*
X68035681Y-39383258D01*
X67981319Y-39437620D01*
X67919996Y-39471105D01*
X67893638Y-39473939D01*
X67361362Y-39473939D01*
X67294323Y-39454254D01*
X67273681Y-39437620D01*
X67219319Y-39383258D01*
X67185834Y-39321935D01*
X67183000Y-39295577D01*
X67183000Y-38076939D01*
X67056000Y-37949939D01*
X66726362Y-37949939D01*
X66659323Y-37930254D01*
X66638681Y-37913620D01*
X66584319Y-37859258D01*
X66550834Y-37797935D01*
X66548000Y-37771577D01*
X66548000Y-37620301D01*
X66567685Y-37553262D01*
X66584319Y-37532620D01*
X66638681Y-37478258D01*
X66700004Y-37444773D01*
X66726362Y-37441939D01*
X69036638Y-37441939D01*
X69103677Y-37461624D01*
G37*
%TD.AperFunction*%
%TD*%
%TA.AperFunction,Conductor*%
%TO.N,ADC1_IN0_DET1*%
G36*
X71449951Y-40894205D02*
G01*
X71466627Y-40896400D01*
X71557494Y-40908363D01*
X71563532Y-40909981D01*
X71662276Y-40950882D01*
X71667701Y-40954014D01*
X71752492Y-41019076D01*
X71756923Y-41023507D01*
X71821985Y-41108298D01*
X71825117Y-41113723D01*
X71866016Y-41212462D01*
X71867637Y-41218509D01*
X71881795Y-41326047D01*
X71882000Y-41329180D01*
X71882000Y-41656000D01*
X72009000Y-41783000D01*
X72475399Y-41783000D01*
X72479243Y-41783310D01*
X72631604Y-41808034D01*
X72638891Y-41810462D01*
X72775626Y-41882106D01*
X72778878Y-41884159D01*
X72864690Y-41948518D01*
X72950514Y-42012886D01*
X72953296Y-42015329D01*
X73056854Y-42121543D01*
X73061134Y-42127561D01*
X73126631Y-42258555D01*
X73128879Y-42265593D01*
X73151714Y-42412163D01*
X73152000Y-42415858D01*
X73152000Y-43313424D01*
X73151795Y-43316557D01*
X73135375Y-43441280D01*
X73133753Y-43447332D01*
X73086221Y-43562082D01*
X73083088Y-43567507D01*
X73007476Y-43666046D01*
X73003046Y-43670476D01*
X72952138Y-43709540D01*
X72937528Y-43714500D01*
X69048472Y-43714500D01*
X69033862Y-43709540D01*
X68982953Y-43670476D01*
X68978523Y-43666046D01*
X68902911Y-43567507D01*
X68899778Y-43562082D01*
X68852243Y-43447322D01*
X68850625Y-43441284D01*
X68834205Y-43316556D01*
X68834000Y-43313424D01*
X68834000Y-42415858D01*
X68834286Y-42412164D01*
X68834286Y-42412163D01*
X68857120Y-42265590D01*
X68859367Y-42258557D01*
X68924868Y-42127556D01*
X68929141Y-42121546D01*
X69032709Y-42015323D01*
X69035485Y-42012886D01*
X69207126Y-41884155D01*
X69210367Y-41882109D01*
X69347109Y-41810462D01*
X69354393Y-41808034D01*
X69506757Y-41783310D01*
X69510601Y-41783000D01*
X69760193Y-41783000D01*
X69760197Y-41783000D01*
X69850000Y-41783000D01*
X69977000Y-41656000D01*
X69977000Y-41329180D01*
X69977205Y-41326048D01*
X69977401Y-41324557D01*
X69991363Y-41218503D01*
X69992980Y-41212468D01*
X70033883Y-41113719D01*
X70037014Y-41108298D01*
X70102076Y-41023507D01*
X70106507Y-41019076D01*
X70191298Y-40954014D01*
X70196719Y-40950883D01*
X70295468Y-40909980D01*
X70301503Y-40908363D01*
X70394435Y-40896128D01*
X70409049Y-40894205D01*
X70412181Y-40894000D01*
X71446819Y-40894000D01*
X71449951Y-40894205D01*
G37*
%TD.AperFunction*%
%TD*%
%TA.AperFunction,Conductor*%
%TO.N,GNDA*%
G36*
X68707000Y-37060939D02*
G01*
X68580000Y-36933939D01*
X66726362Y-36933939D01*
X66659323Y-36914254D01*
X66638681Y-36897620D01*
X66584319Y-36843258D01*
X66550834Y-36781935D01*
X66548000Y-36755577D01*
X66548000Y-36604301D01*
X66567685Y-36537262D01*
X66584319Y-36516620D01*
X66638681Y-36462258D01*
X66700004Y-36428773D01*
X66726362Y-36425939D01*
X68580000Y-36425939D01*
X68707000Y-36298939D01*
X68707000Y-37060939D01*
G37*
%TD.AperFunction*%
%TD*%
%TA.AperFunction,Conductor*%
%TO.N,+5V*%
G36*
X79521471Y-37980029D02*
G01*
X79528500Y-37997000D01*
X79528500Y-43690500D01*
X79521471Y-43707471D01*
X79504500Y-43714500D01*
X77140895Y-43714500D01*
X77123924Y-43707471D01*
X77122673Y-43706119D01*
X77109285Y-43690500D01*
X76459778Y-42932741D01*
X76454000Y-42917122D01*
X76454000Y-40894000D01*
X75826029Y-40266029D01*
X75819000Y-40249058D01*
X75819000Y-39243001D01*
X75819000Y-39243000D01*
X75565000Y-38989000D01*
X75564999Y-38989000D01*
X75066942Y-38989000D01*
X75049971Y-38981971D01*
X74937029Y-38869029D01*
X74930000Y-38852058D01*
X74930000Y-38109942D01*
X74937029Y-38092971D01*
X75049971Y-37980029D01*
X75066942Y-37973000D01*
X79504500Y-37973000D01*
X79521471Y-37980029D01*
G37*
%TD.AperFunction*%
%TD*%
%TA.AperFunction,Conductor*%
%TO.N,GNDA*%
G36*
X72532677Y-36064624D02*
G01*
X72553319Y-36081258D01*
X72607681Y-36135620D01*
X72641166Y-36196943D01*
X72644000Y-36223301D01*
X72644000Y-36882577D01*
X72624315Y-36949616D01*
X72607681Y-36970258D01*
X72553319Y-37024620D01*
X72491996Y-37058105D01*
X72465638Y-37060939D01*
X72008999Y-37060939D01*
X71882000Y-37187938D01*
X71882000Y-37187939D01*
X71882000Y-38584939D01*
X72009000Y-38711939D01*
X72338638Y-38711939D01*
X72405677Y-38731624D01*
X72426319Y-38748258D01*
X72480681Y-38802620D01*
X72514166Y-38863943D01*
X72517000Y-38890301D01*
X72517000Y-40235939D01*
X72644000Y-40362939D01*
X72898000Y-40362939D01*
X73025000Y-40362939D01*
X73152000Y-40362939D01*
X74755508Y-40362939D01*
X74788777Y-40372707D01*
X73693575Y-41124939D01*
X72314362Y-41124939D01*
X72247323Y-41105254D01*
X72226681Y-41088620D01*
X72172319Y-41034258D01*
X72138834Y-40972935D01*
X72136000Y-40946577D01*
X72136000Y-40489939D01*
X72009000Y-40362939D01*
X71425362Y-40362939D01*
X71358323Y-40343254D01*
X71337681Y-40326620D01*
X71283319Y-40272258D01*
X71249834Y-40210935D01*
X71247000Y-40184577D01*
X71247000Y-39906301D01*
X71266685Y-39839262D01*
X71283319Y-39818620D01*
X71374000Y-39727939D01*
X71374000Y-39245648D01*
X71384567Y-39195559D01*
X71385035Y-39194500D01*
X71390585Y-39181930D01*
X71393500Y-39156804D01*
X71393499Y-38717075D01*
X71393497Y-38717056D01*
X71390586Y-38691953D01*
X71390585Y-38691949D01*
X71384564Y-38678312D01*
X71374000Y-38628229D01*
X71374000Y-38330939D01*
X71247000Y-38203939D01*
X69901362Y-38203939D01*
X69834323Y-38184254D01*
X69813681Y-38167620D01*
X69759319Y-38113258D01*
X69725834Y-38051935D01*
X69723000Y-38025577D01*
X69723000Y-37314939D01*
X69596000Y-37187939D01*
X69292563Y-37187939D01*
X69242476Y-37177373D01*
X69212992Y-37164354D01*
X69187868Y-37161439D01*
X68858862Y-37161439D01*
X68791823Y-37141754D01*
X68771181Y-37125120D01*
X68707000Y-37060939D01*
X68707000Y-36223301D01*
X68726685Y-36156262D01*
X68743319Y-36135620D01*
X68780181Y-36098758D01*
X68841504Y-36065273D01*
X68867862Y-36062439D01*
X69620725Y-36062439D01*
X69620727Y-36062439D01*
X69657133Y-36052684D01*
X69670272Y-36049164D01*
X69702364Y-36044939D01*
X72465638Y-36044939D01*
X72532677Y-36064624D01*
G37*
%TD.AperFunction*%
%TD*%
%TA.AperFunction,Conductor*%
%TO.N,Net-(U1-VPSO)*%
G36*
X74183677Y-37969624D02*
G01*
X74204319Y-37986258D01*
X74258681Y-38040620D01*
X74292166Y-38101943D01*
X74295000Y-38128301D01*
X74295000Y-39219939D01*
X74422000Y-39346939D01*
X74624638Y-39346939D01*
X74691677Y-39366624D01*
X74712319Y-39383258D01*
X74766681Y-39437620D01*
X74800166Y-39498943D01*
X74803000Y-39525301D01*
X74803000Y-39803577D01*
X74783315Y-39870616D01*
X74766681Y-39891258D01*
X74712319Y-39945620D01*
X74650996Y-39979105D01*
X74624638Y-39981939D01*
X73457362Y-39981939D01*
X73390323Y-39962254D01*
X73369681Y-39945620D01*
X73315319Y-39891258D01*
X73281834Y-39829935D01*
X73279000Y-39803577D01*
X73279000Y-38584939D01*
X73278998Y-38584937D01*
X73025001Y-38457939D01*
X73025000Y-38457939D01*
X72314362Y-38457939D01*
X72247323Y-38438254D01*
X72226681Y-38421620D01*
X72172319Y-38367258D01*
X72138834Y-38305935D01*
X72136000Y-38279577D01*
X72136000Y-38128301D01*
X72155685Y-38061262D01*
X72172319Y-38040620D01*
X72214181Y-37998758D01*
X72275504Y-37965273D01*
X72301862Y-37962439D01*
X72853785Y-37962439D01*
X72853788Y-37962439D01*
X72864667Y-37959524D01*
X72884673Y-37954164D01*
X72916764Y-37949939D01*
X74116638Y-37949939D01*
X74183677Y-37969624D01*
G37*
%TD.AperFunction*%
%TD*%
%TA.AperFunction,Conductor*%
%TO.N,GNDA*%
G36*
X74352191Y-26281407D02*
G01*
X74388155Y-26330907D01*
X74393000Y-26361500D01*
X74393000Y-28480499D01*
X74393001Y-28480500D01*
X76092998Y-28480500D01*
X76092999Y-28480499D01*
X76092999Y-26361500D01*
X76111906Y-26303309D01*
X76161406Y-26267345D01*
X76191999Y-26262500D01*
X79429500Y-26262500D01*
X79487691Y-26281407D01*
X79523655Y-26330907D01*
X79528500Y-26361500D01*
X79528500Y-32822082D01*
X79509593Y-32880273D01*
X79460093Y-32916237D01*
X79414014Y-32919863D01*
X79367523Y-32912500D01*
X77604478Y-32912500D01*
X77604476Y-32912501D01*
X77510700Y-32927352D01*
X77510695Y-32927354D01*
X77397659Y-32984949D01*
X77307949Y-33074659D01*
X77250354Y-33187695D01*
X77235500Y-33281478D01*
X77235500Y-33463500D01*
X77216593Y-33521691D01*
X77167093Y-33557655D01*
X77136500Y-33562500D01*
X73358057Y-33562500D01*
X73199943Y-33562500D01*
X73106469Y-33587545D01*
X73047210Y-33603424D01*
X72997095Y-33632359D01*
X72910284Y-33682479D01*
X72798479Y-33794283D01*
X72798480Y-33794284D01*
X72686004Y-33906760D01*
X72631487Y-33934537D01*
X72571055Y-33924966D01*
X72527790Y-33881701D01*
X72517000Y-33836756D01*
X72517000Y-31280349D01*
X74393001Y-31280349D01*
X74398801Y-31309516D01*
X74420903Y-31342594D01*
X74420907Y-31342598D01*
X74453981Y-31364698D01*
X74483149Y-31370499D01*
X74992998Y-31370499D01*
X74993000Y-31370498D01*
X75493000Y-31370498D01*
X75493001Y-31370499D01*
X76002850Y-31370499D01*
X76032016Y-31364698D01*
X76065094Y-31342596D01*
X76065098Y-31342592D01*
X76087198Y-31309518D01*
X76092999Y-31280351D01*
X76093000Y-31280348D01*
X76093000Y-28980501D01*
X76092999Y-28980500D01*
X75493001Y-28980500D01*
X75493000Y-28980501D01*
X75493000Y-31370498D01*
X74993000Y-31370498D01*
X74993000Y-28980501D01*
X74992999Y-28980500D01*
X74393002Y-28980500D01*
X74393001Y-28980501D01*
X74393001Y-31280349D01*
X72517000Y-31280349D01*
X72517000Y-26361500D01*
X72535907Y-26303309D01*
X72585407Y-26267345D01*
X72616000Y-26262500D01*
X74294000Y-26262500D01*
X74352191Y-26281407D01*
G37*
%TD.AperFunction*%
%TA.AperFunction,Conductor*%
G36*
X69428191Y-26281407D02*
G01*
X69464155Y-26330907D01*
X69469000Y-26361500D01*
X69469000Y-30373860D01*
X69450093Y-30432051D01*
X69400593Y-30468015D01*
X69340103Y-30468015D01*
X69336000Y-30470208D01*
X69336000Y-31251791D01*
X69346565Y-31257438D01*
X69372539Y-31250113D01*
X69429943Y-31271290D01*
X69463937Y-31322163D01*
X69467646Y-31350275D01*
X69448703Y-32865436D01*
X69429070Y-32923385D01*
X69379124Y-32958728D01*
X69349711Y-32963198D01*
X67349000Y-32963198D01*
X67290809Y-32944291D01*
X67254845Y-32894791D01*
X67250000Y-32864198D01*
X67250000Y-32852940D01*
X67249999Y-32852939D01*
X67093787Y-32852939D01*
X67100454Y-32352939D01*
X67249998Y-32352939D01*
X67249999Y-32352938D01*
X67249999Y-32339858D01*
X67249998Y-32339847D01*
X67243769Y-32292525D01*
X67243769Y-32292523D01*
X67195333Y-32188653D01*
X67114285Y-32107605D01*
X67103790Y-32102711D01*
X67113553Y-31370499D01*
X67502850Y-31370499D01*
X67532016Y-31364698D01*
X67565094Y-31342596D01*
X67565098Y-31342592D01*
X67587198Y-31309518D01*
X67592999Y-31280351D01*
X67593000Y-31280348D01*
X67593000Y-31111000D01*
X68724326Y-31111000D01*
X68729634Y-31137690D01*
X68729635Y-31137693D01*
X68781571Y-31215424D01*
X68781573Y-31215426D01*
X68835999Y-31251791D01*
X68836000Y-31251791D01*
X68836000Y-31111001D01*
X68835999Y-31111000D01*
X68724326Y-31111000D01*
X67593000Y-31111000D01*
X67593000Y-30610999D01*
X68724325Y-30610999D01*
X68724326Y-30611000D01*
X68835999Y-30611000D01*
X68836000Y-30610999D01*
X68836000Y-30470208D01*
X68781575Y-30506573D01*
X68781570Y-30506578D01*
X68729635Y-30584306D01*
X68729634Y-30584309D01*
X68724325Y-30610999D01*
X67593000Y-30610999D01*
X67593000Y-28980501D01*
X67592999Y-28980500D01*
X67145420Y-28980500D01*
X67152087Y-28480500D01*
X67592998Y-28480500D01*
X67592999Y-28480499D01*
X67592999Y-26361500D01*
X67611906Y-26303309D01*
X67661406Y-26267345D01*
X67691999Y-26262500D01*
X69370000Y-26262500D01*
X69428191Y-26281407D01*
G37*
%TD.AperFunction*%
%TD*%
%TA.AperFunction,Conductor*%
%TO.N,+5V*%
G36*
X64650029Y-38107029D02*
G01*
X65024000Y-38481000D01*
X66032733Y-38481000D01*
X66046046Y-38485031D01*
X66410313Y-38727875D01*
X66420534Y-38743137D01*
X66421000Y-38747844D01*
X66421000Y-39106058D01*
X66413971Y-39123029D01*
X66174029Y-39362971D01*
X66157058Y-39370000D01*
X64769999Y-39370000D01*
X64393478Y-39699455D01*
X64392057Y-39700606D01*
X64319951Y-39754586D01*
X64319945Y-39754591D01*
X64246860Y-39827675D01*
X64245694Y-39828766D01*
X63760786Y-40253062D01*
X63744982Y-40259000D01*
X62481500Y-40259000D01*
X62464529Y-40251971D01*
X62457500Y-40235000D01*
X62457500Y-38124000D01*
X62464529Y-38107029D01*
X62481500Y-38100000D01*
X64633058Y-38100000D01*
X64650029Y-38107029D01*
G37*
%TD.AperFunction*%
%TD*%
%TA.AperFunction,Conductor*%
%TO.N,GNDA*%
G36*
X75424608Y-40924724D02*
G01*
X75445994Y-40940153D01*
X75777834Y-41238045D01*
X75814572Y-41297477D01*
X75819000Y-41330319D01*
X75819000Y-41724810D01*
X75799315Y-41791849D01*
X75746511Y-41837604D01*
X75677353Y-41847548D01*
X75613797Y-41818523D01*
X75611232Y-41816134D01*
X75609554Y-41814726D01*
X75430387Y-41689272D01*
X75232159Y-41596837D01*
X75232150Y-41596833D01*
X75036039Y-41544286D01*
X74976378Y-41507921D01*
X74945849Y-41445074D01*
X74954144Y-41375699D01*
X74993208Y-41325706D01*
X75104428Y-41241366D01*
X75194120Y-41123089D01*
X75247810Y-40986941D01*
X75290716Y-40931797D01*
X75356624Y-40908604D01*
X75424608Y-40924724D01*
G37*
%TD.AperFunction*%
%TA.AperFunction,Conductor*%
G36*
X74772039Y-40456124D02*
G01*
X74817794Y-40508928D01*
X74829000Y-40560439D01*
X74829000Y-40871939D01*
X74809315Y-40938978D01*
X74756511Y-40984733D01*
X74705000Y-40995939D01*
X73881391Y-40995939D01*
X74695989Y-40436439D01*
X74705000Y-40436439D01*
X74772039Y-40456124D01*
G37*
%TD.AperFunction*%
%TD*%
%TA.AperFunction,Conductor*%
%TO.N,GNDA*%
G36*
X67103539Y-40052539D02*
G01*
X67109500Y-40079939D01*
X67109500Y-40448264D01*
X67109721Y-40451956D01*
X67109528Y-40451967D01*
X67110000Y-40459840D01*
X67110000Y-40931199D01*
X67204455Y-40893952D01*
X67274042Y-40887671D01*
X67335978Y-40920008D01*
X67337626Y-40921626D01*
X67730258Y-41314258D01*
X67763743Y-41375581D01*
X67758759Y-41445273D01*
X67716887Y-41501206D01*
X67651423Y-41525623D01*
X67642577Y-41525939D01*
X67483000Y-41525939D01*
X67483000Y-42371794D01*
X67375993Y-42310014D01*
X67248826Y-42275939D01*
X67117174Y-42275939D01*
X66990007Y-42310014D01*
X66883000Y-42371794D01*
X66883000Y-41525939D01*
X66301520Y-41525939D01*
X66207850Y-41540774D01*
X66207844Y-41540776D01*
X66094958Y-41598295D01*
X66094949Y-41598302D01*
X66005363Y-41687888D01*
X66005360Y-41687892D01*
X65947833Y-41800794D01*
X65933000Y-41894452D01*
X65933000Y-42475939D01*
X66778856Y-42475939D01*
X66717075Y-42582946D01*
X66683000Y-42710113D01*
X66683000Y-42841765D01*
X66717075Y-42968932D01*
X66778856Y-43075939D01*
X65933001Y-43075939D01*
X65933001Y-43590500D01*
X65913316Y-43657539D01*
X65860512Y-43703294D01*
X65809001Y-43714500D01*
X62581500Y-43714500D01*
X62514461Y-43694815D01*
X62468706Y-43642011D01*
X62457500Y-43590500D01*
X62457500Y-42807629D01*
X62477185Y-42740590D01*
X62529989Y-42694835D01*
X62599147Y-42684891D01*
X62662703Y-42713916D01*
X62669181Y-42719948D01*
X62693445Y-42744212D01*
X62872612Y-42869666D01*
X63070840Y-42962101D01*
X63070851Y-42962106D01*
X63199999Y-42996710D01*
X63200000Y-42996709D01*
X63200000Y-42187144D01*
X63307007Y-42248925D01*
X63434174Y-42283000D01*
X63565826Y-42283000D01*
X63692993Y-42248925D01*
X63800000Y-42187144D01*
X63800000Y-42996710D01*
X63929148Y-42962106D01*
X63929159Y-42962101D01*
X64127387Y-42869666D01*
X64306554Y-42744212D01*
X64461212Y-42589554D01*
X64586666Y-42410387D01*
X64679101Y-42212159D01*
X64679104Y-42212153D01*
X64713711Y-42083000D01*
X63904144Y-42083000D01*
X63965925Y-41975993D01*
X64000000Y-41848826D01*
X64000000Y-41717174D01*
X63965925Y-41590007D01*
X63904144Y-41483000D01*
X64713711Y-41483000D01*
X64713710Y-41482999D01*
X64679104Y-41353846D01*
X64679101Y-41353840D01*
X64586666Y-41155612D01*
X64586664Y-41155608D01*
X64461216Y-40976450D01*
X64461211Y-40976444D01*
X64306557Y-40821790D01*
X64306546Y-40821781D01*
X64145086Y-40708724D01*
X64101461Y-40654147D01*
X64094269Y-40584649D01*
X64125791Y-40522294D01*
X64128466Y-40519533D01*
X64132060Y-40515939D01*
X66158133Y-40515939D01*
X66160421Y-40534994D01*
X66160422Y-40534997D01*
X66214876Y-40673083D01*
X66214879Y-40673089D01*
X66304571Y-40791367D01*
X66422849Y-40881059D01*
X66422851Y-40881060D01*
X66549999Y-40931200D01*
X66550000Y-40931200D01*
X66550000Y-40515939D01*
X66158133Y-40515939D01*
X64132060Y-40515939D01*
X64606681Y-40041319D01*
X64668004Y-40007834D01*
X64694362Y-40005000D01*
X66107000Y-40005000D01*
X67056000Y-40005000D01*
X67103539Y-40052539D01*
G37*
%TD.AperFunction*%
%TD*%
M02*
