%TF.GenerationSoftware,KiCad,Pcbnew,8.0.0*%
%TF.CreationDate,2024-08-25T13:37:12+02:00*%
%TF.ProjectId,Detector_PTFE_FR4_4_warstwy,44657465-6374-46f7-925f-505446455f46,rev?*%
%TF.SameCoordinates,Original*%
%TF.FileFunction,Copper,L2,Inr*%
%TF.FilePolarity,Positive*%
%FSLAX46Y46*%
G04 Gerber Fmt 4.6, Leading zero omitted, Abs format (unit mm)*
G04 Created by KiCad (PCBNEW 8.0.0) date 2024-08-25 13:37:12*
%MOMM*%
%LPD*%
G01*
G04 APERTURE LIST*
%TA.AperFunction,CastellatedPad*%
%ADD10R,1.700000X1.700000*%
%TD*%
%TA.AperFunction,CastellatedPad*%
%ADD11O,1.700000X1.700000*%
%TD*%
%TA.AperFunction,ViaPad*%
%ADD12C,0.400000*%
%TD*%
G04 APERTURE END LIST*
D10*
%TO.N,GNDA*%
%TO.C,REF\u002A\u002A*%
X67183000Y-42775939D03*
D11*
%TO.N,ADC1_IN0_DET1*%
X69723000Y-42775939D03*
X72263000Y-42775939D03*
%TO.N,GNDA*%
X74803000Y-42775939D03*
%TD*%
D10*
%TO.N,GNDA*%
%TO.C,REF\u002A\u002A*%
X63500000Y-34163000D03*
D11*
%TO.N,Net-(C3-Pad2)*%
X63500000Y-36703000D03*
%TO.N,+5V*%
X63500000Y-39243000D03*
%TO.N,GNDA*%
X63500000Y-41783000D03*
%TD*%
D10*
%TO.N,ADC3_IN3_TEMP*%
%TO.C,REF\u002A\u002A*%
X78486000Y-34163000D03*
D11*
%TO.N,T_ADJ_1*%
X78486000Y-36703000D03*
%TO.N,+5V*%
X78486000Y-39243000D03*
X78486000Y-41783000D03*
%TD*%
D12*
%TO.N,GNDA*%
X69215000Y-29083000D03*
X66167000Y-41783000D03*
X63119000Y-31115000D03*
X76835000Y-31115000D03*
X73279000Y-30607000D03*
X64643000Y-27559000D03*
X74295000Y-32639000D03*
X79121000Y-30099000D03*
X68199000Y-28067000D03*
X78486000Y-31623000D03*
X65659000Y-27559000D03*
X64643000Y-26543000D03*
X73787000Y-28067000D03*
X64135000Y-30099000D03*
X73787000Y-29083000D03*
X64643000Y-42164000D03*
X78486000Y-29591000D03*
X72136000Y-39497000D03*
X65659000Y-26543000D03*
X65659000Y-42164000D03*
X68707000Y-31623000D03*
X64643000Y-29591000D03*
X76835000Y-29083000D03*
X79121000Y-27051000D03*
X76835000Y-28067000D03*
X72771000Y-31115000D03*
X78486000Y-27559000D03*
X63119000Y-27051000D03*
X64135000Y-40767000D03*
X65659000Y-40259000D03*
X63627000Y-26543000D03*
X77343000Y-31623000D03*
X77851000Y-28067000D03*
X78486000Y-30607000D03*
X77851000Y-29083000D03*
X64643000Y-31623000D03*
X65151000Y-40767000D03*
X76835000Y-30099000D03*
X68199000Y-31242000D03*
X63627000Y-32639000D03*
X63754000Y-43180000D03*
X76835000Y-32131000D03*
X73787000Y-33147000D03*
X67691000Y-29591000D03*
X66675000Y-31623000D03*
X73279000Y-31623000D03*
X65151000Y-31115000D03*
X63627000Y-27559000D03*
X74295000Y-26543000D03*
X68453000Y-36703000D03*
X67691000Y-32639000D03*
X75311000Y-32639000D03*
X79121000Y-32131000D03*
X65659000Y-29591000D03*
X77343000Y-29591000D03*
X67691000Y-31623000D03*
X68707000Y-29591000D03*
X63119000Y-29083000D03*
X75311000Y-41529000D03*
X76327000Y-27559000D03*
X72771000Y-30099000D03*
X66167000Y-40767000D03*
X67691000Y-26543000D03*
X74295000Y-30607000D03*
X65659000Y-30607000D03*
X79121000Y-31115000D03*
X65659000Y-41275000D03*
X68707000Y-27559000D03*
X65151000Y-28067000D03*
X65151000Y-42672000D03*
X64643000Y-32639000D03*
X72771000Y-28067000D03*
X66675000Y-41275000D03*
X74295000Y-27559000D03*
X64643000Y-41275000D03*
X74295000Y-31623000D03*
X65151000Y-30099000D03*
X64135000Y-29083000D03*
X63627000Y-31623000D03*
X64643000Y-28575000D03*
X65151000Y-41656000D03*
X65151000Y-29083000D03*
X72771000Y-29083000D03*
X68199000Y-32131000D03*
X73787000Y-27051000D03*
X78486000Y-32639000D03*
X69215000Y-30099000D03*
X74295000Y-28575000D03*
X64135000Y-32131000D03*
X74803000Y-33147000D03*
X76327000Y-30607000D03*
X77851000Y-31115000D03*
X76327000Y-32639000D03*
X74295000Y-29591000D03*
X75311000Y-31623000D03*
X77343000Y-30607000D03*
X65151000Y-32131000D03*
X69215000Y-28067000D03*
X72771000Y-27051000D03*
X65659000Y-28575000D03*
X79121000Y-28067000D03*
X77851000Y-32131000D03*
X76835000Y-27051000D03*
X79121000Y-29083000D03*
X68199000Y-30099000D03*
X68707000Y-26543000D03*
X63119000Y-28067000D03*
X72771000Y-33274000D03*
X78486000Y-28575000D03*
X64643000Y-40259000D03*
X72771000Y-32131000D03*
X74803000Y-32131000D03*
X77851000Y-30099000D03*
X75819000Y-33147000D03*
X73279000Y-27559000D03*
X73787000Y-32131000D03*
X64135000Y-28067000D03*
X68707000Y-28575000D03*
X63119000Y-30099000D03*
X73279000Y-26543000D03*
X77851000Y-27051000D03*
X76327000Y-28575000D03*
X68707000Y-32639000D03*
X65659000Y-31623000D03*
X77343000Y-27559000D03*
X64135000Y-31115000D03*
X63627000Y-28575000D03*
X65659000Y-43180000D03*
X65151000Y-27051000D03*
X73279000Y-32639000D03*
X68199000Y-29083000D03*
X63119000Y-32131000D03*
X73787000Y-30099000D03*
X73279000Y-29591000D03*
X76327000Y-29591000D03*
X68199000Y-27051000D03*
X63627000Y-30607000D03*
X76327000Y-31623000D03*
X73787000Y-31115000D03*
X62865000Y-43180000D03*
X76327000Y-26543000D03*
X73279000Y-28575000D03*
X67691000Y-27559000D03*
X64643000Y-43180000D03*
X64135000Y-27051000D03*
X77343000Y-32639000D03*
X64643000Y-30607000D03*
X69215000Y-27051000D03*
X67691000Y-28575000D03*
X75819000Y-32131000D03*
X77343000Y-28575000D03*
X77343000Y-26543000D03*
X67437000Y-41275000D03*
X78486000Y-26543000D03*
X63627000Y-29591000D03*
%TD*%
%TA.AperFunction,Conductor*%
%TO.N,GNDA*%
G36*
X79471539Y-26282185D02*
G01*
X79517294Y-26334989D01*
X79528500Y-26386500D01*
X79528500Y-32792811D01*
X79508815Y-32859850D01*
X79456011Y-32905605D01*
X79386853Y-32915549D01*
X79385102Y-32915284D01*
X79367524Y-32912500D01*
X77604482Y-32912500D01*
X77523519Y-32925323D01*
X77510696Y-32927354D01*
X77397658Y-32984950D01*
X77397657Y-32984951D01*
X77397652Y-32984954D01*
X77307954Y-33074652D01*
X77307951Y-33074657D01*
X77307950Y-33074658D01*
X77288751Y-33112337D01*
X77250352Y-33187698D01*
X77235500Y-33281475D01*
X77235500Y-35044517D01*
X77246292Y-35112657D01*
X77250354Y-35138304D01*
X77307950Y-35251342D01*
X77307952Y-35251344D01*
X77307954Y-35251347D01*
X77397652Y-35341045D01*
X77397654Y-35341046D01*
X77397658Y-35341050D01*
X77509746Y-35398162D01*
X77510698Y-35398647D01*
X77604475Y-35413499D01*
X77604481Y-35413500D01*
X77754140Y-35413499D01*
X77821177Y-35433183D01*
X77866932Y-35485987D01*
X77876876Y-35555145D01*
X77847851Y-35618701D01*
X77825262Y-35639074D01*
X77679118Y-35741405D01*
X77524402Y-35896121D01*
X77398900Y-36075357D01*
X77398898Y-36075361D01*
X77306426Y-36273668D01*
X77306422Y-36273677D01*
X77249793Y-36485020D01*
X77249793Y-36485024D01*
X77230723Y-36702997D01*
X77230723Y-36703002D01*
X77249793Y-36920975D01*
X77249793Y-36920979D01*
X77306422Y-37132322D01*
X77306424Y-37132326D01*
X77306425Y-37132330D01*
X77352661Y-37231484D01*
X77398897Y-37330638D01*
X77398898Y-37330639D01*
X77524402Y-37509877D01*
X77679123Y-37664598D01*
X77858360Y-37790101D01*
X77858361Y-37790102D01*
X78009583Y-37860618D01*
X78062022Y-37906790D01*
X78081174Y-37973984D01*
X78060958Y-38040865D01*
X78009583Y-38085382D01*
X77858361Y-38155898D01*
X77858357Y-38155900D01*
X77679121Y-38281402D01*
X77524402Y-38436121D01*
X77398900Y-38615357D01*
X77398898Y-38615361D01*
X77306426Y-38813668D01*
X77306422Y-38813677D01*
X77249793Y-39025020D01*
X77249793Y-39025024D01*
X77230723Y-39242997D01*
X77230723Y-39243002D01*
X77249793Y-39460975D01*
X77249793Y-39460979D01*
X77306422Y-39672322D01*
X77306424Y-39672326D01*
X77306425Y-39672330D01*
X77352661Y-39771484D01*
X77398897Y-39870638D01*
X77398898Y-39870639D01*
X77524402Y-40049877D01*
X77679123Y-40204598D01*
X77858360Y-40330101D01*
X77858361Y-40330102D01*
X78009583Y-40400618D01*
X78062022Y-40446790D01*
X78081174Y-40513984D01*
X78060958Y-40580865D01*
X78009583Y-40625382D01*
X77858361Y-40695898D01*
X77858357Y-40695900D01*
X77679121Y-40821402D01*
X77524402Y-40976121D01*
X77398900Y-41155357D01*
X77398898Y-41155361D01*
X77306426Y-41353668D01*
X77306422Y-41353677D01*
X77249793Y-41565020D01*
X77249793Y-41565024D01*
X77230723Y-41782997D01*
X77230723Y-41783002D01*
X77233499Y-41814727D01*
X77247029Y-41969389D01*
X77249793Y-42000975D01*
X77249793Y-42000979D01*
X77306422Y-42212322D01*
X77306424Y-42212326D01*
X77306425Y-42212330D01*
X77339379Y-42283000D01*
X77398897Y-42410638D01*
X77398898Y-42410639D01*
X77524402Y-42589877D01*
X77679123Y-42744598D01*
X77858361Y-42870102D01*
X78056670Y-42962575D01*
X78056676Y-42962576D01*
X78056677Y-42962577D01*
X78087364Y-42970799D01*
X78268023Y-43019207D01*
X78450926Y-43035208D01*
X78485998Y-43038277D01*
X78486000Y-43038277D01*
X78486002Y-43038277D01*
X78514254Y-43035805D01*
X78703977Y-43019207D01*
X78915330Y-42962575D01*
X79113639Y-42870102D01*
X79292877Y-42744598D01*
X79316819Y-42720656D01*
X79378142Y-42687171D01*
X79447834Y-42692155D01*
X79503767Y-42734027D01*
X79528184Y-42799491D01*
X79528500Y-42808337D01*
X79528500Y-43590500D01*
X79508815Y-43657539D01*
X79456011Y-43703294D01*
X79404500Y-43714500D01*
X75909983Y-43714500D01*
X75842944Y-43694815D01*
X75797189Y-43642011D01*
X75787245Y-43572853D01*
X75808408Y-43519376D01*
X75889666Y-43403326D01*
X75982101Y-43205098D01*
X75982104Y-43205092D01*
X76016711Y-43075939D01*
X75207144Y-43075939D01*
X75268925Y-42968932D01*
X75303000Y-42841765D01*
X75303000Y-42710113D01*
X75268925Y-42582946D01*
X75207144Y-42475939D01*
X76016711Y-42475939D01*
X76016710Y-42475938D01*
X75982104Y-42346785D01*
X75982101Y-42346779D01*
X75889666Y-42148551D01*
X75889664Y-42148547D01*
X75764216Y-41969389D01*
X75764211Y-41969383D01*
X75609554Y-41814726D01*
X75430387Y-41689272D01*
X75232159Y-41596837D01*
X75232153Y-41596834D01*
X75103000Y-41562228D01*
X75103000Y-42371794D01*
X74995993Y-42310014D01*
X74868826Y-42275939D01*
X74737174Y-42275939D01*
X74610007Y-42310014D01*
X74503000Y-42371794D01*
X74503000Y-41562228D01*
X74502999Y-41562228D01*
X74373846Y-41596834D01*
X74373840Y-41596837D01*
X74175612Y-41689272D01*
X74175608Y-41689274D01*
X73996450Y-41814722D01*
X73996444Y-41814727D01*
X73841788Y-41969383D01*
X73841783Y-41969389D01*
X73716335Y-42148547D01*
X73716333Y-42148551D01*
X73645658Y-42300114D01*
X73599485Y-42352553D01*
X73532292Y-42371705D01*
X73465411Y-42351489D01*
X73420894Y-42300114D01*
X73379959Y-42212330D01*
X73350102Y-42148301D01*
X73350100Y-42148298D01*
X73350099Y-42148296D01*
X73224599Y-41969063D01*
X73149988Y-41894452D01*
X73069877Y-41814341D01*
X72931108Y-41717174D01*
X72890638Y-41688836D01*
X72791484Y-41642600D01*
X72692330Y-41596364D01*
X72692326Y-41596363D01*
X72692322Y-41596361D01*
X72480977Y-41539732D01*
X72263002Y-41520662D01*
X72262998Y-41520662D01*
X72117682Y-41533375D01*
X72045023Y-41539732D01*
X72045020Y-41539732D01*
X71833677Y-41596361D01*
X71833670Y-41596363D01*
X71833670Y-41596364D01*
X71829514Y-41598302D01*
X71635361Y-41688837D01*
X71635357Y-41688839D01*
X71456121Y-41814341D01*
X71301402Y-41969060D01*
X71175900Y-42148296D01*
X71175898Y-42148300D01*
X71105382Y-42299522D01*
X71059209Y-42351961D01*
X70992016Y-42371113D01*
X70925135Y-42350897D01*
X70880618Y-42299522D01*
X70839959Y-42212330D01*
X70810102Y-42148301D01*
X70810100Y-42148298D01*
X70810099Y-42148296D01*
X70684599Y-41969063D01*
X70609988Y-41894452D01*
X70529877Y-41814341D01*
X70391108Y-41717174D01*
X70350638Y-41688836D01*
X70251484Y-41642600D01*
X70152330Y-41596364D01*
X70152326Y-41596363D01*
X70152322Y-41596361D01*
X69940977Y-41539732D01*
X69723002Y-41520662D01*
X69722998Y-41520662D01*
X69577682Y-41533375D01*
X69505023Y-41539732D01*
X69505020Y-41539732D01*
X69293677Y-41596361D01*
X69293670Y-41596363D01*
X69293670Y-41596364D01*
X69289514Y-41598302D01*
X69095361Y-41688837D01*
X69095357Y-41688839D01*
X68916121Y-41814341D01*
X68761402Y-41969060D01*
X68658574Y-42115915D01*
X68603997Y-42159540D01*
X68534499Y-42166733D01*
X68472144Y-42135211D01*
X68436730Y-42074981D01*
X68432999Y-42044792D01*
X68432999Y-41894459D01*
X68418164Y-41800789D01*
X68418162Y-41800783D01*
X68360643Y-41687897D01*
X68360636Y-41687888D01*
X68271050Y-41598302D01*
X68271046Y-41598299D01*
X68158144Y-41540772D01*
X68064486Y-41525939D01*
X67483000Y-41525939D01*
X67483000Y-42371794D01*
X67375993Y-42310014D01*
X67248826Y-42275939D01*
X67117174Y-42275939D01*
X66990007Y-42310014D01*
X66883000Y-42371794D01*
X66883000Y-41525939D01*
X66301520Y-41525939D01*
X66207850Y-41540774D01*
X66207844Y-41540776D01*
X66094958Y-41598295D01*
X66094949Y-41598302D01*
X66005363Y-41687888D01*
X66005360Y-41687892D01*
X65947833Y-41800794D01*
X65933000Y-41894452D01*
X65933000Y-42475939D01*
X66778856Y-42475939D01*
X66717075Y-42582946D01*
X66683000Y-42710113D01*
X66683000Y-42841765D01*
X66717075Y-42968932D01*
X66778856Y-43075939D01*
X65933001Y-43075939D01*
X65933001Y-43590500D01*
X65913316Y-43657539D01*
X65860512Y-43703294D01*
X65809001Y-43714500D01*
X62581500Y-43714500D01*
X62514461Y-43694815D01*
X62468706Y-43642011D01*
X62457500Y-43590500D01*
X62457500Y-42807629D01*
X62477185Y-42740590D01*
X62529989Y-42694835D01*
X62599147Y-42684891D01*
X62662703Y-42713916D01*
X62669181Y-42719948D01*
X62693445Y-42744212D01*
X62872612Y-42869666D01*
X63070840Y-42962101D01*
X63070851Y-42962106D01*
X63199999Y-42996710D01*
X63200000Y-42996709D01*
X63200000Y-42187144D01*
X63307007Y-42248925D01*
X63434174Y-42283000D01*
X63565826Y-42283000D01*
X63692993Y-42248925D01*
X63800000Y-42187144D01*
X63800000Y-42996710D01*
X63929148Y-42962106D01*
X63929159Y-42962101D01*
X64127387Y-42869666D01*
X64306554Y-42744212D01*
X64461212Y-42589554D01*
X64586666Y-42410387D01*
X64679101Y-42212159D01*
X64679104Y-42212153D01*
X64713711Y-42083000D01*
X63904144Y-42083000D01*
X63965925Y-41975993D01*
X64000000Y-41848826D01*
X64000000Y-41717174D01*
X63965925Y-41590007D01*
X63904144Y-41483000D01*
X64713711Y-41483000D01*
X64713710Y-41482999D01*
X64679104Y-41353846D01*
X64679101Y-41353840D01*
X64586666Y-41155612D01*
X64586664Y-41155608D01*
X64461216Y-40976450D01*
X64461211Y-40976444D01*
X64306554Y-40821787D01*
X64127387Y-40696333D01*
X63975824Y-40625658D01*
X63923385Y-40579486D01*
X63904233Y-40512292D01*
X63924449Y-40445411D01*
X63975822Y-40400895D01*
X64127639Y-40330102D01*
X64306877Y-40204598D01*
X64461598Y-40049877D01*
X64587102Y-39870639D01*
X64679575Y-39672330D01*
X64736207Y-39460977D01*
X64755277Y-39243000D01*
X64736207Y-39025023D01*
X64679575Y-38813670D01*
X64587102Y-38615362D01*
X64587100Y-38615359D01*
X64587099Y-38615357D01*
X64461599Y-38436124D01*
X64461596Y-38436121D01*
X64306877Y-38281402D01*
X64127639Y-38155898D01*
X63976414Y-38085381D01*
X63923977Y-38039210D01*
X63904825Y-37972016D01*
X63925041Y-37905135D01*
X63976414Y-37860618D01*
X64127639Y-37790102D01*
X64306877Y-37664598D01*
X64461598Y-37509877D01*
X64587102Y-37330639D01*
X64679575Y-37132330D01*
X64736207Y-36920977D01*
X64755277Y-36703000D01*
X64736207Y-36485023D01*
X64679575Y-36273670D01*
X64587102Y-36075362D01*
X64587100Y-36075359D01*
X64587099Y-36075357D01*
X64461599Y-35896124D01*
X64461596Y-35896121D01*
X64306877Y-35741402D01*
X64160019Y-35638571D01*
X64116398Y-35583997D01*
X64109205Y-35514498D01*
X64140727Y-35452144D01*
X64200957Y-35416730D01*
X64231146Y-35412999D01*
X64381479Y-35412999D01*
X64475149Y-35398164D01*
X64475155Y-35398162D01*
X64588041Y-35340643D01*
X64588050Y-35340636D01*
X64677636Y-35251050D01*
X64677639Y-35251046D01*
X64735166Y-35138144D01*
X64750000Y-35044486D01*
X64750000Y-34463000D01*
X63904144Y-34463000D01*
X63965925Y-34355993D01*
X64000000Y-34228826D01*
X64000000Y-34097174D01*
X63965925Y-33970007D01*
X63904144Y-33863000D01*
X64749999Y-33863000D01*
X64749999Y-33281520D01*
X64735164Y-33187850D01*
X64735162Y-33187844D01*
X64677643Y-33074958D01*
X64677636Y-33074949D01*
X64588050Y-32985363D01*
X64588046Y-32985360D01*
X64475144Y-32927833D01*
X64381486Y-32913000D01*
X63800000Y-32913000D01*
X63800000Y-33758855D01*
X63692993Y-33697075D01*
X63565826Y-33663000D01*
X63434174Y-33663000D01*
X63307007Y-33697075D01*
X63200000Y-33758855D01*
X63200000Y-32913000D01*
X62618519Y-32913000D01*
X62600895Y-32915792D01*
X62531602Y-32906835D01*
X62478151Y-32861838D01*
X62457513Y-32795086D01*
X62457500Y-32793318D01*
X62457500Y-26386500D01*
X62477185Y-26319461D01*
X62529989Y-26273706D01*
X62581500Y-26262500D01*
X79404500Y-26262500D01*
X79471539Y-26282185D01*
G37*
%TD.AperFunction*%
%TD*%
M02*
