%TF.GenerationSoftware,KiCad,Pcbnew,8.0.0*%
%TF.CreationDate,2024-08-25T13:37:12+02:00*%
%TF.ProjectId,Detector_PTFE_FR4_4_warstwy,44657465-6374-46f7-925f-505446455f46,rev?*%
%TF.SameCoordinates,Original*%
%TF.FileFunction,Soldermask,Top*%
%TF.FilePolarity,Negative*%
%FSLAX46Y46*%
G04 Gerber Fmt 4.6, Leading zero omitted, Abs format (unit mm)*
G04 Created by KiCad (PCBNEW 8.0.0) date 2024-08-25 13:37:12*
%MOMM*%
%LPD*%
G01*
G04 APERTURE LIST*
G04 Aperture macros list*
%AMRoundRect*
0 Rectangle with rounded corners*
0 $1 Rounding radius*
0 $2 $3 $4 $5 $6 $7 $8 $9 X,Y pos of 4 corners*
0 Add a 4 corners polygon primitive as box body*
4,1,4,$2,$3,$4,$5,$6,$7,$8,$9,$2,$3,0*
0 Add four circle primitives for the rounded corners*
1,1,$1+$1,$2,$3*
1,1,$1+$1,$4,$5*
1,1,$1+$1,$6,$7*
1,1,$1+$1,$8,$9*
0 Add four rect primitives between the rounded corners*
20,1,$1+$1,$2,$3,$4,$5,0*
20,1,$1+$1,$4,$5,$6,$7,0*
20,1,$1+$1,$6,$7,$8,$9,0*
20,1,$1+$1,$8,$9,$2,$3,0*%
G04 Aperture macros list end*
%ADD10C,0.100000*%
%ADD11RoundRect,0.135000X0.135000X0.185000X-0.135000X0.185000X-0.135000X-0.185000X0.135000X-0.185000X0*%
%ADD12RoundRect,0.140000X-0.140000X-0.170000X0.140000X-0.170000X0.140000X0.170000X-0.140000X0.170000X0*%
%ADD13R,1.700000X1.700000*%
%ADD14O,1.700000X1.700000*%
%ADD15RoundRect,0.225000X-0.250000X0.225000X-0.250000X-0.225000X0.250000X-0.225000X0.250000X0.225000X0*%
%ADD16R,1.500000X5.080000*%
%ADD17RoundRect,0.140000X-0.170000X0.140000X-0.170000X-0.140000X0.170000X-0.140000X0.170000X0.140000X0*%
%ADD18RoundRect,0.135000X-0.185000X0.135000X-0.185000X-0.135000X0.185000X-0.135000X0.185000X0.135000X0*%
%ADD19RoundRect,0.100000X-0.175000X-0.100000X0.175000X-0.100000X0.175000X0.100000X-0.175000X0.100000X0*%
%ADD20RoundRect,0.100000X-0.100000X-0.175000X0.100000X-0.175000X0.100000X0.175000X-0.100000X0.175000X0*%
%ADD21RoundRect,0.140000X0.170000X-0.140000X0.170000X0.140000X-0.170000X0.140000X-0.170000X-0.140000X0*%
%ADD22RoundRect,0.218750X0.218750X0.256250X-0.218750X0.256250X-0.218750X-0.256250X0.218750X-0.256250X0*%
%ADD23RoundRect,0.218750X-0.218750X-0.256250X0.218750X-0.256250X0.218750X0.256250X-0.218750X0.256250X0*%
G04 APERTURE END LIST*
D10*
X69850000Y-36576000D02*
X71501000Y-36576000D01*
X71501000Y-38100000D01*
X69850000Y-38100000D01*
X69850000Y-36576000D01*
G36*
X69850000Y-36576000D02*
G01*
X71501000Y-36576000D01*
X71501000Y-38100000D01*
X69850000Y-38100000D01*
X69850000Y-36576000D01*
G37*
D11*
%TO.C,R3*%
X70106000Y-30861000D03*
X69086000Y-30861000D03*
%TD*%
D12*
%TO.C,C5*%
X66830000Y-40235939D03*
X67790000Y-40235939D03*
%TD*%
D13*
%TO.C,REF\u002A\u002A*%
X67183000Y-42775939D03*
D14*
X69723000Y-42775939D03*
X72263000Y-42775939D03*
X74803000Y-42775939D03*
%TD*%
D15*
%TO.C,C2*%
X66675000Y-32602939D03*
X66675000Y-34152939D03*
%TD*%
D16*
%TO.C,J1*%
X70993000Y-28730500D03*
X66743000Y-28730500D03*
X75243000Y-28730500D03*
%TD*%
D17*
%TO.C,C3*%
X66802000Y-36707939D03*
X66802000Y-37667939D03*
%TD*%
D13*
%TO.C,REF\u002A\u002A*%
X63500000Y-34163000D03*
D14*
X63500000Y-36703000D03*
X63500000Y-39243000D03*
X63500000Y-41783000D03*
%TD*%
D18*
%TO.C,R5*%
X71501000Y-40106939D03*
X71501000Y-41126939D03*
%TD*%
D19*
%TO.C,U1*%
X68968000Y-36261939D03*
X68968000Y-36911939D03*
X68968000Y-37561939D03*
X68968000Y-38211939D03*
D20*
X69693000Y-38936939D03*
X70343000Y-38936939D03*
X70993000Y-38936939D03*
X71643000Y-38936939D03*
D19*
X72368000Y-38211939D03*
X72368000Y-37561939D03*
X72368000Y-36911939D03*
X72368000Y-36261939D03*
D20*
X71643000Y-35536939D03*
X70993000Y-35536939D03*
X70343000Y-35536939D03*
X69693000Y-35536939D03*
%TD*%
D21*
%TO.C,C7*%
X74549000Y-40715939D03*
X74549000Y-39755939D03*
%TD*%
%TO.C,C6*%
X73533000Y-40715939D03*
X73533000Y-39755939D03*
%TD*%
D13*
%TO.C,REF\u002A\u002A*%
X78486000Y-34163000D03*
D14*
X78486000Y-36703000D03*
X78486000Y-39243000D03*
X78486000Y-41783000D03*
%TD*%
D22*
%TO.C,L2*%
X75336500Y-38457939D03*
X73761500Y-38457939D03*
%TD*%
D11*
%TO.C,R2*%
X67820000Y-35663939D03*
X66800000Y-35663939D03*
%TD*%
D17*
%TO.C,C4*%
X67818000Y-36707939D03*
X67818000Y-37667939D03*
%TD*%
D15*
%TO.C,C1*%
X70993000Y-32602939D03*
X70993000Y-34152939D03*
%TD*%
D18*
%TO.C,R4*%
X70358000Y-40106939D03*
X70358000Y-41126939D03*
%TD*%
D23*
%TO.C,L1*%
X66014500Y-38965939D03*
X67589500Y-38965939D03*
%TD*%
M02*
