%TF.GenerationSoftware,KiCad,Pcbnew,8.0.0*%
%TF.CreationDate,2024-08-25T13:38:47+02:00*%
%TF.ProjectId,Detector_PTFE,44657465-6374-46f7-925f-505446452e6b,rev?*%
%TF.SameCoordinates,Original*%
%TF.FileFunction,Copper,L1,Top*%
%TF.FilePolarity,Positive*%
%FSLAX46Y46*%
G04 Gerber Fmt 4.6, Leading zero omitted, Abs format (unit mm)*
G04 Created by KiCad (PCBNEW 8.0.0) date 2024-08-25 13:38:47*
%MOMM*%
%LPD*%
G01*
G04 APERTURE LIST*
G04 Aperture macros list*
%AMRoundRect*
0 Rectangle with rounded corners*
0 $1 Rounding radius*
0 $2 $3 $4 $5 $6 $7 $8 $9 X,Y pos of 4 corners*
0 Add a 4 corners polygon primitive as box body*
4,1,4,$2,$3,$4,$5,$6,$7,$8,$9,$2,$3,0*
0 Add four circle primitives for the rounded corners*
1,1,$1+$1,$2,$3*
1,1,$1+$1,$4,$5*
1,1,$1+$1,$6,$7*
1,1,$1+$1,$8,$9*
0 Add four rect primitives between the rounded corners*
20,1,$1+$1,$2,$3,$4,$5,0*
20,1,$1+$1,$4,$5,$6,$7,0*
20,1,$1+$1,$6,$7,$8,$9,0*
20,1,$1+$1,$8,$9,$2,$3,0*%
G04 Aperture macros list end*
%TA.AperFunction,SMDPad,CuDef*%
%ADD10RoundRect,0.135000X0.135000X0.185000X-0.135000X0.185000X-0.135000X-0.185000X0.135000X-0.185000X0*%
%TD*%
%TA.AperFunction,SMDPad,CuDef*%
%ADD11RoundRect,0.140000X-0.170000X0.140000X-0.170000X-0.140000X0.170000X-0.140000X0.170000X0.140000X0*%
%TD*%
%TA.AperFunction,CastellatedPad*%
%ADD12R,1.700000X1.700000*%
%TD*%
%TA.AperFunction,CastellatedPad*%
%ADD13O,1.700000X1.700000*%
%TD*%
%TA.AperFunction,SMDPad,CuDef*%
%ADD14RoundRect,0.218750X-0.218750X-0.256250X0.218750X-0.256250X0.218750X0.256250X-0.218750X0.256250X0*%
%TD*%
%TA.AperFunction,SMDPad,CuDef*%
%ADD15RoundRect,0.140000X0.170000X-0.140000X0.170000X0.140000X-0.170000X0.140000X-0.170000X-0.140000X0*%
%TD*%
%TA.AperFunction,SMDPad,CuDef*%
%ADD16RoundRect,0.135000X-0.185000X0.135000X-0.185000X-0.135000X0.185000X-0.135000X0.185000X0.135000X0*%
%TD*%
%TA.AperFunction,SMDPad,CuDef*%
%ADD17R,1.500000X5.080000*%
%TD*%
%TA.AperFunction,SMDPad,CuDef*%
%ADD18RoundRect,0.225000X-0.250000X0.225000X-0.250000X-0.225000X0.250000X-0.225000X0.250000X0.225000X0*%
%TD*%
%TA.AperFunction,SMDPad,CuDef*%
%ADD19RoundRect,0.100000X-0.175000X-0.100000X0.175000X-0.100000X0.175000X0.100000X-0.175000X0.100000X0*%
%TD*%
%TA.AperFunction,SMDPad,CuDef*%
%ADD20RoundRect,0.100000X-0.100000X-0.175000X0.100000X-0.175000X0.100000X0.175000X-0.100000X0.175000X0*%
%TD*%
%TA.AperFunction,SMDPad,CuDef*%
%ADD21RoundRect,0.218750X0.218750X0.256250X-0.218750X0.256250X-0.218750X-0.256250X0.218750X-0.256250X0*%
%TD*%
%TA.AperFunction,SMDPad,CuDef*%
%ADD22RoundRect,0.140000X-0.140000X-0.170000X0.140000X-0.170000X0.140000X0.170000X-0.140000X0.170000X0*%
%TD*%
%TA.AperFunction,ViaPad*%
%ADD23C,0.400000*%
%TD*%
%TA.AperFunction,Conductor*%
%ADD24C,0.484441*%
%TD*%
%TA.AperFunction,Conductor*%
%ADD25C,1.268330*%
%TD*%
%TA.AperFunction,Conductor*%
%ADD26C,0.200000*%
%TD*%
%TA.AperFunction,Conductor*%
%ADD27C,0.400000*%
%TD*%
G04 APERTURE END LIST*
D10*
%TO.P,R3,1*%
%TO.N,Net-(J1-In)*%
X49278000Y-30607000D03*
%TO.P,R3,2*%
%TO.N,GNDA*%
X48258000Y-30607000D03*
%TD*%
%TO.P,R2,1*%
%TO.N,Net-(U1-ENABLE)*%
X46992000Y-35409939D03*
%TO.P,R2,2*%
%TO.N,Net-(C3-Pad2)*%
X45972000Y-35409939D03*
%TD*%
D11*
%TO.P,C4,1*%
%TO.N,GNDA*%
X46990000Y-36453939D03*
%TO.P,C4,2*%
%TO.N,Net-(C3-Pad2)*%
X46990000Y-37413939D03*
%TD*%
D12*
%TO.P,REF\u002A\u002A,1*%
%TO.N,GNDA*%
X46355000Y-42521939D03*
D13*
%TO.P,REF\u002A\u002A,2*%
%TO.N,ADC1_IN0_DET1*%
X48895000Y-42521939D03*
%TO.P,REF\u002A\u002A,3*%
X51435000Y-42521939D03*
%TO.P,REF\u002A\u002A,4*%
%TO.N,GNDA*%
X53975000Y-42521939D03*
%TD*%
D11*
%TO.P,C3,1*%
%TO.N,GNDA*%
X45974000Y-36453939D03*
%TO.P,C3,2*%
%TO.N,Net-(C3-Pad2)*%
X45974000Y-37413939D03*
%TD*%
D12*
%TO.P,REF\u002A\u002A,1*%
%TO.N,GNDA*%
X42672000Y-33909000D03*
D13*
%TO.P,REF\u002A\u002A,2*%
%TO.N,Net-(C3-Pad2)*%
X42672000Y-36449000D03*
%TO.P,REF\u002A\u002A,3*%
%TO.N,+5V*%
X42672000Y-38989000D03*
%TO.P,REF\u002A\u002A,4*%
%TO.N,GNDA*%
X42672000Y-41529000D03*
%TD*%
D14*
%TO.P,L1,1,1*%
%TO.N,+5V*%
X45186500Y-38711939D03*
%TO.P,L1,2,2*%
%TO.N,Net-(C3-Pad2)*%
X46761500Y-38711939D03*
%TD*%
D15*
%TO.P,C7,1*%
%TO.N,GNDA*%
X53721000Y-40461939D03*
%TO.P,C7,2*%
%TO.N,Net-(U1-VPSO)*%
X53721000Y-39501939D03*
%TD*%
D16*
%TO.P,R5,1*%
%TO.N,GNDA*%
X50673000Y-39852939D03*
%TO.P,R5,2*%
%TO.N,ADC1_IN0_DET1*%
X50673000Y-40872939D03*
%TD*%
D17*
%TO.P,J1,1,In*%
%TO.N,Net-(J1-In)*%
X50165000Y-28476500D03*
%TO.P,J1,2,Ext*%
%TO.N,GNDA*%
X45915000Y-28476500D03*
X54415000Y-28476500D03*
%TD*%
D18*
%TO.P,C2,1*%
%TO.N,GNDA*%
X45847000Y-32348939D03*
%TO.P,C2,2*%
%TO.N,Net-(U1-INLO)*%
X45847000Y-33898939D03*
%TD*%
D15*
%TO.P,C6,1*%
%TO.N,GNDA*%
X52705000Y-40461939D03*
%TO.P,C6,2*%
%TO.N,Net-(U1-VPSO)*%
X52705000Y-39501939D03*
%TD*%
D19*
%TO.P,U1,1,CMIP*%
%TO.N,GNDA*%
X48140000Y-36007939D03*
%TO.P,U1,2,CMIP*%
X48140000Y-36657939D03*
%TO.P,U1,3,VPSI*%
%TO.N,Net-(C3-Pad2)*%
X48140000Y-37307939D03*
%TO.P,U1,4,VPSI*%
X48140000Y-37957939D03*
D20*
%TO.P,U1,5,CLPF*%
%TO.N,Net-(U1-CLPF)*%
X48865000Y-38682939D03*
%TO.P,U1,6,VOUT*%
%TO.N,Net-(U1-VOUT)*%
X49515000Y-38682939D03*
%TO.P,U1,7,VSET*%
X50165000Y-38682939D03*
%TO.P,U1,8,CMOP*%
%TO.N,GNDA*%
X50815000Y-38682939D03*
D19*
%TO.P,U1,9,VPSO*%
%TO.N,Net-(U1-VPSO)*%
X51540000Y-37957939D03*
%TO.P,U1,10,TADJ*%
%TO.N,T_ADJ_1*%
X51540000Y-37307939D03*
%TO.P,U1,11,CMIP*%
%TO.N,GNDA*%
X51540000Y-36657939D03*
%TO.P,U1,12,CMIP*%
X51540000Y-36007939D03*
D20*
%TO.P,U1,13,TEMP*%
%TO.N,ADC3_IN3_TEMP*%
X50815000Y-35282939D03*
%TO.P,U1,14,INHI*%
%TO.N,Net-(U1-INHI)*%
X50165000Y-35282939D03*
%TO.P,U1,15,INLO*%
%TO.N,Net-(U1-INLO)*%
X49515000Y-35282939D03*
%TO.P,U1,16,ENABLE*%
%TO.N,Net-(U1-ENABLE)*%
X48865000Y-35282939D03*
%TD*%
D21*
%TO.P,L2,1,1*%
%TO.N,+5V*%
X54508500Y-38203939D03*
%TO.P,L2,2,2*%
%TO.N,Net-(U1-VPSO)*%
X52933500Y-38203939D03*
%TD*%
D16*
%TO.P,R4,1*%
%TO.N,Net-(U1-VOUT)*%
X49530000Y-39852939D03*
%TO.P,R4,2*%
%TO.N,ADC1_IN0_DET1*%
X49530000Y-40872939D03*
%TD*%
D12*
%TO.P,REF\u002A\u002A,1*%
%TO.N,ADC3_IN3_TEMP*%
X57658000Y-33909000D03*
D13*
%TO.P,REF\u002A\u002A,2*%
%TO.N,T_ADJ_1*%
X57658000Y-36449000D03*
%TO.P,REF\u002A\u002A,3*%
%TO.N,+5V*%
X57658000Y-38989000D03*
%TO.P,REF\u002A\u002A,4*%
X57658000Y-41529000D03*
%TD*%
D18*
%TO.P,C1,1*%
%TO.N,Net-(J1-In)*%
X50165000Y-32348939D03*
%TO.P,C1,2*%
%TO.N,Net-(U1-INHI)*%
X50165000Y-33898939D03*
%TD*%
D22*
%TO.P,C5,1*%
%TO.N,GNDA*%
X46002000Y-39981939D03*
%TO.P,C5,2*%
%TO.N,Net-(U1-CLPF)*%
X46962000Y-39981939D03*
%TD*%
D23*
%TO.N,GNDA*%
X53467000Y-26289000D03*
X53467000Y-30353000D03*
X51308000Y-39243000D03*
X51943000Y-29845000D03*
X48387000Y-28829000D03*
X47625000Y-36449000D03*
X46863000Y-26289000D03*
X44831000Y-31750000D03*
X55499000Y-26289000D03*
X46863000Y-28321000D03*
X51435000Y-33147000D03*
X51943000Y-27813000D03*
X46863000Y-30353000D03*
X48387000Y-26797000D03*
X45085000Y-40005000D03*
X46863000Y-31750000D03*
X44831000Y-30353000D03*
X48895000Y-31369000D03*
X53467000Y-28321000D03*
X51435000Y-31369000D03*
X45847000Y-40894000D03*
X55499000Y-30353000D03*
X48895000Y-33147000D03*
X48895000Y-32258000D03*
X44831000Y-28321000D03*
X48387000Y-27813000D03*
X48387000Y-29845000D03*
X51943000Y-28829000D03*
X44831000Y-26289000D03*
X51943000Y-26797000D03*
X51435000Y-32258000D03*
X55499000Y-28321000D03*
%TD*%
D24*
%TO.N,Net-(U1-INHI)*%
X50165000Y-33898939D02*
X50165000Y-35282939D01*
D25*
%TO.N,Net-(J1-In)*%
X50165000Y-28476500D02*
X50165000Y-31750000D01*
D26*
%TO.N,GNDA*%
X54415000Y-28476500D02*
X54415000Y-29913000D01*
X46609000Y-32766000D02*
X46264061Y-32766000D01*
X54415000Y-29650000D02*
X54610000Y-29845000D01*
X42110000Y-32566000D02*
X42291000Y-32385000D01*
X54737000Y-30861000D02*
X55499000Y-30861000D01*
X54415000Y-30285000D02*
X54483000Y-30353000D01*
X54991000Y-30861000D02*
X54991000Y-31369000D01*
X45915000Y-28135000D02*
X45593000Y-27813000D01*
X45085000Y-32639000D02*
X45556939Y-32639000D01*
X45556939Y-32639000D02*
X45847000Y-32348939D01*
X54415000Y-30285000D02*
X54991000Y-30861000D01*
X45915000Y-30294000D02*
X46482000Y-30861000D01*
X45593000Y-26797000D02*
X44831000Y-26797000D01*
X45748500Y-28476500D02*
X45593000Y-28321000D01*
X54610000Y-27305000D02*
X55499000Y-27305000D01*
X54415000Y-28476500D02*
X54415000Y-26611000D01*
X54415000Y-27500000D02*
X54610000Y-27305000D01*
X54415000Y-28507000D02*
X54864000Y-28956000D01*
X45593000Y-30353000D02*
X44831000Y-30353000D01*
X54483000Y-30353000D02*
X55499000Y-30353000D01*
X45915000Y-30040000D02*
X46228000Y-30353000D01*
X54737000Y-26289000D02*
X55499000Y-26289000D01*
X54415000Y-26611000D02*
X54737000Y-26289000D01*
X53975000Y-28321000D02*
X53467000Y-28321000D01*
X54415000Y-28476500D02*
X54415000Y-26348000D01*
X54415000Y-30294000D02*
X53975000Y-30734000D01*
X46863000Y-32766000D02*
X46736000Y-32893000D01*
X45915000Y-27119000D02*
X45593000Y-26797000D01*
X46482000Y-30861000D02*
X46863000Y-30861000D01*
X45720000Y-27305000D02*
X44831000Y-27305000D01*
X54415000Y-28476500D02*
X54415000Y-26992000D01*
X46101000Y-26797000D02*
X46863000Y-26797000D01*
X54610000Y-26797000D02*
X55499000Y-26797000D01*
X43815000Y-32385000D02*
X43815000Y-32766000D01*
X46101000Y-28829000D02*
X46863000Y-28829000D01*
X45915000Y-26475000D02*
X46101000Y-26289000D01*
X54102000Y-29337000D02*
X53467000Y-29337000D01*
X54737000Y-28321000D02*
X55499000Y-28321000D01*
X45915000Y-28476500D02*
X45915000Y-27491000D01*
X54415000Y-28253000D02*
X53975000Y-27813000D01*
X45915000Y-29650000D02*
X45720000Y-29845000D01*
X54415000Y-28476500D02*
X54415000Y-29024000D01*
X45915000Y-30421000D02*
X46101000Y-30607000D01*
D27*
X46355000Y-42521939D02*
X46002000Y-42168939D01*
D26*
X45915000Y-28476500D02*
X45915000Y-26983000D01*
X45915000Y-28476500D02*
X45915000Y-29650000D01*
X45915000Y-28476500D02*
X45915000Y-30421000D01*
X54415000Y-28476500D02*
X54415000Y-30294000D01*
X46736000Y-32893000D02*
X46609000Y-32766000D01*
X46355000Y-29337000D02*
X46863000Y-29337000D01*
X54610000Y-29845000D02*
X55499000Y-29845000D01*
X54415000Y-28476500D02*
X54415000Y-28008000D01*
X45974000Y-27813000D02*
X46863000Y-27813000D01*
X54415000Y-28476500D02*
X54130500Y-28476500D01*
X45915000Y-27491000D02*
X46101000Y-27305000D01*
X44831000Y-28829000D02*
X45562500Y-28829000D01*
X54356000Y-26289000D02*
X53467000Y-26289000D01*
X45915000Y-28476500D02*
X45748500Y-28476500D01*
X45915000Y-28476500D02*
X45720000Y-28671500D01*
X54415000Y-29659000D02*
X54229000Y-29845000D01*
X45915000Y-28643000D02*
X46101000Y-28829000D01*
X54415000Y-29913000D02*
X53975000Y-30353000D01*
X46101000Y-29845000D02*
X46863000Y-29845000D01*
X45915000Y-30285000D02*
X45339000Y-30861000D01*
X54415000Y-26348000D02*
X54356000Y-26289000D01*
X45593000Y-28321000D02*
X44831000Y-28321000D01*
X54610000Y-29464000D02*
X54737000Y-29337000D01*
X54415000Y-28476500D02*
X54415000Y-30539000D01*
X54415000Y-28476500D02*
X54415000Y-27500000D01*
X54130500Y-28476500D02*
X53975000Y-28321000D01*
X45915000Y-28476500D02*
X45915000Y-29913000D01*
X53975000Y-27813000D02*
X53467000Y-27813000D01*
X54415000Y-28476500D02*
X54415000Y-29650000D01*
X54415000Y-29024000D02*
X54102000Y-29337000D01*
X54415000Y-28476500D02*
X54415000Y-30285000D01*
X46264061Y-32766000D02*
X45847000Y-32348939D01*
X54415000Y-26992000D02*
X54610000Y-26797000D01*
X45915000Y-27500000D02*
X45720000Y-27305000D01*
X54415000Y-28476500D02*
X54415000Y-29269000D01*
X46228000Y-30353000D02*
X46863000Y-30353000D01*
X45915000Y-28476500D02*
X45915000Y-26611000D01*
X45720000Y-28671500D02*
X45720000Y-29337000D01*
X42545000Y-33274000D02*
X42110000Y-33709000D01*
X45915000Y-26983000D02*
X46101000Y-26797000D01*
X45915000Y-28897000D02*
X46355000Y-29337000D01*
X45915000Y-28476500D02*
X45915000Y-28135000D01*
X45915000Y-27872000D02*
X45974000Y-27813000D01*
X45339000Y-30226000D02*
X45339000Y-31369000D01*
X54415000Y-27618000D02*
X54102000Y-27305000D01*
X45915000Y-28476500D02*
X45915000Y-26475000D01*
X45562500Y-28829000D02*
X45915000Y-28476500D01*
X45720000Y-29845000D02*
X44831000Y-29845000D01*
X45915000Y-28476500D02*
X45915000Y-27500000D01*
X46101000Y-27305000D02*
X46863000Y-27305000D01*
X53975000Y-28829000D02*
X53467000Y-28829000D01*
X54327500Y-28476500D02*
X53975000Y-28829000D01*
X54864000Y-28956000D02*
X54991000Y-28829000D01*
X53975000Y-30734000D02*
X53975000Y-31369000D01*
X43307000Y-33274000D02*
X42545000Y-33274000D01*
X54102000Y-30861000D02*
X53467000Y-30861000D01*
X46863000Y-32385000D02*
X46863000Y-32766000D01*
X45915000Y-30031000D02*
X45593000Y-30353000D01*
X45915000Y-29650000D02*
X45339000Y-30226000D01*
X45915000Y-28476500D02*
X45915000Y-30294000D01*
X54415000Y-28476500D02*
X54327500Y-28476500D01*
X54102000Y-26797000D02*
X53467000Y-26797000D01*
X54415000Y-28008000D02*
X54610000Y-27813000D01*
X54415000Y-28476500D02*
X54415000Y-28507000D01*
X45339000Y-30861000D02*
X44831000Y-30861000D01*
X45915000Y-28476500D02*
X45915000Y-28897000D01*
X45593000Y-27813000D02*
X44831000Y-27813000D01*
X54415000Y-28476500D02*
X54415000Y-27110000D01*
X45915000Y-26611000D02*
X45593000Y-26289000D01*
X45720000Y-29337000D02*
X44831000Y-29337000D01*
X54415000Y-28476500D02*
X54415000Y-30548000D01*
X54581500Y-28476500D02*
X54737000Y-28321000D01*
X53975000Y-30353000D02*
X53467000Y-30353000D01*
X54415000Y-30548000D02*
X54102000Y-30861000D01*
X45915000Y-28476500D02*
X45915000Y-29659000D01*
X45915000Y-29913000D02*
X46355000Y-30353000D01*
X54415000Y-30539000D02*
X54737000Y-30861000D01*
X46101000Y-26289000D02*
X46863000Y-26289000D01*
X45593000Y-26289000D02*
X44831000Y-26289000D01*
X45915000Y-29659000D02*
X46101000Y-29845000D01*
X43815000Y-32766000D02*
X42672000Y-33909000D01*
X46355000Y-30353000D02*
X46355000Y-31369000D01*
X54415000Y-28476500D02*
X54415000Y-27618000D01*
X54737000Y-29337000D02*
X55499000Y-29337000D01*
X54229000Y-29845000D02*
X53467000Y-29845000D01*
X54610000Y-27813000D02*
X55499000Y-27813000D01*
X54415000Y-28476500D02*
X54415000Y-29659000D01*
X54102000Y-27305000D02*
X53467000Y-27305000D01*
X45915000Y-28476500D02*
X45915000Y-27119000D01*
X54415000Y-28476500D02*
X54581500Y-28476500D01*
X42110000Y-33709000D02*
X42110000Y-32566000D01*
X45915000Y-28476500D02*
X45915000Y-28643000D01*
D24*
X45915000Y-32280939D02*
X45847000Y-32348939D01*
D26*
X45915000Y-28476500D02*
X45915000Y-27872000D01*
X45915000Y-28476500D02*
X45915000Y-30285000D01*
X45915000Y-28476500D02*
X45915000Y-30040000D01*
X54415000Y-29269000D02*
X54610000Y-29464000D01*
X45915000Y-28476500D02*
X45915000Y-30031000D01*
X45915000Y-28761000D02*
X45720000Y-28956000D01*
X54415000Y-28476500D02*
X54415000Y-28253000D01*
X54991000Y-28829000D02*
X55499000Y-28829000D01*
X54415000Y-27110000D02*
X54102000Y-26797000D01*
X45915000Y-28476500D02*
X45915000Y-28761000D01*
D27*
%TO.N,Net-(C3-Pad2)*%
X45057000Y-37413939D02*
X45974000Y-37413939D01*
X44704000Y-35814000D02*
X44704000Y-36449000D01*
X44704000Y-37060939D02*
X45057000Y-37413939D01*
X44704000Y-36449000D02*
X42672000Y-36449000D01*
X45108061Y-35409939D02*
X44704000Y-35814000D01*
X44704000Y-36449000D02*
X44704000Y-37060939D01*
X45972000Y-35409939D02*
X45108061Y-35409939D01*
%TO.N,Net-(U1-CLPF)*%
X48865000Y-38995939D02*
X48865000Y-38682939D01*
X46962000Y-39981939D02*
X47879000Y-39981939D01*
X47879000Y-39981939D02*
X48865000Y-38995939D01*
%TO.N,Net-(U1-ENABLE)*%
X48740000Y-35407939D02*
X48865000Y-35282939D01*
X46994000Y-35407939D02*
X48740000Y-35407939D01*
X46992000Y-35409939D02*
X46994000Y-35407939D01*
%TO.N,Net-(U1-VOUT)*%
X50165000Y-38682939D02*
X49515000Y-38682939D01*
X49515000Y-38682939D02*
X49515000Y-39837939D01*
X49515000Y-39837939D02*
X49530000Y-39852939D01*
%TO.N,T_ADJ_1*%
X56261000Y-37084000D02*
X56896000Y-36449000D01*
X51540000Y-37307939D02*
X51973061Y-37307939D01*
X52197000Y-37084000D02*
X56261000Y-37084000D01*
X51973061Y-37307939D02*
X52197000Y-37084000D01*
%TO.N,ADC3_IN3_TEMP*%
X50815000Y-35282939D02*
X51077061Y-35282939D01*
X52451000Y-33909000D02*
X56896000Y-33909000D01*
X51077061Y-35282939D02*
X52451000Y-33909000D01*
%TD*%
%TA.AperFunction,Conductor*%
%TO.N,GNDA*%
G36*
X54107928Y-40228594D02*
G01*
X54110624Y-40230688D01*
X54778198Y-40829968D01*
X54983032Y-41013847D01*
X54990965Y-41030414D01*
X54991000Y-41031706D01*
X54991000Y-43436500D01*
X54983971Y-43453471D01*
X54967000Y-43460500D01*
X54116523Y-43460500D01*
X54099552Y-43453471D01*
X54092523Y-43436500D01*
X54099552Y-43419529D01*
X54111533Y-43413024D01*
X54254651Y-43382602D01*
X54427478Y-43305655D01*
X54580535Y-43194452D01*
X54580538Y-43194449D01*
X54707125Y-43053860D01*
X54801717Y-42890020D01*
X54801722Y-42890009D01*
X54860181Y-42710094D01*
X54869446Y-42621939D01*
X54465843Y-42621939D01*
X54475000Y-42587765D01*
X54475000Y-42456113D01*
X54465843Y-42421939D01*
X54869446Y-42421939D01*
X54869446Y-42421938D01*
X54860181Y-42333783D01*
X54801722Y-42153868D01*
X54801717Y-42153857D01*
X54707125Y-41990017D01*
X54580538Y-41849428D01*
X54580535Y-41849425D01*
X54427478Y-41738222D01*
X54254650Y-41661275D01*
X54254651Y-41661275D01*
X54075000Y-41623088D01*
X54075000Y-42031096D01*
X54040826Y-42021939D01*
X53909174Y-42021939D01*
X53875000Y-42031096D01*
X53875000Y-41623088D01*
X53695348Y-41661275D01*
X53522522Y-41738222D01*
X53369464Y-41849425D01*
X53369461Y-41849428D01*
X53242874Y-41990017D01*
X53148282Y-42153857D01*
X53148277Y-42153868D01*
X53089818Y-42333783D01*
X53080553Y-42421938D01*
X53080554Y-42421939D01*
X53484157Y-42421939D01*
X53475000Y-42456113D01*
X53475000Y-42587765D01*
X53484157Y-42621939D01*
X53080554Y-42621939D01*
X53089818Y-42710094D01*
X53148277Y-42890009D01*
X53148282Y-42890020D01*
X53242874Y-43053860D01*
X53369461Y-43194449D01*
X53369464Y-43194452D01*
X53522521Y-43305655D01*
X53695349Y-43382602D01*
X53695348Y-43382602D01*
X53838467Y-43413024D01*
X53853605Y-43423429D01*
X53856953Y-43441490D01*
X53846548Y-43456628D01*
X53833477Y-43460500D01*
X52983000Y-43460500D01*
X52966029Y-43453471D01*
X52959000Y-43436500D01*
X52959000Y-41147999D01*
X52895500Y-41021000D01*
X52841342Y-40912685D01*
X52840041Y-40894365D01*
X52849219Y-40882172D01*
X52865575Y-40870939D01*
X53361000Y-40530660D01*
X53361000Y-40620655D01*
X53372023Y-40676073D01*
X53414016Y-40738918D01*
X53414020Y-40738922D01*
X53476865Y-40780915D01*
X53532283Y-40791938D01*
X53532292Y-40791939D01*
X53620999Y-40791939D01*
X53621000Y-40791938D01*
X53821000Y-40791938D01*
X53821001Y-40791939D01*
X53909708Y-40791939D01*
X53909716Y-40791938D01*
X53965134Y-40780915D01*
X54027979Y-40738922D01*
X54027983Y-40738918D01*
X54069976Y-40676073D01*
X54080999Y-40620655D01*
X54081000Y-40620647D01*
X54081000Y-40561940D01*
X54080999Y-40561939D01*
X53821001Y-40561939D01*
X53821000Y-40561940D01*
X53821000Y-40791938D01*
X53621000Y-40791938D01*
X53621000Y-40385939D01*
X53628029Y-40368968D01*
X53645000Y-40361939D01*
X54080999Y-40361939D01*
X54081000Y-40361938D01*
X54081000Y-40303230D01*
X54080999Y-40303222D01*
X54071055Y-40253231D01*
X54074639Y-40235215D01*
X54089912Y-40225010D01*
X54107928Y-40228594D01*
G37*
%TD.AperFunction*%
%TD*%
%TA.AperFunction,Conductor*%
%TO.N,Net-(U1-INLO)*%
G36*
X47762348Y-33274160D02*
G01*
X47873070Y-33287053D01*
X47878463Y-33288326D01*
X47879000Y-33288520D01*
X47879000Y-34529478D01*
X47878467Y-34529672D01*
X47873065Y-34530947D01*
X47762349Y-34543839D01*
X47759573Y-34544000D01*
X46055683Y-34544000D01*
X46052550Y-34543795D01*
X46023795Y-34540009D01*
X45927825Y-34527374D01*
X45921779Y-34525754D01*
X45836737Y-34490528D01*
X45807024Y-34478221D01*
X45801599Y-34475088D01*
X45701807Y-34398515D01*
X45699446Y-34396446D01*
X45613553Y-34310553D01*
X45611484Y-34308192D01*
X45534911Y-34208400D01*
X45531778Y-34202975D01*
X45531440Y-34202159D01*
X45484243Y-34088215D01*
X45482625Y-34082177D01*
X45466205Y-33957449D01*
X45466000Y-33954317D01*
X45466000Y-33863682D01*
X45466205Y-33860550D01*
X45466530Y-33858074D01*
X45482625Y-33735820D01*
X45484242Y-33729785D01*
X45531780Y-33615019D01*
X45534911Y-33609599D01*
X45538440Y-33605000D01*
X45611490Y-33509799D01*
X45613545Y-33507454D01*
X45699454Y-33421545D01*
X45701799Y-33419490D01*
X45801601Y-33342909D01*
X45807019Y-33339780D01*
X45921785Y-33292242D01*
X45927820Y-33290625D01*
X46035198Y-33276489D01*
X46052551Y-33274205D01*
X46055683Y-33274000D01*
X47759573Y-33274000D01*
X47762348Y-33274160D01*
G37*
%TD.AperFunction*%
%TD*%
%TA.AperFunction,Conductor*%
%TO.N,Net-(U1-VPSO)*%
G36*
X53355677Y-37715624D02*
G01*
X53376319Y-37732258D01*
X53430681Y-37786620D01*
X53464166Y-37847943D01*
X53467000Y-37874301D01*
X53467000Y-38965939D01*
X53594000Y-39092939D01*
X53796638Y-39092939D01*
X53863677Y-39112624D01*
X53884319Y-39129258D01*
X53938681Y-39183620D01*
X53972166Y-39244943D01*
X53975000Y-39271301D01*
X53975000Y-39549577D01*
X53955315Y-39616616D01*
X53938681Y-39637258D01*
X53884319Y-39691620D01*
X53822996Y-39725105D01*
X53796638Y-39727939D01*
X52629362Y-39727939D01*
X52562323Y-39708254D01*
X52541681Y-39691620D01*
X52487319Y-39637258D01*
X52453834Y-39575935D01*
X52451000Y-39549577D01*
X52451000Y-38330939D01*
X52450998Y-38330937D01*
X52197001Y-38203939D01*
X52197000Y-38203939D01*
X51486362Y-38203939D01*
X51419323Y-38184254D01*
X51398681Y-38167620D01*
X51344319Y-38113258D01*
X51310834Y-38051935D01*
X51308000Y-38025577D01*
X51308000Y-37874301D01*
X51327685Y-37807262D01*
X51344319Y-37786620D01*
X51386181Y-37744758D01*
X51447504Y-37711273D01*
X51473862Y-37708439D01*
X52025785Y-37708439D01*
X52025788Y-37708439D01*
X52036667Y-37705524D01*
X52056673Y-37700164D01*
X52088764Y-37695939D01*
X53288638Y-37695939D01*
X53355677Y-37715624D01*
G37*
%TD.AperFunction*%
%TD*%
%TA.AperFunction,Conductor*%
%TO.N,ADC1_IN0_DET1*%
G36*
X50621951Y-40640205D02*
G01*
X50638627Y-40642400D01*
X50729494Y-40654363D01*
X50735532Y-40655981D01*
X50834276Y-40696882D01*
X50839701Y-40700014D01*
X50924492Y-40765076D01*
X50928923Y-40769507D01*
X50993985Y-40854298D01*
X50997117Y-40859723D01*
X51038016Y-40958462D01*
X51039637Y-40964509D01*
X51053795Y-41072047D01*
X51054000Y-41075180D01*
X51054000Y-41402000D01*
X51181000Y-41529000D01*
X51647399Y-41529000D01*
X51651243Y-41529310D01*
X51803604Y-41554034D01*
X51810891Y-41556462D01*
X51947626Y-41628106D01*
X51950878Y-41630159D01*
X52036690Y-41694518D01*
X52122514Y-41758886D01*
X52125296Y-41761329D01*
X52228854Y-41867543D01*
X52233134Y-41873561D01*
X52298631Y-42004555D01*
X52300879Y-42011593D01*
X52323714Y-42158163D01*
X52324000Y-42161858D01*
X52324000Y-43059424D01*
X52323795Y-43062557D01*
X52307375Y-43187280D01*
X52305753Y-43193332D01*
X52258221Y-43308082D01*
X52255088Y-43313507D01*
X52179476Y-43412046D01*
X52175046Y-43416476D01*
X52124138Y-43455540D01*
X52109528Y-43460500D01*
X48220472Y-43460500D01*
X48205862Y-43455540D01*
X48154953Y-43416476D01*
X48150523Y-43412046D01*
X48074911Y-43313507D01*
X48071778Y-43308082D01*
X48024243Y-43193322D01*
X48022625Y-43187284D01*
X48006205Y-43062556D01*
X48006000Y-43059424D01*
X48006000Y-42161858D01*
X48006286Y-42158164D01*
X48006286Y-42158163D01*
X48029120Y-42011590D01*
X48031367Y-42004557D01*
X48096868Y-41873556D01*
X48101141Y-41867546D01*
X48204709Y-41761323D01*
X48207485Y-41758886D01*
X48379126Y-41630155D01*
X48382367Y-41628109D01*
X48519109Y-41556462D01*
X48526393Y-41554034D01*
X48678757Y-41529310D01*
X48682601Y-41529000D01*
X48932193Y-41529000D01*
X48932197Y-41529000D01*
X49022000Y-41529000D01*
X49149000Y-41402000D01*
X49149000Y-41075180D01*
X49149205Y-41072048D01*
X49149401Y-41070557D01*
X49163363Y-40964503D01*
X49164980Y-40958468D01*
X49205883Y-40859719D01*
X49209014Y-40854298D01*
X49274076Y-40769507D01*
X49278507Y-40765076D01*
X49363298Y-40700014D01*
X49368719Y-40696883D01*
X49467468Y-40655980D01*
X49473503Y-40654363D01*
X49566435Y-40642128D01*
X49581049Y-40640205D01*
X49584181Y-40640000D01*
X50618819Y-40640000D01*
X50621951Y-40640205D01*
G37*
%TD.AperFunction*%
%TD*%
%TA.AperFunction,Conductor*%
%TO.N,Net-(C3-Pad2)*%
G36*
X48275677Y-37207624D02*
G01*
X48296319Y-37224258D01*
X48350681Y-37278620D01*
X48384166Y-37339943D01*
X48387000Y-37366301D01*
X48387000Y-38025577D01*
X48367315Y-38092616D01*
X48350681Y-38113258D01*
X48296319Y-38167620D01*
X48234996Y-38201105D01*
X48208638Y-38203939D01*
X47370999Y-38203939D01*
X47244000Y-38330938D01*
X47244000Y-39041577D01*
X47224315Y-39108616D01*
X47207681Y-39129258D01*
X47153319Y-39183620D01*
X47091996Y-39217105D01*
X47065638Y-39219939D01*
X46533362Y-39219939D01*
X46466323Y-39200254D01*
X46445681Y-39183620D01*
X46391319Y-39129258D01*
X46357834Y-39067935D01*
X46355000Y-39041577D01*
X46355000Y-37822939D01*
X46228000Y-37695939D01*
X45898362Y-37695939D01*
X45831323Y-37676254D01*
X45810681Y-37659620D01*
X45756319Y-37605258D01*
X45722834Y-37543935D01*
X45720000Y-37517577D01*
X45720000Y-37366301D01*
X45739685Y-37299262D01*
X45756319Y-37278620D01*
X45810681Y-37224258D01*
X45872004Y-37190773D01*
X45898362Y-37187939D01*
X48208638Y-37187939D01*
X48275677Y-37207624D01*
G37*
%TD.AperFunction*%
%TD*%
%TA.AperFunction,Conductor*%
%TO.N,GNDA*%
G36*
X53574191Y-26027407D02*
G01*
X53610155Y-26076907D01*
X53615000Y-26107500D01*
X53615000Y-28376499D01*
X53615001Y-28376500D01*
X55214999Y-28376500D01*
X55215000Y-28376499D01*
X55215000Y-26107500D01*
X55233907Y-26049309D01*
X55283407Y-26013345D01*
X55314000Y-26008500D01*
X58601500Y-26008500D01*
X58659691Y-26027407D01*
X58695655Y-26076907D01*
X58700500Y-26107500D01*
X58700500Y-32772231D01*
X58681593Y-32830422D01*
X58632093Y-32866386D01*
X58582185Y-32869328D01*
X58527758Y-32858501D01*
X58527748Y-32858500D01*
X56788252Y-32858500D01*
X56788251Y-32858500D01*
X56788241Y-32858501D01*
X56729772Y-32870132D01*
X56729766Y-32870134D01*
X56663451Y-32914445D01*
X56663445Y-32914451D01*
X56619134Y-32980766D01*
X56619132Y-32980772D01*
X56607501Y-33039241D01*
X56607500Y-33039253D01*
X56607500Y-33409500D01*
X56588593Y-33467691D01*
X56539093Y-33503655D01*
X56508500Y-33508500D01*
X52503727Y-33508500D01*
X52398273Y-33508500D01*
X52335929Y-33525204D01*
X52296407Y-33535794D01*
X52205091Y-33588516D01*
X52205086Y-33588520D01*
X51015161Y-34778443D01*
X50960645Y-34806220D01*
X50945158Y-34807439D01*
X50706720Y-34807439D01*
X50648529Y-34788532D01*
X50612565Y-34739032D01*
X50607720Y-34708439D01*
X50607720Y-34563960D01*
X50626627Y-34505769D01*
X50661779Y-34475748D01*
X50668220Y-34472467D01*
X50763528Y-34377159D01*
X50824719Y-34257065D01*
X50840500Y-34157427D01*
X50840500Y-33640451D01*
X50824719Y-33540813D01*
X50824716Y-33540808D01*
X50824716Y-33540806D01*
X50763529Y-33420721D01*
X50763528Y-33420719D01*
X50668220Y-33325411D01*
X50666304Y-33324434D01*
X50600054Y-33290678D01*
X50556790Y-33247413D01*
X50546000Y-33202469D01*
X50546000Y-33045408D01*
X50564907Y-32987217D01*
X50600052Y-32957200D01*
X50668220Y-32922467D01*
X50763528Y-32827159D01*
X50824719Y-32707065D01*
X50840500Y-32607427D01*
X50840500Y-32271431D01*
X50857185Y-32216429D01*
X50904671Y-32145362D01*
X50967590Y-31993463D01*
X50999665Y-31832207D01*
X50999665Y-31253984D01*
X51018572Y-31195793D01*
X51043665Y-31171668D01*
X51059550Y-31161054D01*
X51059551Y-31161053D01*
X51062594Y-31156499D01*
X51103867Y-31094731D01*
X51109246Y-31067684D01*
X51135156Y-31021421D01*
X53615000Y-31021421D01*
X53617901Y-31036008D01*
X53628951Y-31052546D01*
X53628953Y-31052548D01*
X53645491Y-31063598D01*
X53660078Y-31066499D01*
X53660079Y-31066500D01*
X54314999Y-31066500D01*
X54315000Y-31066499D01*
X54515000Y-31066499D01*
X54515001Y-31066500D01*
X55169921Y-31066500D01*
X55169921Y-31066499D01*
X55184508Y-31063598D01*
X55201046Y-31052548D01*
X55201048Y-31052546D01*
X55212098Y-31036008D01*
X55214999Y-31021421D01*
X55215000Y-31021421D01*
X55215000Y-28576501D01*
X55214999Y-28576500D01*
X54515001Y-28576500D01*
X54515000Y-28576501D01*
X54515000Y-31066499D01*
X54315000Y-31066499D01*
X54315000Y-28576501D01*
X54314999Y-28576500D01*
X53615001Y-28576500D01*
X53615000Y-28576501D01*
X53615000Y-31021421D01*
X51135156Y-31021421D01*
X51139143Y-31014302D01*
X51194708Y-30988686D01*
X51206344Y-30988000D01*
X51688999Y-30988000D01*
X51689000Y-30988000D01*
X51689000Y-26107500D01*
X51707907Y-26049309D01*
X51757407Y-26013345D01*
X51788000Y-26008500D01*
X53516000Y-26008500D01*
X53574191Y-26027407D01*
G37*
%TD.AperFunction*%
%TA.AperFunction,Conductor*%
G36*
X48600191Y-26027407D02*
G01*
X48636155Y-26076907D01*
X48641000Y-26107500D01*
X48641000Y-30179995D01*
X48622093Y-30238186D01*
X48572593Y-30274150D01*
X48511407Y-30274150D01*
X48486998Y-30262310D01*
X48465183Y-30247733D01*
X48411222Y-30237000D01*
X48358001Y-30237000D01*
X48358000Y-30237001D01*
X48358000Y-30976998D01*
X48358001Y-30976999D01*
X48411214Y-30976999D01*
X48411224Y-30976998D01*
X48465181Y-30966266D01*
X48465183Y-30966265D01*
X48489990Y-30949689D01*
X48548878Y-30933078D01*
X48606282Y-30954253D01*
X48614999Y-30961998D01*
X48641000Y-30987999D01*
X48641000Y-30988000D01*
X48823523Y-30988000D01*
X48881714Y-31006907D01*
X48893526Y-31016996D01*
X48947595Y-31071064D01*
X48947598Y-31071066D01*
X49054824Y-31121067D01*
X49054825Y-31121067D01*
X49054827Y-31121068D01*
X49103684Y-31127500D01*
X49195889Y-31127500D01*
X49254080Y-31146407D01*
X49265896Y-31156499D01*
X49270452Y-31161056D01*
X49286335Y-31171668D01*
X49324215Y-31219717D01*
X49330335Y-31253984D01*
X49330335Y-31832209D01*
X49362409Y-31993461D01*
X49425328Y-32145361D01*
X49472815Y-32216429D01*
X49489500Y-32271431D01*
X49489500Y-32607428D01*
X49505281Y-32707064D01*
X49505283Y-32707071D01*
X49540386Y-32775963D01*
X49566472Y-32827159D01*
X49661780Y-32922467D01*
X49729946Y-32957199D01*
X49773210Y-33000463D01*
X49784000Y-33045408D01*
X49784000Y-33202469D01*
X49765093Y-33260660D01*
X49729946Y-33290678D01*
X49661781Y-33325410D01*
X49566470Y-33420721D01*
X49505283Y-33540806D01*
X49505281Y-33540813D01*
X49489500Y-33640449D01*
X49489500Y-33973872D01*
X49470593Y-34032063D01*
X49421093Y-34068027D01*
X49359907Y-34068027D01*
X49320497Y-34043876D01*
X48844355Y-33567735D01*
X48838334Y-33561953D01*
X48836922Y-33560652D01*
X48836909Y-33560640D01*
X48830794Y-33555224D01*
X48771817Y-33505046D01*
X48758801Y-33494845D01*
X48755672Y-33492590D01*
X48755667Y-33492587D01*
X48755655Y-33492578D01*
X48741911Y-33483491D01*
X48741912Y-33483491D01*
X48741896Y-33483481D01*
X48675619Y-33443384D01*
X48675596Y-33443370D01*
X48668468Y-33439250D01*
X48666811Y-33438336D01*
X48659469Y-33434478D01*
X48077721Y-33143602D01*
X48066933Y-33138594D01*
X48064353Y-33137486D01*
X48053296Y-33133112D01*
X47953816Y-33097055D01*
X47953729Y-33097018D01*
X47949350Y-33095436D01*
X47949275Y-33095409D01*
X47948331Y-33095067D01*
X47948266Y-33095045D01*
X47925679Y-33088323D01*
X47920305Y-33087054D01*
X47920285Y-33087050D01*
X47920282Y-33087049D01*
X47920280Y-33087049D01*
X47912155Y-33085622D01*
X47896846Y-33082933D01*
X47896842Y-33082932D01*
X47896839Y-33082932D01*
X47872925Y-33080147D01*
X47786097Y-33070036D01*
X47774186Y-33069001D01*
X47771399Y-33068840D01*
X47760273Y-33068520D01*
X47759573Y-33068500D01*
X46359854Y-33068500D01*
X46301663Y-33049593D01*
X46265699Y-33000093D01*
X46260864Y-32968188D01*
X46262511Y-32844647D01*
X46282190Y-32786720D01*
X46291503Y-32775963D01*
X46295265Y-32772201D01*
X46356045Y-32681236D01*
X46371999Y-32601030D01*
X46372000Y-32601025D01*
X46372000Y-32448940D01*
X46371999Y-32448939D01*
X46267787Y-32448939D01*
X46270454Y-32248939D01*
X46371999Y-32248939D01*
X46372000Y-32248938D01*
X46372000Y-32096852D01*
X46371999Y-32096847D01*
X46356045Y-32016640D01*
X46295265Y-31925677D01*
X46295261Y-31925673D01*
X46274945Y-31912098D01*
X46286220Y-31066500D01*
X46669921Y-31066500D01*
X46669921Y-31066499D01*
X46684508Y-31063598D01*
X46701046Y-31052548D01*
X46701048Y-31052546D01*
X46712098Y-31036008D01*
X46714999Y-31021421D01*
X46715000Y-31021421D01*
X46715000Y-30810224D01*
X47938001Y-30810224D01*
X47948733Y-30864181D01*
X47948734Y-30864184D01*
X47989620Y-30925373D01*
X47989626Y-30925379D01*
X48050816Y-30966266D01*
X48104780Y-30976999D01*
X48157999Y-30976998D01*
X48158000Y-30976998D01*
X48158000Y-30707001D01*
X48157999Y-30707000D01*
X47938002Y-30707000D01*
X47938001Y-30707001D01*
X47938001Y-30810224D01*
X46715000Y-30810224D01*
X46715000Y-30506999D01*
X47938000Y-30506999D01*
X47938001Y-30507000D01*
X48157999Y-30507000D01*
X48158000Y-30506999D01*
X48158000Y-30236999D01*
X48104785Y-30237000D01*
X48104774Y-30237001D01*
X48050818Y-30247733D01*
X48050815Y-30247734D01*
X47989626Y-30288620D01*
X47989620Y-30288626D01*
X47948733Y-30349816D01*
X47938000Y-30403777D01*
X47938000Y-30506999D01*
X46715000Y-30506999D01*
X46715000Y-28576501D01*
X46714999Y-28576500D01*
X46319420Y-28576500D01*
X46322087Y-28376500D01*
X46714999Y-28376500D01*
X46715000Y-28376499D01*
X46715000Y-26107500D01*
X46733907Y-26049309D01*
X46783407Y-26013345D01*
X46814000Y-26008500D01*
X48542000Y-26008500D01*
X48600191Y-26027407D01*
G37*
%TD.AperFunction*%
%TD*%
%TA.AperFunction,Conductor*%
%TO.N,GNDA*%
G36*
X51704677Y-35810624D02*
G01*
X51725319Y-35827258D01*
X51779681Y-35881620D01*
X51813166Y-35942943D01*
X51816000Y-35969301D01*
X51816000Y-36628577D01*
X51796315Y-36695616D01*
X51779681Y-36716258D01*
X51725319Y-36770620D01*
X51663996Y-36804105D01*
X51637638Y-36806939D01*
X51180999Y-36806939D01*
X51054000Y-36933938D01*
X51054000Y-36933939D01*
X51054000Y-38330939D01*
X51181000Y-38457939D01*
X51510638Y-38457939D01*
X51577677Y-38477624D01*
X51598319Y-38494258D01*
X51652681Y-38548620D01*
X51686166Y-38609943D01*
X51689000Y-38636301D01*
X51689000Y-39981939D01*
X51816000Y-40108939D01*
X52070000Y-40108939D01*
X52197000Y-40108939D01*
X52324000Y-40108939D01*
X53927508Y-40108939D01*
X53960777Y-40118707D01*
X52865575Y-40870939D01*
X51486362Y-40870939D01*
X51419323Y-40851254D01*
X51398681Y-40834620D01*
X51344319Y-40780258D01*
X51310834Y-40718935D01*
X51308000Y-40692577D01*
X51308000Y-40235939D01*
X51181000Y-40108939D01*
X50597362Y-40108939D01*
X50530323Y-40089254D01*
X50509681Y-40072620D01*
X50455319Y-40018258D01*
X50421834Y-39956935D01*
X50419000Y-39930577D01*
X50419000Y-39652301D01*
X50438685Y-39585262D01*
X50455319Y-39564620D01*
X50546000Y-39473939D01*
X50546000Y-38991648D01*
X50556567Y-38941559D01*
X50557035Y-38940500D01*
X50562585Y-38927930D01*
X50565500Y-38902804D01*
X50565500Y-38693665D01*
X50565500Y-38630212D01*
X50565500Y-38620223D01*
X50565499Y-38620209D01*
X50565499Y-38463082D01*
X50565499Y-38463075D01*
X50565497Y-38463056D01*
X50562586Y-38437953D01*
X50562585Y-38437949D01*
X50556564Y-38424312D01*
X50546000Y-38374229D01*
X50546000Y-38076939D01*
X50419000Y-37949939D01*
X49073362Y-37949939D01*
X49006323Y-37930254D01*
X48985681Y-37913620D01*
X48931319Y-37859258D01*
X48897834Y-37797935D01*
X48895000Y-37771577D01*
X48895000Y-37060939D01*
X48768000Y-36933939D01*
X48464563Y-36933939D01*
X48414476Y-36923373D01*
X48384992Y-36910354D01*
X48359868Y-36907439D01*
X48030862Y-36907439D01*
X47963823Y-36887754D01*
X47943181Y-36871120D01*
X47879000Y-36806939D01*
X47879000Y-35969301D01*
X47898685Y-35902262D01*
X47915319Y-35881620D01*
X47952181Y-35844758D01*
X48013504Y-35811273D01*
X48039862Y-35808439D01*
X48792725Y-35808439D01*
X48792727Y-35808439D01*
X48829133Y-35798684D01*
X48842272Y-35795164D01*
X48874364Y-35790939D01*
X51637638Y-35790939D01*
X51704677Y-35810624D01*
G37*
%TD.AperFunction*%
%TD*%
%TA.AperFunction,Conductor*%
%TO.N,Net-(U1-INLO)*%
G36*
X47983267Y-33326312D02*
G01*
X47985814Y-33327406D01*
X48171894Y-33420447D01*
X48567565Y-33618283D01*
X48569246Y-33619210D01*
X48635523Y-33659307D01*
X48638652Y-33661562D01*
X48697629Y-33711740D01*
X48699048Y-33713048D01*
X49636446Y-34650446D01*
X49638515Y-34652807D01*
X49715088Y-34752598D01*
X49718221Y-34758023D01*
X49720453Y-34763411D01*
X49722280Y-34772596D01*
X49722280Y-35341224D01*
X49734960Y-35388550D01*
X49734342Y-35402938D01*
X49731686Y-35410267D01*
X49730588Y-35412823D01*
X49714791Y-35444417D01*
X49712458Y-35448174D01*
X49670974Y-35502951D01*
X49664458Y-35508877D01*
X49607937Y-35543808D01*
X49599724Y-35546984D01*
X49532180Y-35559592D01*
X49527776Y-35560000D01*
X49495167Y-35560000D01*
X49490485Y-35559539D01*
X49414517Y-35544428D01*
X49405866Y-35540844D01*
X49343465Y-35499149D01*
X49336850Y-35492534D01*
X49295153Y-35430131D01*
X49291572Y-35421485D01*
X49276461Y-35345514D01*
X49276000Y-35340832D01*
X49276000Y-35165316D01*
X49276000Y-35165312D01*
X49276000Y-34925000D01*
X48641000Y-34417000D01*
X48465609Y-34417000D01*
X48251038Y-34417000D01*
X48251034Y-34417000D01*
X48133000Y-34417000D01*
X48027430Y-34469784D01*
X48027427Y-34469786D01*
X48027421Y-34469788D01*
X48027421Y-34469789D01*
X48027418Y-34469790D01*
X47985819Y-34490590D01*
X47983264Y-34491688D01*
X47879000Y-34529478D01*
X47879000Y-33288520D01*
X47983267Y-33326312D01*
G37*
%TD.AperFunction*%
%TD*%
%TA.AperFunction,Conductor*%
%TO.N,GNDA*%
G36*
X46235029Y-39758029D02*
G01*
X46347971Y-39870971D01*
X46355000Y-39887942D01*
X46355000Y-40513000D01*
X47363971Y-41521971D01*
X47371000Y-41538941D01*
X47371000Y-43436500D01*
X47363971Y-43453471D01*
X47347000Y-43460500D01*
X41653500Y-43460500D01*
X41636529Y-43453471D01*
X41629500Y-43436500D01*
X41629500Y-40537000D01*
X41636529Y-40520029D01*
X41653500Y-40513000D01*
X43052998Y-40513000D01*
X43053000Y-40513000D01*
X43807971Y-39758029D01*
X43824942Y-39751000D01*
X46218058Y-39751000D01*
X46235029Y-39758029D01*
G37*
%TD.AperFunction*%
%TD*%
%TA.AperFunction,Conductor*%
%TO.N,+5V*%
G36*
X58693471Y-37726029D02*
G01*
X58700500Y-37743000D01*
X58700500Y-43436500D01*
X58693471Y-43453471D01*
X58676500Y-43460500D01*
X56312895Y-43460500D01*
X56295924Y-43453471D01*
X56294673Y-43452119D01*
X56281285Y-43436500D01*
X55631778Y-42678741D01*
X55626000Y-42663122D01*
X55626000Y-40640000D01*
X54998029Y-40012029D01*
X54991000Y-39995058D01*
X54991000Y-38989001D01*
X54991000Y-38989000D01*
X54737000Y-38735000D01*
X54736999Y-38735000D01*
X54238942Y-38735000D01*
X54221971Y-38727971D01*
X54109029Y-38615029D01*
X54102000Y-38598058D01*
X54102000Y-37855942D01*
X54109029Y-37838971D01*
X54221971Y-37726029D01*
X54238942Y-37719000D01*
X58676500Y-37719000D01*
X58693471Y-37726029D01*
G37*
%TD.AperFunction*%
%TD*%
%TA.AperFunction,Conductor*%
%TO.N,GNDA*%
G36*
X47879000Y-36806939D02*
G01*
X47752000Y-36679939D01*
X45898362Y-36679939D01*
X45831323Y-36660254D01*
X45810681Y-36643620D01*
X45756319Y-36589258D01*
X45722834Y-36527935D01*
X45720000Y-36501577D01*
X45720000Y-36350301D01*
X45739685Y-36283262D01*
X45756319Y-36262620D01*
X45810681Y-36208258D01*
X45872004Y-36174773D01*
X45898362Y-36171939D01*
X47752000Y-36171939D01*
X47879000Y-36044939D01*
X47879000Y-36806939D01*
G37*
%TD.AperFunction*%
%TD*%
%TA.AperFunction,Conductor*%
%TO.N,+5V*%
G36*
X43819971Y-37726029D02*
G01*
X43822200Y-37728600D01*
X44196000Y-38227000D01*
X45204733Y-38227000D01*
X45218046Y-38231031D01*
X45582313Y-38473875D01*
X45592534Y-38489137D01*
X45593000Y-38493844D01*
X45593000Y-38979058D01*
X45585971Y-38996029D01*
X45346029Y-39235971D01*
X45329058Y-39243000D01*
X43688000Y-39243000D01*
X43498102Y-39432898D01*
X43308203Y-39622796D01*
X43305632Y-39625025D01*
X42805400Y-40000200D01*
X42791000Y-40005000D01*
X41653500Y-40005000D01*
X41636529Y-39997971D01*
X41629500Y-39981000D01*
X41629500Y-37743000D01*
X41636529Y-37726029D01*
X41653500Y-37719000D01*
X43803000Y-37719000D01*
X43819971Y-37726029D01*
G37*
%TD.AperFunction*%
%TD*%
%TA.AperFunction,Conductor*%
%TO.N,GNDA*%
G36*
X45107971Y-26015529D02*
G01*
X45115000Y-26032500D01*
X45115000Y-28376499D01*
X45115001Y-28376500D01*
X45991000Y-28376500D01*
X46007971Y-28383529D01*
X46015000Y-28400500D01*
X46015000Y-31066499D01*
X46015001Y-31066500D01*
X46286220Y-31066500D01*
X46274945Y-31912098D01*
X46204298Y-31864893D01*
X46124092Y-31848939D01*
X45947001Y-31848939D01*
X45947000Y-31848940D01*
X45947000Y-32424939D01*
X45939971Y-32441910D01*
X45923000Y-32448939D01*
X45322001Y-32448939D01*
X45322000Y-32448940D01*
X45322000Y-32601031D01*
X45337954Y-32681237D01*
X45369645Y-32728666D01*
X45373229Y-32746682D01*
X45363024Y-32761955D01*
X45349690Y-32766000D01*
X44450000Y-32766000D01*
X43629942Y-33586058D01*
X43612971Y-33603029D01*
X43596000Y-33610058D01*
X43579029Y-33603029D01*
X43572000Y-33586058D01*
X43572000Y-33054077D01*
X43571999Y-33054069D01*
X43569099Y-33039493D01*
X43558048Y-33022953D01*
X43558046Y-33022951D01*
X43541506Y-33011900D01*
X43526930Y-33009000D01*
X42772001Y-33009000D01*
X42772000Y-33009001D01*
X42772000Y-33418157D01*
X42737826Y-33409000D01*
X42606174Y-33409000D01*
X42572000Y-33418157D01*
X42572000Y-33009001D01*
X42571999Y-33009000D01*
X41817069Y-33009000D01*
X41802493Y-33011900D01*
X41785953Y-33022951D01*
X41785951Y-33022953D01*
X41774900Y-33039493D01*
X41772000Y-33054069D01*
X41772000Y-33808999D01*
X41772001Y-33809000D01*
X42181157Y-33809000D01*
X42172000Y-33843174D01*
X42172000Y-33974826D01*
X42181157Y-34009000D01*
X41772001Y-34009000D01*
X41772000Y-34009001D01*
X41772000Y-34763930D01*
X41774900Y-34778506D01*
X41785951Y-34795046D01*
X41785953Y-34795048D01*
X41802493Y-34806099D01*
X41817069Y-34808999D01*
X41817078Y-34809000D01*
X42571999Y-34809000D01*
X42572000Y-34808999D01*
X42572000Y-34399842D01*
X42606174Y-34409000D01*
X42737826Y-34409000D01*
X42772000Y-34399842D01*
X42772000Y-34808999D01*
X42772001Y-34809000D01*
X42984058Y-34809000D01*
X43001029Y-34816029D01*
X43008058Y-34833000D01*
X43001029Y-34849971D01*
X42933029Y-34917971D01*
X42916058Y-34925000D01*
X41653500Y-34925000D01*
X41636529Y-34917971D01*
X41629500Y-34901000D01*
X41629500Y-32248938D01*
X45322000Y-32248938D01*
X45322001Y-32248939D01*
X45746999Y-32248939D01*
X45747000Y-32248938D01*
X45747000Y-31848940D01*
X45746999Y-31848939D01*
X45569907Y-31848939D01*
X45489701Y-31864893D01*
X45398738Y-31925673D01*
X45398734Y-31925677D01*
X45337954Y-32016640D01*
X45322000Y-32096846D01*
X45322000Y-32248938D01*
X41629500Y-32248938D01*
X41629500Y-31021430D01*
X45115000Y-31021430D01*
X45117900Y-31036006D01*
X45128951Y-31052546D01*
X45128953Y-31052548D01*
X45145493Y-31063599D01*
X45160069Y-31066499D01*
X45160078Y-31066500D01*
X45814999Y-31066500D01*
X45815000Y-31066499D01*
X45815000Y-28576501D01*
X45814999Y-28576500D01*
X45115001Y-28576500D01*
X45115000Y-28576501D01*
X45115000Y-31021430D01*
X41629500Y-31021430D01*
X41629500Y-26032500D01*
X41636529Y-26015529D01*
X41653500Y-26008500D01*
X45091000Y-26008500D01*
X45107971Y-26015529D01*
G37*
%TD.AperFunction*%
%TD*%
M02*
