%TF.GenerationSoftware,KiCad,Pcbnew,8.0.0*%
%TF.CreationDate,2024-08-25T13:38:48+02:00*%
%TF.ProjectId,Detector_PTFE,44657465-6374-46f7-925f-505446452e6b,rev?*%
%TF.SameCoordinates,Original*%
%TF.FileFunction,Legend,Bot*%
%TF.FilePolarity,Positive*%
%FSLAX46Y46*%
G04 Gerber Fmt 4.6, Leading zero omitted, Abs format (unit mm)*
G04 Created by KiCad (PCBNEW 8.0.0) date 2024-08-25 13:38:48*
%MOMM*%
%LPD*%
G01*
G04 APERTURE LIST*
%ADD10C,0.100000*%
%ADD11C,0.125000*%
G04 APERTURE END LIST*
D10*
X46026605Y-35231605D02*
G75*
G02*
X45667395Y-35231605I-179605J0D01*
G01*
X45667395Y-35231605D02*
G75*
G02*
X46026605Y-35231605I179605J0D01*
G01*
X48947605Y-39549605D02*
G75*
G02*
X48588395Y-39549605I-179605J0D01*
G01*
X48588395Y-39549605D02*
G75*
G02*
X48947605Y-39549605I179605J0D01*
G01*
X53646605Y-36120605D02*
G75*
G02*
X53287395Y-36120605I-179605J0D01*
G01*
X53287395Y-36120605D02*
G75*
G02*
X53646605Y-36120605I179605J0D01*
G01*
X50725605Y-39549605D02*
G75*
G02*
X50366395Y-39549605I-179605J0D01*
G01*
X50366395Y-39549605D02*
G75*
G02*
X50725605Y-39549605I179605J0D01*
G01*
X46026605Y-34469605D02*
G75*
G02*
X45667395Y-34469605I-179605J0D01*
G01*
X45667395Y-34469605D02*
G75*
G02*
X46026605Y-34469605I179605J0D01*
G01*
X46026605Y-36120605D02*
G75*
G02*
X45667395Y-36120605I-179605J0D01*
G01*
X45667395Y-36120605D02*
G75*
G02*
X46026605Y-36120605I179605J0D01*
G01*
X49836605Y-39549605D02*
G75*
G02*
X49477395Y-39549605I-179605J0D01*
G01*
X49477395Y-39549605D02*
G75*
G02*
X49836605Y-39549605I179605J0D01*
G01*
X51614605Y-39549605D02*
G75*
G02*
X51255395Y-39549605I-179605J0D01*
G01*
X51255395Y-39549605D02*
G75*
G02*
X51614605Y-39549605I179605J0D01*
G01*
X53646605Y-34342605D02*
G75*
G02*
X53287395Y-34342605I-179605J0D01*
G01*
X53287395Y-34342605D02*
G75*
G02*
X53646605Y-34342605I179605J0D01*
G01*
X46026605Y-37009605D02*
G75*
G02*
X45667395Y-37009605I-179605J0D01*
G01*
X45667395Y-37009605D02*
G75*
G02*
X46026605Y-37009605I179605J0D01*
G01*
X53646605Y-35231605D02*
G75*
G02*
X53287395Y-35231605I-179605J0D01*
G01*
X53287395Y-35231605D02*
G75*
G02*
X53646605Y-35231605I179605J0D01*
G01*
X53646605Y-36882605D02*
G75*
G02*
X53287395Y-36882605I-179605J0D01*
G01*
X53287395Y-36882605D02*
G75*
G02*
X53646605Y-36882605I179605J0D01*
G01*
D11*
X52646621Y-36695914D02*
X52884716Y-36695914D01*
X52884716Y-36695914D02*
X52908525Y-36934009D01*
X52908525Y-36934009D02*
X52884716Y-36910200D01*
X52884716Y-36910200D02*
X52837097Y-36886390D01*
X52837097Y-36886390D02*
X52718049Y-36886390D01*
X52718049Y-36886390D02*
X52670430Y-36910200D01*
X52670430Y-36910200D02*
X52646621Y-36934009D01*
X52646621Y-36934009D02*
X52622811Y-36981628D01*
X52622811Y-36981628D02*
X52622811Y-37100676D01*
X52622811Y-37100676D02*
X52646621Y-37148295D01*
X52646621Y-37148295D02*
X52670430Y-37172105D01*
X52670430Y-37172105D02*
X52718049Y-37195914D01*
X52718049Y-37195914D02*
X52837097Y-37195914D01*
X52837097Y-37195914D02*
X52884716Y-37172105D01*
X52884716Y-37172105D02*
X52908525Y-37148295D01*
X52479954Y-36695914D02*
X52313288Y-37195914D01*
X52313288Y-37195914D02*
X52146621Y-36695914D01*
X50232309Y-37941126D02*
X50232309Y-38036364D01*
X50232309Y-38036364D02*
X50256119Y-38083983D01*
X50256119Y-38083983D02*
X50303738Y-38131602D01*
X50303738Y-38131602D02*
X50398976Y-38155412D01*
X50398976Y-38155412D02*
X50565642Y-38155412D01*
X50565642Y-38155412D02*
X50660880Y-38131602D01*
X50660880Y-38131602D02*
X50708500Y-38083983D01*
X50708500Y-38083983D02*
X50732309Y-38036364D01*
X50732309Y-38036364D02*
X50732309Y-37941126D01*
X50732309Y-37941126D02*
X50708500Y-37893507D01*
X50708500Y-37893507D02*
X50660880Y-37845888D01*
X50660880Y-37845888D02*
X50565642Y-37822079D01*
X50565642Y-37822079D02*
X50398976Y-37822079D01*
X50398976Y-37822079D02*
X50303738Y-37845888D01*
X50303738Y-37845888D02*
X50256119Y-37893507D01*
X50256119Y-37893507D02*
X50232309Y-37941126D01*
X50232309Y-38369698D02*
X50637071Y-38369698D01*
X50637071Y-38369698D02*
X50684690Y-38393508D01*
X50684690Y-38393508D02*
X50708500Y-38417317D01*
X50708500Y-38417317D02*
X50732309Y-38464936D01*
X50732309Y-38464936D02*
X50732309Y-38560174D01*
X50732309Y-38560174D02*
X50708500Y-38607793D01*
X50708500Y-38607793D02*
X50684690Y-38631603D01*
X50684690Y-38631603D02*
X50637071Y-38655412D01*
X50637071Y-38655412D02*
X50232309Y-38655412D01*
X50232309Y-38822080D02*
X50232309Y-39107794D01*
X50732309Y-38964937D02*
X50232309Y-38964937D01*
X52646621Y-35933914D02*
X52884716Y-35933914D01*
X52884716Y-35933914D02*
X52908525Y-36172009D01*
X52908525Y-36172009D02*
X52884716Y-36148200D01*
X52884716Y-36148200D02*
X52837097Y-36124390D01*
X52837097Y-36124390D02*
X52718049Y-36124390D01*
X52718049Y-36124390D02*
X52670430Y-36148200D01*
X52670430Y-36148200D02*
X52646621Y-36172009D01*
X52646621Y-36172009D02*
X52622811Y-36219628D01*
X52622811Y-36219628D02*
X52622811Y-36338676D01*
X52622811Y-36338676D02*
X52646621Y-36386295D01*
X52646621Y-36386295D02*
X52670430Y-36410105D01*
X52670430Y-36410105D02*
X52718049Y-36433914D01*
X52718049Y-36433914D02*
X52837097Y-36433914D01*
X52837097Y-36433914D02*
X52884716Y-36410105D01*
X52884716Y-36410105D02*
X52908525Y-36386295D01*
X52479954Y-35933914D02*
X52313288Y-36433914D01*
X52313288Y-36433914D02*
X52146621Y-35933914D01*
X49343309Y-37941126D02*
X49343309Y-38036364D01*
X49343309Y-38036364D02*
X49367119Y-38083983D01*
X49367119Y-38083983D02*
X49414738Y-38131602D01*
X49414738Y-38131602D02*
X49509976Y-38155412D01*
X49509976Y-38155412D02*
X49676642Y-38155412D01*
X49676642Y-38155412D02*
X49771880Y-38131602D01*
X49771880Y-38131602D02*
X49819500Y-38083983D01*
X49819500Y-38083983D02*
X49843309Y-38036364D01*
X49843309Y-38036364D02*
X49843309Y-37941126D01*
X49843309Y-37941126D02*
X49819500Y-37893507D01*
X49819500Y-37893507D02*
X49771880Y-37845888D01*
X49771880Y-37845888D02*
X49676642Y-37822079D01*
X49676642Y-37822079D02*
X49509976Y-37822079D01*
X49509976Y-37822079D02*
X49414738Y-37845888D01*
X49414738Y-37845888D02*
X49367119Y-37893507D01*
X49367119Y-37893507D02*
X49343309Y-37941126D01*
X49343309Y-38369698D02*
X49748071Y-38369698D01*
X49748071Y-38369698D02*
X49795690Y-38393508D01*
X49795690Y-38393508D02*
X49819500Y-38417317D01*
X49819500Y-38417317D02*
X49843309Y-38464936D01*
X49843309Y-38464936D02*
X49843309Y-38560174D01*
X49843309Y-38560174D02*
X49819500Y-38607793D01*
X49819500Y-38607793D02*
X49795690Y-38631603D01*
X49795690Y-38631603D02*
X49748071Y-38655412D01*
X49748071Y-38655412D02*
X49343309Y-38655412D01*
X49343309Y-38822080D02*
X49343309Y-39107794D01*
X49843309Y-38964937D02*
X49343309Y-38964937D01*
X47415811Y-36846724D02*
X47463430Y-36822914D01*
X47463430Y-36822914D02*
X47534859Y-36822914D01*
X47534859Y-36822914D02*
X47606287Y-36846724D01*
X47606287Y-36846724D02*
X47653906Y-36894343D01*
X47653906Y-36894343D02*
X47677716Y-36941962D01*
X47677716Y-36941962D02*
X47701525Y-37037200D01*
X47701525Y-37037200D02*
X47701525Y-37108628D01*
X47701525Y-37108628D02*
X47677716Y-37203866D01*
X47677716Y-37203866D02*
X47653906Y-37251485D01*
X47653906Y-37251485D02*
X47606287Y-37299105D01*
X47606287Y-37299105D02*
X47534859Y-37322914D01*
X47534859Y-37322914D02*
X47487240Y-37322914D01*
X47487240Y-37322914D02*
X47415811Y-37299105D01*
X47415811Y-37299105D02*
X47392002Y-37275295D01*
X47392002Y-37275295D02*
X47392002Y-37108628D01*
X47392002Y-37108628D02*
X47487240Y-37108628D01*
X47177716Y-37322914D02*
X47177716Y-36822914D01*
X47177716Y-36822914D02*
X46892002Y-37322914D01*
X46892002Y-37322914D02*
X46892002Y-36822914D01*
X46653906Y-37322914D02*
X46653906Y-36822914D01*
X46653906Y-36822914D02*
X46534858Y-36822914D01*
X46534858Y-36822914D02*
X46463430Y-36846724D01*
X46463430Y-36846724D02*
X46415811Y-36894343D01*
X46415811Y-36894343D02*
X46392001Y-36941962D01*
X46392001Y-36941962D02*
X46368192Y-37037200D01*
X46368192Y-37037200D02*
X46368192Y-37108628D01*
X46368192Y-37108628D02*
X46392001Y-37203866D01*
X46392001Y-37203866D02*
X46415811Y-37251485D01*
X46415811Y-37251485D02*
X46463430Y-37299105D01*
X46463430Y-37299105D02*
X46534858Y-37322914D01*
X46534858Y-37322914D02*
X46653906Y-37322914D01*
X48478119Y-37980793D02*
X48454309Y-37933174D01*
X48454309Y-37933174D02*
X48454309Y-37861745D01*
X48454309Y-37861745D02*
X48478119Y-37790317D01*
X48478119Y-37790317D02*
X48525738Y-37742698D01*
X48525738Y-37742698D02*
X48573357Y-37718888D01*
X48573357Y-37718888D02*
X48668595Y-37695079D01*
X48668595Y-37695079D02*
X48740023Y-37695079D01*
X48740023Y-37695079D02*
X48835261Y-37718888D01*
X48835261Y-37718888D02*
X48882880Y-37742698D01*
X48882880Y-37742698D02*
X48930500Y-37790317D01*
X48930500Y-37790317D02*
X48954309Y-37861745D01*
X48954309Y-37861745D02*
X48954309Y-37909364D01*
X48954309Y-37909364D02*
X48930500Y-37980793D01*
X48930500Y-37980793D02*
X48906690Y-38004602D01*
X48906690Y-38004602D02*
X48740023Y-38004602D01*
X48740023Y-38004602D02*
X48740023Y-37909364D01*
X48954309Y-38218888D02*
X48454309Y-38218888D01*
X48454309Y-38218888D02*
X48954309Y-38504602D01*
X48954309Y-38504602D02*
X48454309Y-38504602D01*
X48954309Y-38742698D02*
X48454309Y-38742698D01*
X48454309Y-38742698D02*
X48454309Y-38861746D01*
X48454309Y-38861746D02*
X48478119Y-38933174D01*
X48478119Y-38933174D02*
X48525738Y-38980793D01*
X48525738Y-38980793D02*
X48573357Y-39004603D01*
X48573357Y-39004603D02*
X48668595Y-39028412D01*
X48668595Y-39028412D02*
X48740023Y-39028412D01*
X48740023Y-39028412D02*
X48835261Y-39004603D01*
X48835261Y-39004603D02*
X48882880Y-38980793D01*
X48882880Y-38980793D02*
X48930500Y-38933174D01*
X48930500Y-38933174D02*
X48954309Y-38861746D01*
X48954309Y-38861746D02*
X48954309Y-38742698D01*
X51145119Y-37980793D02*
X51121309Y-37933174D01*
X51121309Y-37933174D02*
X51121309Y-37861745D01*
X51121309Y-37861745D02*
X51145119Y-37790317D01*
X51145119Y-37790317D02*
X51192738Y-37742698D01*
X51192738Y-37742698D02*
X51240357Y-37718888D01*
X51240357Y-37718888D02*
X51335595Y-37695079D01*
X51335595Y-37695079D02*
X51407023Y-37695079D01*
X51407023Y-37695079D02*
X51502261Y-37718888D01*
X51502261Y-37718888D02*
X51549880Y-37742698D01*
X51549880Y-37742698D02*
X51597500Y-37790317D01*
X51597500Y-37790317D02*
X51621309Y-37861745D01*
X51621309Y-37861745D02*
X51621309Y-37909364D01*
X51621309Y-37909364D02*
X51597500Y-37980793D01*
X51597500Y-37980793D02*
X51573690Y-38004602D01*
X51573690Y-38004602D02*
X51407023Y-38004602D01*
X51407023Y-38004602D02*
X51407023Y-37909364D01*
X51621309Y-38218888D02*
X51121309Y-38218888D01*
X51121309Y-38218888D02*
X51621309Y-38504602D01*
X51621309Y-38504602D02*
X51121309Y-38504602D01*
X51621309Y-38742698D02*
X51121309Y-38742698D01*
X51121309Y-38742698D02*
X51121309Y-38861746D01*
X51121309Y-38861746D02*
X51145119Y-38933174D01*
X51145119Y-38933174D02*
X51192738Y-38980793D01*
X51192738Y-38980793D02*
X51240357Y-39004603D01*
X51240357Y-39004603D02*
X51335595Y-39028412D01*
X51335595Y-39028412D02*
X51407023Y-39028412D01*
X51407023Y-39028412D02*
X51502261Y-39004603D01*
X51502261Y-39004603D02*
X51549880Y-38980793D01*
X51549880Y-38980793D02*
X51597500Y-38933174D01*
X51597500Y-38933174D02*
X51621309Y-38861746D01*
X51621309Y-38861746D02*
X51621309Y-38742698D01*
X46931621Y-35933914D02*
X47169716Y-35933914D01*
X47169716Y-35933914D02*
X47193525Y-36172009D01*
X47193525Y-36172009D02*
X47169716Y-36148200D01*
X47169716Y-36148200D02*
X47122097Y-36124390D01*
X47122097Y-36124390D02*
X47003049Y-36124390D01*
X47003049Y-36124390D02*
X46955430Y-36148200D01*
X46955430Y-36148200D02*
X46931621Y-36172009D01*
X46931621Y-36172009D02*
X46907811Y-36219628D01*
X46907811Y-36219628D02*
X46907811Y-36338676D01*
X46907811Y-36338676D02*
X46931621Y-36386295D01*
X46931621Y-36386295D02*
X46955430Y-36410105D01*
X46955430Y-36410105D02*
X47003049Y-36433914D01*
X47003049Y-36433914D02*
X47122097Y-36433914D01*
X47122097Y-36433914D02*
X47169716Y-36410105D01*
X47169716Y-36410105D02*
X47193525Y-36386295D01*
X46764954Y-35933914D02*
X46598288Y-36433914D01*
X46598288Y-36433914D02*
X46431621Y-35933914D01*
X47415811Y-34306724D02*
X47463430Y-34282914D01*
X47463430Y-34282914D02*
X47534859Y-34282914D01*
X47534859Y-34282914D02*
X47606287Y-34306724D01*
X47606287Y-34306724D02*
X47653906Y-34354343D01*
X47653906Y-34354343D02*
X47677716Y-34401962D01*
X47677716Y-34401962D02*
X47701525Y-34497200D01*
X47701525Y-34497200D02*
X47701525Y-34568628D01*
X47701525Y-34568628D02*
X47677716Y-34663866D01*
X47677716Y-34663866D02*
X47653906Y-34711485D01*
X47653906Y-34711485D02*
X47606287Y-34759105D01*
X47606287Y-34759105D02*
X47534859Y-34782914D01*
X47534859Y-34782914D02*
X47487240Y-34782914D01*
X47487240Y-34782914D02*
X47415811Y-34759105D01*
X47415811Y-34759105D02*
X47392002Y-34735295D01*
X47392002Y-34735295D02*
X47392002Y-34568628D01*
X47392002Y-34568628D02*
X47487240Y-34568628D01*
X47177716Y-34782914D02*
X47177716Y-34282914D01*
X47177716Y-34282914D02*
X46892002Y-34782914D01*
X46892002Y-34782914D02*
X46892002Y-34282914D01*
X46653906Y-34782914D02*
X46653906Y-34282914D01*
X46653906Y-34282914D02*
X46534858Y-34282914D01*
X46534858Y-34282914D02*
X46463430Y-34306724D01*
X46463430Y-34306724D02*
X46415811Y-34354343D01*
X46415811Y-34354343D02*
X46392001Y-34401962D01*
X46392001Y-34401962D02*
X46368192Y-34497200D01*
X46368192Y-34497200D02*
X46368192Y-34568628D01*
X46368192Y-34568628D02*
X46392001Y-34663866D01*
X46392001Y-34663866D02*
X46415811Y-34711485D01*
X46415811Y-34711485D02*
X46463430Y-34759105D01*
X46463430Y-34759105D02*
X46534858Y-34782914D01*
X46534858Y-34782914D02*
X46653906Y-34782914D01*
D10*
X52972591Y-34157214D02*
X52686877Y-34157214D01*
X52829734Y-34657214D02*
X52829734Y-34157214D01*
X52520211Y-34395309D02*
X52353544Y-34395309D01*
X52282116Y-34657214D02*
X52520211Y-34657214D01*
X52520211Y-34657214D02*
X52520211Y-34157214D01*
X52520211Y-34157214D02*
X52282116Y-34157214D01*
X52067830Y-34657214D02*
X52067830Y-34157214D01*
X52067830Y-34157214D02*
X51901163Y-34514357D01*
X51901163Y-34514357D02*
X51734497Y-34157214D01*
X51734497Y-34157214D02*
X51734497Y-34657214D01*
X51496401Y-34657214D02*
X51496401Y-34157214D01*
X51496401Y-34157214D02*
X51305925Y-34157214D01*
X51305925Y-34157214D02*
X51258306Y-34181024D01*
X51258306Y-34181024D02*
X51234496Y-34204833D01*
X51234496Y-34204833D02*
X51210687Y-34252452D01*
X51210687Y-34252452D02*
X51210687Y-34323881D01*
X51210687Y-34323881D02*
X51234496Y-34371500D01*
X51234496Y-34371500D02*
X51258306Y-34395309D01*
X51258306Y-34395309D02*
X51305925Y-34419119D01*
X51305925Y-34419119D02*
X51496401Y-34419119D01*
D11*
X52956144Y-35044914D02*
X52670430Y-35044914D01*
X52813287Y-35544914D02*
X52813287Y-35044914D01*
X52622812Y-35592533D02*
X52241859Y-35592533D01*
X52146621Y-35402057D02*
X51908526Y-35402057D01*
X52194240Y-35544914D02*
X52027574Y-35044914D01*
X52027574Y-35044914D02*
X51860907Y-35544914D01*
X51694241Y-35544914D02*
X51694241Y-35044914D01*
X51694241Y-35044914D02*
X51575193Y-35044914D01*
X51575193Y-35044914D02*
X51503765Y-35068724D01*
X51503765Y-35068724D02*
X51456146Y-35116343D01*
X51456146Y-35116343D02*
X51432336Y-35163962D01*
X51432336Y-35163962D02*
X51408527Y-35259200D01*
X51408527Y-35259200D02*
X51408527Y-35330628D01*
X51408527Y-35330628D02*
X51432336Y-35425866D01*
X51432336Y-35425866D02*
X51456146Y-35473485D01*
X51456146Y-35473485D02*
X51503765Y-35521105D01*
X51503765Y-35521105D02*
X51575193Y-35544914D01*
X51575193Y-35544914D02*
X51694241Y-35544914D01*
X51051384Y-35044914D02*
X51051384Y-35402057D01*
X51051384Y-35402057D02*
X51075193Y-35473485D01*
X51075193Y-35473485D02*
X51122812Y-35521105D01*
X51122812Y-35521105D02*
X51194241Y-35544914D01*
X51194241Y-35544914D02*
X51241860Y-35544914D01*
D10*
X48964163Y-35284309D02*
X48797496Y-35284309D01*
X48726068Y-35546214D02*
X48964163Y-35546214D01*
X48964163Y-35546214D02*
X48964163Y-35046214D01*
X48964163Y-35046214D02*
X48726068Y-35046214D01*
X48511782Y-35546214D02*
X48511782Y-35046214D01*
X48511782Y-35046214D02*
X48226068Y-35546214D01*
X48226068Y-35546214D02*
X48226068Y-35046214D01*
X48011781Y-35403357D02*
X47773686Y-35403357D01*
X48059400Y-35546214D02*
X47892734Y-35046214D01*
X47892734Y-35046214D02*
X47726067Y-35546214D01*
X47392734Y-35284309D02*
X47321306Y-35308119D01*
X47321306Y-35308119D02*
X47297496Y-35331928D01*
X47297496Y-35331928D02*
X47273687Y-35379547D01*
X47273687Y-35379547D02*
X47273687Y-35450976D01*
X47273687Y-35450976D02*
X47297496Y-35498595D01*
X47297496Y-35498595D02*
X47321306Y-35522405D01*
X47321306Y-35522405D02*
X47368925Y-35546214D01*
X47368925Y-35546214D02*
X47559401Y-35546214D01*
X47559401Y-35546214D02*
X47559401Y-35046214D01*
X47559401Y-35046214D02*
X47392734Y-35046214D01*
X47392734Y-35046214D02*
X47345115Y-35070024D01*
X47345115Y-35070024D02*
X47321306Y-35093833D01*
X47321306Y-35093833D02*
X47297496Y-35141452D01*
X47297496Y-35141452D02*
X47297496Y-35189071D01*
X47297496Y-35189071D02*
X47321306Y-35236690D01*
X47321306Y-35236690D02*
X47345115Y-35260500D01*
X47345115Y-35260500D02*
X47392734Y-35284309D01*
X47392734Y-35284309D02*
X47559401Y-35284309D01*
X46821306Y-35546214D02*
X47059401Y-35546214D01*
X47059401Y-35546214D02*
X47059401Y-35046214D01*
X46654639Y-35284309D02*
X46487972Y-35284309D01*
X46416544Y-35546214D02*
X46654639Y-35546214D01*
X46654639Y-35546214D02*
X46654639Y-35046214D01*
X46654639Y-35046214D02*
X46416544Y-35046214D01*
M02*
