M48
; DRILL file {KiCad 8.0.0} date 2024-08-25T13:38:46+0200
; FORMAT={-:-/ absolute / inch / decimal}
; #@! TF.CreationDate,2024-08-25T13:38:46+02:00
; #@! TF.GenerationSoftware,Kicad,Pcbnew,8.0.0
; #@! TF.FileFunction,Plated,1,2,PTH
FMAT,2
INCH
; #@! TA.AperFunction,Plated,PTH,ViaDrill
T1C0.0118
; #@! TA.AperFunction,Plated,PTH,ComponentDrill
T2C0.0394
%
G90
G05
T1
X1.765Y-1.035
X1.765Y-1.115
X1.765Y-1.195
X1.765Y-1.25
X1.775Y-1.575
X1.805Y-1.61
X1.845Y-1.035
X1.845Y-1.115
X1.845Y-1.195
X1.845Y-1.25
X1.875Y-1.435
X1.905Y-1.055
X1.905Y-1.095
X1.905Y-1.135
X1.905Y-1.175
X1.925Y-1.235
X1.925Y-1.27
X1.925Y-1.305
X2.02Y-1.545
X2.025Y-1.235
X2.025Y-1.27
X2.025Y-1.305
X2.045Y-1.055
X2.045Y-1.095
X2.045Y-1.135
X2.045Y-1.175
X2.105Y-1.035
X2.105Y-1.115
X2.105Y-1.195
X2.185Y-1.035
X2.185Y-1.115
X2.185Y-1.195
T2
X1.68Y-1.335
X1.68Y-1.435
X1.68Y-1.535
X1.68Y-1.635
X1.825Y-1.6741
X1.925Y-1.6741
X2.025Y-1.6741
X2.125Y-1.6741
X2.27Y-1.335
X2.27Y-1.435
X2.27Y-1.535
X2.27Y-1.635
M30
